<?xml version="1.0" encoding="UTF-8" standalone="no"?>
<!-- Created with Inkscape (http://www.inkscape.org/) -->

<svg
   width="1250"
   height="800"
   viewBox="0 0 1250 800"
   version="1.1"
   id="svg1"
   inkscape:version="1.4.3 (0d15f75, 2025-12-25)"
   sodipodi:docname="beer-flag-es.svg"
   xml:space="preserve"
   xmlns:inkscape="http://www.inkscape.org/namespaces/inkscape"
   xmlns:sodipodi="http://sodipodi.sourceforge.net/DTD/sodipodi-0.dtd"
   xmlns:xlink="http://www.w3.org/1999/xlink"
   xmlns="http://www.w3.org/2000/svg"
   xmlns:svg="http://www.w3.org/2000/svg"><sodipodi:namedview
     id="namedview1"
     pagecolor="#ffffff"
     bordercolor="#000000"
     borderopacity="0.25"
     inkscape:showpageshadow="2"
     inkscape:pageopacity="0.0"
     inkscape:pagecheckerboard="0"
     inkscape:deskcolor="#d1d1d1"
     inkscape:document-units="px"
     inkscape:zoom="0.67615741"
     inkscape:cx="751.30435"
     inkscape:cy="336.46012"
     inkscape:window-width="1920"
     inkscape:window-height="1004"
     inkscape:window-x="-8"
     inkscape:window-y="-8"
     inkscape:window-maximized="1"
     inkscape:current-layer="layer3" /><defs
     id="defs1"><linearGradient
       id="linearGradient1109"
       inkscape:collect="always"><stop
         style="stop-color:#000000;stop-opacity:0;"
         offset="0"
         id="stop1110" /><stop
         style="stop-color:#000000;stop-opacity:1;"
         offset="0.718894"
         id="stop1109" /></linearGradient><inkscape:path-effect
       effect="fillet_chamfer"
       id="path-effect1108"
       is_visible="true"
       lpeversion="1"
       nodesatellites_param="F,0,0,1,0,60.784669,0,1 @ F,0,1,1,0,60.784669,0,1 @ F,0,1,1,0,60.784669,0,1 @ F,0,1,1,0,60.784669,0,1"
       radius="0"
       unit="px"
       method="auto"
       mode="F"
       chamfer_steps="1"
       flexible="false"
       use_knot_distance="true"
       apply_no_radius="true"
       apply_with_radius="true"
       only_selected="false"
       hide_knots="false" /><inkscape:path-effect
       effect="perspective-envelope"
       up_left_point="352.302,142.41217"
       up_right_point="984.65226,142.41217"
       down_left_point="357.53086,256.29393"
       down_right_point="966.43297,435.38845"
       id="path-effect8"
       is_visible="true"
       lpeversion="1"
       deform_type="perspective"
       horizontal_mirror="false"
       vertical_mirror="false"
       overflow_perspective="true" /><inkscape:path-effect
       effect="perspective-envelope"
       up_left_point="352.302,142.41217"
       up_right_point="984.65226,142.41217"
       down_left_point="357.53086,256.29393"
       down_right_point="966.43297,435.38845"
       id="path-effect6"
       is_visible="true"
       lpeversion="1"
       deform_type="perspective"
       horizontal_mirror="false"
       vertical_mirror="false"
       overflow_perspective="true" /><inkscape:path-effect
       effect="perspective-envelope"
       up_left_point="21,193"
       up_right_point="771,193"
       down_left_point="-288.69505,526.73113"
       down_right_point="1080.695,526.73113"
       id="path-effect5"
       is_visible="true"
       lpeversion="1"
       deform_type="perspective"
       horizontal_mirror="false"
       vertical_mirror="true"
       overflow_perspective="false" /><inkscape:path-effect
       effect="perspective-envelope"
       up_left_point="21,193"
       up_right_point="771,193"
       down_left_point="21,693"
       down_right_point="771,693"
       id="path-effect4"
       is_visible="true"
       lpeversion="1"
       deform_type="perspective"
       horizontal_mirror="false"
       vertical_mirror="false"
       overflow_perspective="false" /><radialGradient
       inkscape:collect="always"
       xlink:href="#linearGradient1109"
       id="radialGradient1110"
       cx="627.6931"
       cy="404.49162"
       fx="627.6931"
       fy="404.49162"
       r="577.40895"
       gradientTransform="matrix(1,0,0,0.59807489,0,162.57534)"
       gradientUnits="userSpaceOnUse" /></defs><g
     inkscape:groupmode="layer"
     id="layer3"
     inkscape:label="Layer -BACKGROUND"><path
       id="rect1106"
       style="opacity:0.98429319;fill:url(#radialGradient1110);fill-opacity:1;stroke:#522807;stroke-width:10;stroke-linecap:square;stroke-miterlimit:1000;stroke-dasharray:none;stroke-opacity:1"
       d="M 111.06882,59.157822 H 1144.556 c 33.5705,0 60.6718,27.21399 60.5456,60.784198 -0.4922,130.98258 -1.5197,438.5653 -0.8624,569.38916 0.168,33.41516 -26.1127,60.49424 -59.6832,60.49424 l -1033.48718,0 A 60.784669,60.784669 45 0 1 50.284149,689.04075 V 119.94249 A 60.784669,60.784669 135 0 1 111.06882,59.157822 Z"
       sodipodi:nodetypes="ccccc"
       inkscape:path-effect="#path-effect1108"
       inkscape:original-d="M 50.284149,59.157822 H 1205.3407 c 0,0 -2.958,701.020198 0,690.667598 H 50.284149 Z" /></g><g
     inkscape:label="Layer -MAP"
     inkscape:groupmode="layer"
     id="layer1"><g
       id="g4"
       transform="matrix(0.68054776,0,0,0.68054776,339.00309,231.0943)"
       style="stroke-width:1.4694"
       inkscape:path-effect="#path-effect5"><path
         id="rect1"
         d="m 21,193 750,0 309.695,333.73113 -1369.39002,0 z"
         style="fill:#c60b1e;fill-opacity:1;stroke-width:1.4694"
         inkscape:original-d="M 21,193 H 771 V 693 H 21 Z" /><path
         id="rect2"
         style="fill:#ffc400;stroke-width:1.4694"
         d="M -26.810443,244.52112 H 818.81044 l 144.712,155.94341 H -171.52244 Z"
         inkscape:original-d="M 21,318 H 771 V 568 H 21 Z" /></g></g><g
     inkscape:groupmode="layer"
     id="layer2"
     inkscape:label="Layer -SIGN"><g
       style="font-weight:bold;font-size:153.333px;line-height:1.2;font-family:Monospace;-inkscape-font-specification:'Monospace Bold';opacity:1;fill:#10509f;fill-opacity:1;stroke:#552d0e;stroke-width:0;stroke-linecap:square;stroke-miterlimit:1000"
       id="g1105"
       transform="translate(-1.009407,127.34202)"><path
         d="m 385.212,258.941 c -1.244,1.25 -2.552,2.123 -3.922,2.621 l -13.155,4.788 c 1.369,-0.498 2.677,-1.371 3.922,-2.621 z"
         id="path1006"
         style="fill:#10509f;fill-opacity:1" /><path
         d="m 381.29,261.562 c -0.195,0.071 -0.391,0.134 -0.588,0.19 l -13.156,4.788 c 0.198,-0.055 0.394,-0.119 0.589,-0.19 z"
         id="path1007"
         style="fill:#10509f;fill-opacity:1" /><path
         d="m 380.702,261.752 c -1.571,0.444 -3.232,0.406 -4.98,-0.108 l -13.156,4.789 c 1.748,0.514 3.409,0.552 4.98,0.107 z"
         id="path1008"
         style="fill:#10509f;fill-opacity:1" /><path
         d="m 375.722,261.644 c -6.092,-1.791 -10.837,-8.001 -14.34,-18.57 l -13.156,4.788 c 3.503,10.57 8.248,16.779 14.34,18.571 z"
         id="path1009"
         style="fill:#10509f;fill-opacity:1" /><path
         d="m 361.382,243.074 c -3.461,-10.442 -5.595,-24.756 -6.438,-43.124 l -13.156,4.788 c 0.844,18.368 2.978,32.682 6.438,43.124 z"
         id="path1010"
         style="fill:#10509f;fill-opacity:1" /><path
         d="m 354.944,199.95 c -0.851,-18.535 -0.007,-32.678 2.574,-42.479 l -13.156,4.789 c -2.581,9.8 -3.425,23.943 -2.574,42.478 z"
         id="path1011"
         style="fill:#10509f;fill-opacity:1" /><path
         d="m 357.518,157.471 c 2.116,-8.035 5.333,-12.886 9.705,-14.477 l -13.156,4.788 c -4.372,1.591 -7.589,6.442 -9.705,14.478 z"
         id="path1012"
         style="fill:#10509f;fill-opacity:1" /><path
         d="m 367.223,142.994 c 1.064,-0.388 2.196,-0.582 3.397,-0.582 l -13.155,4.788 c -1.202,0 -2.334,0.195 -3.398,0.582 z"
         id="path1013"
         style="fill:#10509f;fill-opacity:1" /><path
         d="m 370.62,142.412 c 1.763,0 3.487,0.476 5.172,1.432 l -13.156,4.789 c -1.685,-0.957 -3.409,-1.433 -5.171,-1.433 z"
         id="path1014"
         style="fill:#10509f;fill-opacity:1" /><path
         d="m 375.792,143.844 c 1.698,0.964 3.321,2.416 4.868,4.358 l -13.155,4.789 c -1.547,-1.943 -3.171,-3.394 -4.869,-4.358 z"
         id="path1015"
         style="fill:#10509f;fill-opacity:1" /><path
         d="m 380.66,148.202 1.079,26.234 -13.156,4.788 -1.078,-26.233 z"
         id="path1016"
         style="fill:#10509f;fill-opacity:1" /><path
         d="m 381.739,174.436 c -1.79,-3.831 -3.483,-6.631 -5.081,-8.409 l -13.155,4.788 c 1.597,1.779 3.29,4.578 5.08,8.409 z"
         id="path1017"
         style="fill:#10509f;fill-opacity:1" /><path
         d="m 376.658,166.027 c -1.568,-1.817 -3.14,-2.762 -4.717,-2.844 l -13.155,4.788 c 1.576,0.082 3.149,1.027 4.717,2.844 z"
         id="path1018"
         style="fill:#10509f;fill-opacity:1" /><path
         d="m 371.941,163.183 c -0.617,-0.032 -1.201,0.052 -1.75,0.252 l -13.156,4.789 c 0.55,-0.2 1.133,-0.285 1.751,-0.253 z"
         id="path1019"
         style="fill:#10509f;fill-opacity:1" /><path
         d="m 370.191,163.435 c -2.402,0.875 -4.152,3.963 -5.267,9.235 l -13.155,4.788 c 1.114,-5.272 2.864,-8.36 5.266,-9.234 z"
         id="path1020"
         style="fill:#10509f;fill-opacity:1" /><path
         d="m 364.924,172.67 c -1.337,6.361 -1.717,15.892 -1.153,28.6 l -13.155,4.788 c -0.564,-12.708 -0.184,-22.239 1.153,-28.6 z"
         id="path1021"
         style="fill:#10509f;fill-opacity:1" /><path
         d="m 363.771,201.27 c 0.56,12.603 1.786,22.259 3.689,29.04 l -13.156,4.788 c -1.903,-6.78 -3.129,-16.437 -3.688,-29.04 z"
         id="path1022"
         style="fill:#10509f;fill-opacity:1" /><path
         d="m 367.46,230.31 c 1.931,6.775 4.533,10.578 7.835,11.388 l -13.156,4.788 c -3.302,-0.809 -5.903,-4.613 -7.835,-11.388 z"
         id="path1023"
         style="fill:#10509f;fill-opacity:1" /><path
         d="m 375.295,241.698 c 0.874,0.214 1.725,0.171 2.552,-0.13 l -13.156,4.789 c -0.827,0.301 -1.678,0.343 -2.552,0.129 z"
         id="path1024"
         style="fill:#10509f;fill-opacity:1" /><path
         d="m 377.847,241.568 c 0.657,-0.239 1.3,-0.641 1.927,-1.207 l -13.155,4.788 c -0.628,0.566 -1.27,0.968 -1.928,1.208 z"
         id="path1025"
         style="fill:#10509f;fill-opacity:1" /><path
         d="m 379.774,240.361 c 1.449,-1.336 2.912,-3.629 4.391,-6.895 l -13.155,4.788 c -1.48,3.266 -2.943,5.56 -4.391,6.895 z"
         id="path1026"
         style="fill:#10509f;fill-opacity:1" /><path
         d="m 384.165,233.466 1.047,25.475 -13.155,4.788 -1.047,-25.475 z"
         id="path1027"
         style="fill:#10509f;fill-opacity:1" /><path
         d="m 429.944,275.143 -34.024,-9.826 -13.155,4.788 34.023,9.826 z"
         id="path1028"
         style="fill:#10509f;fill-opacity:1" /><path
         d="m 395.92,265.317 -4.74,-120.676 -13.156,4.789 4.741,120.675 z"
         id="path1029"
         style="fill:#10509f;fill-opacity:1" /><path
         d="m 391.18,144.641 34.411,0.183 -13.155,4.788 -34.412,-0.182 z"
         id="path1030"
         style="fill:#10509f;fill-opacity:1" /><path
         d="m 425.591,144.824 0.773,23.12 -13.156,4.788 -0.772,-23.12 z"
         id="path1031"
         style="fill:#10509f;fill-opacity:1" /><path
         d="m 426.364,167.944 -24.024,-1.345 -13.156,4.788 24.024,1.345 z"
         id="path1032"
         style="fill:#10509f;fill-opacity:1" /><path
         d="m 402.34,166.599 1.009,26.899 -13.156,4.788 -1.009,-26.899 z"
         id="path1033"
         style="fill:#10509f;fill-opacity:1" /><path
         d="m 403.349,193.498 21.586,2.547 -13.156,4.788 -21.586,-2.547 z"
         id="path1034"
         style="fill:#10509f;fill-opacity:1" /><path
         d="m 424.935,196.045 0.764,22.598 -13.156,4.789 -0.764,-22.599 z"
         id="path1035"
         style="fill:#10509f;fill-opacity:1" /><path
         d="m 425.699,218.643 -21.542,-3.606 -13.156,4.788 21.542,3.607 z"
         id="path1036"
         style="fill:#10509f;fill-opacity:1" /><path
         d="m 404.157,215.037 1.204,32.092 -13.156,4.789 -1.204,-32.093 z"
         id="path1037"
         style="fill:#10509f;fill-opacity:1" /><path
         d="m 405.361,247.129 23.839,5.739 -13.156,4.788 -23.839,-5.738 z"
         id="path1038"
         style="fill:#10509f;fill-opacity:1" /><path
         d="m 429.2,252.868 0.744,22.275 -13.156,4.788 -0.744,-22.275 z"
         id="path1039"
         style="fill:#10509f;fill-opacity:1" /><path
         d="m 468.699,220.748 c 1.402,0.789 2.641,2.313 3.713,4.576 l -13.156,4.789 c -1.072,-2.263 -2.311,-3.788 -3.713,-4.576 z"
         id="path1040"
         style="fill:#10509f;fill-opacity:1" /><path
         d="m 472.412,225.324 c 1.106,2.213 2.492,6.448 4.158,12.72 l -13.156,4.788 c -1.666,-6.271 -3.051,-10.507 -4.158,-12.719 z"
         id="path1041"
         style="fill:#10509f;fill-opacity:1" /><path
         d="m 476.57,238.044 14.627,54.789 -13.156,4.788 -14.627,-54.789 z"
         id="path1042"
         style="fill:#10509f;fill-opacity:1" /><path
         d="m 491.197,292.833 -15.938,-4.603 -13.156,4.788 15.938,4.603 z"
         id="path1043"
         style="fill:#10509f;fill-opacity:1" /><path
         d="m 475.259,288.23 -9.382,-37.34 -13.156,4.788 9.382,37.34 z"
         id="path1044"
         style="fill:#10509f;fill-opacity:1" /><path
         d="m 465.877,250.89 c -0.274,-1.047 -0.634,-2.483 -1.082,-4.306 l -13.155,4.788 c 0.447,1.823 0.808,3.259 1.081,4.306 z"
         id="path1045"
         style="fill:#10509f;fill-opacity:1" /><path
         d="m 464.795,246.584 c -2.706,-10.967 -5.673,-16.715 -8.879,-17.289 l -13.156,4.788 c 3.207,0.574 6.173,6.322 8.88,17.289 z"
         id="path1046"
         style="fill:#10509f;fill-opacity:1" /><path
         d="m 455.916,229.295 -4.162,-0.745 -13.156,4.788 4.162,0.745 z"
         id="path1047"
         style="fill:#10509f;fill-opacity:1" /><path
         d="m 451.754,228.55 1.565,53.344 -13.155,4.788 -1.566,-53.344 z"
         id="path1048"
         style="fill:#10509f;fill-opacity:1" /><path
         d="m 453.319,281.894 -12.537,-3.621 -13.155,4.788 12.537,3.621 z"
         id="path1049"
         style="fill:#10509f;fill-opacity:1" /><path
         d="m 440.782,278.273 -4.204,-133.391 -13.156,4.788 4.205,133.391 z"
         id="path1050"
         style="fill:#10509f;fill-opacity:1" /><path
         d="m 436.578,144.882 18.598,0.098 -13.156,4.789 -18.598,-0.099 z"
         id="path1051"
         style="fill:#10509f;fill-opacity:1" /><path
         d="m 455.176,144.98 c 8.876,0.047 15.529,3.416 19.756,10.174 l -13.156,4.788 c -4.227,-6.758 -10.88,-10.126 -19.756,-10.173 z"
         id="path1052"
         style="fill:#10509f;fill-opacity:1" /><path
         d="m 474.932,155.154 c 4.319,6.854 6.684,17.931 7.047,33.097 l -13.156,4.789 c -0.363,-15.167 -2.728,-26.244 -7.047,-33.098 z"
         id="path1053"
         style="fill:#10509f;fill-opacity:1" /><path
         d="m 481.979,188.251 c 0.242,10.111 -0.812,17.973 -3.142,23.563 l -13.155,4.789 c 2.329,-5.59 3.383,-13.452 3.141,-23.563 z"
         id="path1054"
         style="fill:#10509f;fill-opacity:1" /><path
         d="m 478.837,211.814 c -1.838,4.411 -4.371,7.19 -7.579,8.358 l -13.156,4.788 c 3.208,-1.168 5.742,-3.946 7.58,-8.357 z"
         id="path1055"
         style="fill:#10509f;fill-opacity:1" /><path
         d="m 471.258,220.172 c -0.81,0.295 -1.663,0.487 -2.559,0.576 l -13.156,4.789 c 0.896,-0.09 1.749,-0.282 2.559,-0.577 z"
         id="path1056"
         style="fill:#10509f;fill-opacity:1" /><path
         d="m 468.699,220.748 v 0 l -13.156,4.789 v 0 z"
         id="path1057"
         style="fill:#10509f;fill-opacity:1" /><path
         d="m 449.981,168.15 1.106,37.679 -13.155,4.788 -1.106,-37.679 z"
         id="path1058"
         style="fill:#10509f;fill-opacity:1" /><path
         d="m 451.087,205.829 6.196,0.817 -13.156,4.789 -6.195,-0.818 z"
         id="path1059"
         style="fill:#10509f;fill-opacity:1" /><path
         d="m 457.283,206.646 c 1.667,0.22 3.117,0.107 4.347,-0.34 l -13.156,4.788 c -1.229,0.448 -2.679,0.561 -4.347,0.341 z"
         id="path1060"
         style="fill:#10509f;fill-opacity:1" /><path
         d="m 461.63,206.306 c 1.477,-0.538 2.636,-1.558 3.471,-3.065 l -13.155,4.789 c -0.836,1.506 -1.995,2.527 -3.472,3.064 z"
         id="path1061"
         style="fill:#10509f;fill-opacity:1" /><path
         d="m 465.101,203.241 c 1.573,-2.841 2.273,-7.74 2.089,-14.69 l -13.156,4.788 c 0.184,6.951 -0.515,11.849 -2.088,14.691 z"
         id="path1062"
         style="fill:#10509f;fill-opacity:1" /><path
         d="m 467.19,188.551 c -0.185,-6.967 -1.135,-12.019 -2.844,-15.131 l -13.156,4.788 c 1.709,3.112 2.659,8.164 2.844,15.131 z"
         id="path1063"
         style="fill:#10509f;fill-opacity:1" /><path
         d="m 464.346,173.42 c -1.7,-3.095 -4.426,-4.737 -8.142,-4.936 l -13.156,4.788 c 3.717,0.2 6.442,1.841 8.142,4.936 z"
         id="path1064"
         style="fill:#10509f;fill-opacity:1" /><path
         d="m 456.204,168.484 -6.223,-0.334 -13.155,4.788 6.222,0.334 z"
         id="path1065"
         style="fill:#10509f;fill-opacity:1" /><path
         d="m 524.021,277.134 13.657,-131.717 -13.155,4.789 -13.658,131.716 z"
         id="path1066"
         style="fill:#10509f;fill-opacity:1" /><path
         d="m 537.678,145.417 19.084,0.101 -13.155,4.789 -19.084,-0.101 z"
         id="path1067"
         style="fill:#10509f;fill-opacity:1" /><path
         d="m 556.762,145.518 -20.284,160.392 -13.155,4.788 20.284,-160.391 z"
         id="path1068"
         style="fill:#10509f;fill-opacity:1" /><path
         d="m 536.478,305.91 -23.501,-6.787 -13.156,4.788 23.502,6.787 z"
         id="path1069"
         style="fill:#10509f;fill-opacity:1" /><path
         d="m 512.977,299.123 -22.176,-153.954 -13.156,4.788 22.176,153.954 z"
         id="path1070"
         style="fill:#10509f;fill-opacity:1" /><path
         d="m 490.801,145.169 16.016,0.085 -13.156,4.788 -16.016,-0.085 z"
         id="path1071"
         style="fill:#10509f;fill-opacity:1" /><path
         d="m 506.817,145.254 17.204,131.88 -13.156,4.788 -17.204,-131.88 z"
         id="path1072"
         style="fill:#10509f;fill-opacity:1" /><path
         d="m 644.231,337.028 -70.707,-20.419 -13.156,4.788 70.707,20.42 z"
         id="path1073"
         style="fill:#10509f;fill-opacity:1" /><path
         d="m 573.524,316.609 -1.427,-171.009 -13.156,4.788 1.427,171.009 z"
         id="path1074"
         style="fill:#10509f;fill-opacity:1" /><path
         d="m 572.097,145.6 72.922,0.386 -13.155,4.788 -72.923,-0.386 z"
         id="path1075"
         style="fill:#10509f;fill-opacity:1" /><path
         d="m 645.019,145.986 -0.141,34.192 -13.156,4.788 0.142,-34.192 z"
         id="path1076"
         style="fill:#10509f;fill-opacity:1" /><path
         d="m 644.878,180.178 -51.269,-2.87 -13.156,4.788 51.269,2.87 z"
         id="path1077"
         style="fill:#10509f;fill-opacity:1" /><path
         d="m 593.609,177.308 0.181,38.658 -13.156,4.788 -0.181,-38.658 z"
         id="path1078"
         style="fill:#10509f;fill-opacity:1" /><path
         d="m 593.79,215.966 45.752,5.398 -13.156,4.788 -45.752,-5.398 z"
         id="path1079"
         style="fill:#10509f;fill-opacity:1" /><path
         d="m 639.542,221.364 -0.107,33.061 -13.156,4.789 0.107,-33.062 z"
         id="path1080"
         style="fill:#10509f;fill-opacity:1" /><path
         d="m 639.435,254.425 -45.5,-7.617 -13.156,4.788 45.5,7.618 z"
         id="path1081"
         style="fill:#10509f;fill-opacity:1" /><path
         d="m 593.935,246.808 0.214,45.766 -13.155,4.789 -0.215,-45.767 z"
         id="path1082"
         style="fill:#10509f;fill-opacity:1" /><path
         d="m 594.149,292.574 50.215,12.088 -13.155,4.788 -50.215,-12.087 z"
         id="path1083"
         style="fill:#10509f;fill-opacity:1" /><path
         d="m 644.364,304.662 -0.133,32.366 -13.156,4.789 0.134,-32.367 z"
         id="path1084"
         style="fill:#10509f;fill-opacity:1" /><path
         d="m 669.81,146.117 110.518,0.586 -13.156,4.788 -110.517,-0.585 z"
         id="path1085"
         style="fill:#10509f;fill-opacity:1" /><path
         d="m 780.328,146.703 -1.05,38.49 -13.156,4.788 1.05,-38.49 z"
         id="path1086"
         style="fill:#10509f;fill-opacity:1" /><path
         d="m 779.278,185.193 -80.426,132.585 -13.156,4.789 80.426,-132.586 z"
         id="path1087"
         style="fill:#10509f;fill-opacity:1" /><path
         d="m 698.852,317.778 78.017,18.781 -13.155,4.788 -78.018,-18.78 z"
         id="path1088"
         style="fill:#10509f;fill-opacity:1" /><path
         d="m 776.869,336.559 -1.061,38.469 -13.155,4.788 1.061,-38.469 z"
         id="path1089"
         style="fill:#10509f;fill-opacity:1" /><path
         d="m 775.808,375.028 -109.651,-31.667 -13.156,4.788 109.652,31.667 z"
         id="path1090"
         style="fill:#10509f;fill-opacity:1" /><path
         d="m 666.157,343.361 0.251,-31.322 -13.156,4.788 -0.251,31.322 z"
         id="path1091"
         style="fill:#10509f;fill-opacity:1" /><path
         d="m 666.408,312.039 69.851,-126.745 -13.156,4.789 -69.851,126.744 z"
         id="path1092"
         style="fill:#10509f;fill-opacity:1" /><path
         d="m 736.259,185.294 -66.745,-3.737 -13.156,4.789 66.745,3.737 z"
         id="path1093"
         style="fill:#10509f;fill-opacity:1" /><path
         d="m 669.514,181.557 0.296,-35.44 -13.155,4.789 -0.297,35.44 z"
         id="path1094"
         style="fill:#10509f;fill-opacity:1" /><path
         d="m 878.134,194.997 -25.655,101.593 -13.156,4.788 25.655,-101.593 z"
         id="path1095"
         style="fill:#10509f;fill-opacity:1" /><path
         d="m 852.479,296.59 43.153,7.542 -13.156,4.789 -43.153,-7.543 z"
         id="path1096"
         style="fill:#10509f;fill-opacity:1" /><path
         d="m 895.632,304.132 -17.498,-109.135 -13.156,4.788 17.498,109.136 z"
         id="path1097"
         style="fill:#10509f;fill-opacity:1" /><path
         d="m 852.353,147.084 57.794,0.306 -13.156,4.789 -57.794,-0.307 z"
         id="path1098"
         style="fill:#10509f;fill-opacity:1" /><path
         d="m 910.147,147.39 56.61,282.783 -13.155,4.789 -56.611,-282.783 z"
         id="path1099"
         style="fill:#10509f;fill-opacity:1" /><path
         d="m 966.757,430.173 -51.928,-14.996 -13.155,4.788 51.928,14.997 z"
         id="path1100"
         style="fill:#10509f;fill-opacity:1" /><path
         d="m 914.829,415.177 -11.964,-67.231 -13.155,4.788 11.964,67.231 z"
         id="path1101"
         style="fill:#10509f;fill-opacity:1" /><path
         d="m 902.865,347.946 -60.548,-13.346 -13.156,4.789 60.549,13.345 z"
         id="path1102"
         style="fill:#10509f;fill-opacity:1" /><path
         d="m 842.317,334.6 -14.856,55.345 -13.156,4.788 14.856,-55.344 z"
         id="path1103"
         style="fill:#10509f;fill-opacity:1" /><path
         d="m 827.461,389.945 -38.706,-11.178 -13.156,4.788 38.706,11.178 z"
         id="path1104"
         style="fill:#10509f;fill-opacity:1" /><path
         d="m 788.755,378.767 63.598,-231.683 -13.156,4.788 -63.598,231.683 z"
         id="path1105"
         style="fill:#10509f;fill-opacity:1" /></g><path
       d="m 385.21242,258.94115 c -1.42181,1.42777 -2.92571,2.36286 -4.51027,2.8109 -1.57162,0.44438 -3.2324,0.40644 -4.98061,-0.10775 -6.09167,-1.79173 -10.83691,-8.00104 -14.33971,-18.57058 -3.4604,-10.4416 -5.59463,-24.75574 -6.43801,-43.12419 -0.85103,-18.53501 -0.007,-32.67767 2.57397,-42.47816 2.6307,-9.99074 6.96436,-15.0592 13.10261,-15.0592 1.76229,0 3.4867,0.4755 5.17141,1.43207 1.69792,0.96407 3.32156,2.41553 4.86841,4.35815 l 1.07838,26.23324 c -1.78953,-3.83065 -3.48278,-6.63017 -5.08037,-8.40847 -1.56783,-1.81739 -3.14054,-2.76248 -4.71677,-2.84401 -3.31907,-0.17166 -5.64809,3.00867 -7.01703,9.48685 -1.337,6.36093 -1.71721,15.89171 -1.15294,28.60018 0.55958,12.60303 1.78556,22.25911 3.68819,29.03945 1.93177,6.7755 4.533,10.57861 7.83507,11.38821 1.5679,0.38442 3.06136,-0.058 4.47957,-1.33691 1.44844,-1.33556 2.9116,-3.62906 4.39088,-6.89477 z m 44.73165,16.20193 -34.02386,-9.826 -4.74057,-120.67573 34.41182,0.18228 0.7722,23.12017 -24.02396,-1.34505 1.00914,26.89917 21.58568,2.54668 0.76402,22.59887 -21.54163,-3.60632 1.20396,32.09208 23.83922,5.73858 z m 38.75483,-54.39462 c 1.402,0.78853 2.64068,2.31304 3.71304,4.576 1.10632,2.21227 2.49163,6.44791 4.1579,12.71951 l 14.62684,54.78869 -15.93756,-4.60272 -9.38215,-37.34001 c -0.27366,-1.04728 -0.63426,-2.48287 -1.08157,-4.3059 -2.70661,-10.96733 -5.67293,-16.71544 -8.87957,-17.2892 l -4.16186,-0.74468 1.56539,53.34365 -12.53699,-3.62065 -4.20463,-133.39132 18.59813,0.0985 c 8.87621,0.047 15.52898,3.4154 19.75592,10.17363 4.31938,6.85417 6.68427,17.93083 7.04726,33.09751 0.242,10.11097 -0.8123,17.97299 -3.1416,23.5629 -2.30217,5.5248 -5.69548,8.48883 -10.13855,8.93408 z m -18.7174,-52.59845 1.10571,37.67904 6.1959,0.81733 c 3.6695,0.48406 6.28662,-0.64389 7.81837,-3.40491 1.57301,-2.84181 2.27222,-7.73998 2.08815,-14.69046 -0.18452,-6.96716 -1.13499,-12.01943 -2.84395,-15.13126 -1.69952,-3.09464 -4.42536,-4.73641 -8.14175,-4.93584 z m 74.0394,108.98392 13.6574,-131.71657 19.08394,0.10109 -20.28403,160.3914 -23.50133,-6.78712 -22.17571,-153.95368 16.01602,0.0848 z m 120.20973,59.89452 -70.7067,-20.4199 -1.42705,-171.00887 72.92245,0.38627 -0.14116,34.19208 -51.26947,-2.87048 0.18134,38.65861 45.75162,5.39777 -0.10689,33.06139 -45.50005,-7.61722 0.21468,45.76634 50.21485,12.08773 z m 25.57983,-190.91118 110.51727,0.58542 -1.0499,38.49006 -80.42624,132.58562 78.01776,18.78045 -1.06103,38.4689 -109.65149,-31.66705 0.25104,-31.32212 69.85064,-126.74431 -66.74466,-3.73691 z m 208.32336,48.87983 -25.65523,101.59304 43.15319,7.54225 z m -25.78071,-47.91289 57.79402,0.30613 56.61016,282.78292 -51.92796,-14.99665 -11.96404,-67.23101 -60.5484,-13.34526 -14.85616,55.34446 -38.70594,-11.17817 z"
       id="text5"
       style="font-weight:bold;font-size:153.333px;line-height:1.2;font-family:Monospace;-inkscape-font-specification:'Monospace Bold';opacity:0.623037;fill:#c82e39;fill-opacity:1;stroke:#552d0e;stroke-width:0;stroke-linecap:square;stroke-miterlimit:1000"
       aria-label="CERVEZA"
       inkscape:path-effect="#path-effect6"
       inkscape:original-d="m 421.85603,252.99485 q -5.24088,2.69531 -11.00585,4.04297 -5.76498,1.34765 -12.12891,1.34765 -22.61068,0 -34.51497,-14.89908 -11.9043,-14.89909 -11.9043,-43.05013 0,-28.22591 11.9043,-43.125 11.90429,-14.89909 34.51497,-14.89909 6.36393,0 12.20378,1.34766 5.83984,1.34765 10.93098,4.04297 v 24.55729 q -5.6901,-5.24089 -11.08072,-7.63672 -5.31576,-2.47071 -11.00586,-2.47071 -12.12891,0 -18.3431,9.65821 -6.13932,9.58333 -6.13932,28.52539 0,18.86718 6.13932,28.52539 6.21419,9.58333 18.3431,9.58333 5.6901,0 11.00586,-2.39583 5.39062,-2.47071 11.08072,-7.71159 z m 93.58724,3.2194 h -69.6289 v -111.7806 h 69.6289 v 19.46615 h -47.54231 v 24.10807 h 43.05013 v 19.46615 h -43.05013 v 29.27408 h 47.54231 z m 70.52735,-52.7832 q 3.29427,0.67383 5.6901,3.14453 2.47071,2.39583 5.98959,9.43359 l 20.21484,40.20508 h -24.25781 l -13.47656,-28.22591 q -0.59896,-1.19792 -1.57227,-3.29427 -5.91471,-12.653 -13.92578,-12.653 h -7.03776 v 44.17318 h -22.08659 v -111.7806 h 31.89453 q 21.5625,0 30.92122,7.63672 9.4336,7.63672 9.4336,24.85677 0,11.52995 -5.61524,18.3431 -5.61523,6.81315 -16.17187,8.16081 z m -28.37565,-40.42969 v 30.47201 h 10.4069 q 9.05924,0 12.95247,-3.51888 3.9681,-3.59375 3.9681,-11.75456 0,-8.16081 -3.89323,-11.67969 -3.89323,-3.51888 -13.02734,-3.51888 z m 106.38997,74.79492 19.69076,-93.36263 h 22.23632 l -26.57877,111.7806 h -30.62174 l -26.57878,-111.7806 h 22.23633 z m 128.40169,18.41797 h -69.6289 v -111.7806 h 69.6289 v 19.46615 h -47.54231 v 24.10807 h 43.05013 v 19.46615 h -43.05013 v 29.27408 h 47.54231 z m 20.36459,-111.7806 h 75.61849 v 18.26823 l -51.8099,74.04622 h 52.85807 v 19.46615 h -78.3138 v -18.26823 l 50.23763,-74.04622 h -48.59049 z m 128.17708,20.21485 -10.4069,45.74544 h 20.88867 z m -13.47656,-20.21485 h 27.02799 l 30.17253,111.7806 h -22.08659 l -6.88802,-27.62695 h -29.57357 l -6.73828,27.62695 h -22.08659 z"
       transform="translate(-14.164998,132.13055)" /></g></svg>
