<?xml version="1.0" encoding="UTF-8" standalone="no"?>
<!-- Created with Inkscape (http://www.inkscape.org/) -->

<svg
   width="800"
   height="450"
   viewBox="0 0 800 450"
   version="1.1"
   id="svg1"
   inkscape:version="1.4.3 (0d15f75, 2025-12-25)"
   sodipodi:docname="beer-sign-flag-de22222.svg"
   xml:space="preserve"
   xmlns:inkscape="http://www.inkscape.org/namespaces/inkscape"
   xmlns:sodipodi="http://sodipodi.sourceforge.net/DTD/sodipodi-0.dtd"
   xmlns="http://www.w3.org/2000/svg"
   xmlns:svg="http://www.w3.org/2000/svg"><sodipodi:namedview
     id="namedview1"
     pagecolor="#ffffff"
     bordercolor="#000000"
     borderopacity="0.25"
     inkscape:showpageshadow="2"
     inkscape:pageopacity="0.0"
     inkscape:pagecheckerboard="0"
     inkscape:deskcolor="#d1d1d1"
     inkscape:document-units="px"
     inkscape:zoom="0.87650035"
     inkscape:cx="519.10989"
     inkscape:cy="349.68611"
     inkscape:window-width="1920"
     inkscape:window-height="1004"
     inkscape:window-x="-8"
     inkscape:window-y="-8"
     inkscape:window-maximized="1"
     inkscape:current-layer="layer1" /><defs
     id="defs1"><linearGradient
       id="swatch209"><stop
         style="stop-color:#1f1f35;stop-opacity:1;"
         offset="0"
         id="stop210" /></linearGradient><inkscape:path-effect
       effect="fillet_chamfer"
       id="path-effect198"
       is_visible="true"
       lpeversion="1"
       nodesatellites_param="F,0,0,1,0,25.250925,0,1 @ F,0,1,1,0,25.250925,0,1 @ F,0,1,1,0,25.250925,0,1 @ F,0,1,1,0,25.250925,0,1"
       radius="0"
       unit="px"
       method="auto"
       mode="F"
       chamfer_steps="1"
       flexible="false"
       use_knot_distance="true"
       apply_no_radius="true"
       apply_with_radius="true"
       only_selected="false"
       hide_knots="false" /><inkscape:path-effect
       effect="perspective-envelope"
       up_left_point="212.38116,130.5305"
       up_right_point="550.80312,90.26826"
       down_left_point="219.70157,228.50346"
       down_right_point="566.4897,191.37854"
       id="path-effect1"
       is_visible="true"
       lpeversion="1"
       deform_type="perspective"
       horizontal_mirror="false"
       vertical_mirror="false"
       overflow_perspective="true" /><clipPath
       clipPathUnits="userSpaceOnUse"
       id="clipPath171"><path
         style="opacity:0.696154;fill:none;fill-opacity:1;stroke:#43f422;stroke-width:2.99999;stroke-linecap:square;stroke-miterlimit:1000;stroke-dasharray:none;stroke-opacity:1"
         d="m 207.14067,192.17812 293.50494,-35.95326 63.47671,-5.4282 11.52421,106.30919 -360.18555,38.04492 z"
         id="path172"
         sodipodi:nodetypes="cccccc" /></clipPath></defs><g
     inkscape:label="Layer 1"
     inkscape:groupmode="layer"
     id="layer1"><path
       id="rect210"
       style="opacity:1;fill:#000100;stroke:#803f0d;stroke-width:0;stroke-linecap:square;stroke-miterlimit:1000;stroke-dasharray:none;fill-opacity:1"
       d="M 0,0 H 800 V 450 H 0 Z" /><path
       id="rect198"
       style="opacity:1;mix-blend-mode:normal;fill:#121212;fill-opacity:1;stroke:#552d0e;stroke-width:7.76889;stroke-linecap:square;stroke-miterlimit:1000;stroke-dasharray:none;stroke-opacity:1"
       d="m 149.82912,76.732361 h 468.23119 a 25.250925,25.250925 45 0 1 25.25092,25.250929 v 262.51276 a 25.250925,25.250925 135 0 1 -25.25092,25.25093 H 149.82912 A 25.250925,25.250925 45 0 1 124.5782,364.49605 V 101.98329 a 25.250925,25.250925 135 0 1 25.25092,-25.250929 z"
       inkscape:path-effect="#path-effect198"
       inkscape:original-d="M 124.5782,76.732361 H 643.31123 V 389.74698 H 124.5782 Z"
       transform="matrix(1,0,0,0.8118542,18.953915,35.433607)" /><path
       id="path1-0"
       clip-path="none"
       style="display:inline;fill:#ffce00;fill-opacity:1;stroke-width:1"
       inkscape:label="path1-flag"
       d="m 531.44805,155.57783 c -2.93174,-0.0985 -6.08106,0.0368 -9.44726,0.4043 l -55,6.14062 -199.27539,23.71094 -40.0918,5.07227 -8.89648,3.42187 c 2.88837,32.59985 4.90264,64.19009 7.87109,96.7832 l 71.63867,-7.19921 175.23633,-19.10938 98.39453,-10.33398 9.87695,-2.74805 -31.98046,-42.50977 -8.74219,-2.23828 c 6.39471,-1.99197 16.27547,-7.76318 19.23828,-15.07812 1.53192,-23.52066 -8.30009,-35.62721 -28.82227,-36.31641 z"
       sodipodi:nodetypes="scccccccccccccs" /><path
       id="path2"
       clip-path="none"
       style="display:inline;fill:#dd0000;fill-opacity:1;stroke-width:1"
       inkscape:label="path2-flag"
       d="m 531.44806,155.57881 c -2.93174,-0.0985 -6.08107,0.0349 -9.44727,0.40234 l -55,6.14063 -199.27539,23.71289 -40.0918,5.07226 -9.89648,3.42188 4.83203,64.53711 340.04297,-32.5918 -12.83789,-17.06445 -5.24219,-2.23633 c 6.39471,-1.99197 12.77352,-7.76514 15.73633,-15.08009 1.53192,-23.52065 -8.29813,-35.62524 -28.82031,-36.31444 z" /><path
       id="path3"
       clip-path="none"
       style="display:inline;stroke-width:1"
       inkscape:label="path3-flag"
       d="M 529.94336,155.54883 485.16602,160.0957 467,162.12305 l -199.27539,23.71093 -40.0918,5.07227 -9.89648,3.42187 2.31055,30.86133 340.29296,-34.54687 c 1.13247,-23.25642 -9.22694,-34.95495 -30.39648,-35.09375 z" /><path
       id="path1"
       d="m 526.76446,155.4411 c -3.03523,0.0756 -6.29434,0.32198 -9.77734,0.73633 l -30.75196,3.65821 -9.39648,3.41992 13.63672,100.24414 21.80859,-2.33399 9.39649,-3.41992 -5.29688,-37.53515 c 4.24508,0.68874 8.40577,3.97535 12.49024,9.87304 0.827,1.201 1.49118,2.14218 1.99218,2.82618 l 17.2168,24.42187 24.2832,-2.59766 9.39649,-3.41992 -25.78125,-34.63476 c -2.959,-3.994 -5.35627,-6.61791 -7.19727,-7.87891 -1.63426,-1.19137 -3.44504,-1.90927 -5.43164,-2.15039 l 3.40039,-1.23828 c 4.788,-1.742 8.40185,-4.40156 10.83985,-7.97656 3.071,-4.505 4.07834,-10.20399 3.02734,-17.08399 -1.563,-10.234 -5.76475,-17.22711 -12.59375,-21.00781 -5.06625,-2.8296 -12.15602,-4.1292 -21.26172,-3.90235 z m -9.39648,3.41993 c 9.10575,-0.22688 16.19472,1.07312 21.26172,3.90234 6.828,3.781 11.03075,10.77381 12.59375,21.00781 1.052,6.88 0.0447,12.57994 -3.02735,17.08594 -1.80005,2.6388 -4.24085,4.77884 -7.32226,6.41992 h -0.002 l -0.002,0.002 -7.51367,2.73437 c 2.223,0.161 4.23229,0.89703 6.02929,2.20703 1.841,1.261 4.24022,3.88491 7.19922,7.87891 l 24.11719,32.39844 -13.22266,1.41406 -17.21484,-24.42188 c -0.501,-0.684 -1.16519,-1.62517 -1.99219,-2.82617 -5.003,-7.224 -10.12314,-10.53036 -15.36914,-9.94336 l -6.90429,0.77149 -9.39454,3.41992 5.34375,37.875 -12.07617,1.29297 -13.32812,-97.97852 21.04687,-2.50391 c 3.483,-0.41435 6.7421,-0.6607 9.77735,-0.73632 z m -50.36719,3.26172 -66.07617,7.85937 -9.39649,3.42188 11.50782,99.45703 67.7207,-7.25 9.39844,-3.41992 -2.33594,-17.76368 -46.15625,5.03907 -2.89453,-23.99805 31.82422,-3.57422 9.39648,-3.41992 -2.26953,-17.39844 -41.32422,4.72656 -2.29102,-18.98437 35.74805,-4.17969 9.39649,-3.41992 z m -9.39649,3.41992 1.94727,14.80859 -35.72461,4.17578 -9.39648,3.42188 2.5664,21.27344 41.32617,-4.72657 1.96485,15.06836 -31.80078,3.57227 -9.39844,3.41992 3.17773,26.33008 46.15625,-5.03906 2.02149,15.38281 -58.01172,6.21094 -11.24414,-97.18555 z m 66.46485,6.65429 c -1.28769,0.0185 -2.67185,0.11386 -4.15235,0.28711 l -10.10156,1.18164 -9.39648,3.41993 3.82812,27.12695 10.16992,-1.15625 c 2.86,-0.326 5.29002,-0.85303 7.29102,-1.58203 l 0.008,-0.004 9.39063,-3.41601 c 2.136,-0.777 3.78054,-1.78353 4.93554,-3.01953 2.279,-2.443 3.0588,-6.09899 2.3418,-10.95899 -0.715,-4.849 -2.49303,-8.16608 -5.33203,-9.95508 -2.1255,-1.33875 -5.11936,-1.97923 -8.98242,-1.92383 z m -147.04688,0.62891 -61.86328,7.35938 -9.39844,3.41992 1.60938,16.86133 20.65234,-2.41602 6.21875,62.05078 -11.34179,1.23828 -9.39844,3.41992 1.66992,17.50782 63.37305,-6.78516 9.39844,-3.41992 -1.93946,-17.61133 -21.1875,2.3125 -6.54297,-62.25 11.21875,-1.31055 9.39844,-3.41992 z m 137.65039,2.79102 c 3.86264,-0.0554 6.85693,0.58628 8.98243,1.92578 2.839,1.788 4.61703,5.10412 5.33203,9.95312 0.717,4.86 -0.0628,8.51599 -2.3418,10.95899 -0.30806,0.32966 -0.6514,0.64239 -1.0293,0.93945 -0.58076,0.0898 -1.18147,0.17137 -1.80273,0.24219 l -10.16992,1.15625 -3.50586,-24.84375 0.38281,-0.0449 c 1.48025,-0.17325 2.8648,-0.26866 4.15234,-0.28711 z m -147.04687,0.6289 1.61328,14.66407 -11.20703,1.31054 -9.39649,3.41992 6.78321,64.54297 21.1875,-2.3125 1.67578,15.22657 -53.71484,5.75 -1.44141,-15.13868 11.35351,-1.23828 9.39649,-3.41992 -6.45703,-64.41992 -20.65235,2.41601 -1.39062,-14.58593 z m -99.30274,9.76758 c -2.50498,0.0403 -5.17285,0.22916 -8.00585,0.56641 l -32.66407,3.88476 -9.39648,3.42188 7.32031,97.97265 33.44336,-3.58007 c 7.445,-0.797 13.71092,-2.12266 18.79492,-3.97266 l 9.39649,-3.41992 c 4.243,-1.545 7.6619,-3.45542 10.2539,-5.73242 5.694,-5.002 8.09971,-12.32827 7.22071,-21.94727 -0.713,-7.806 -3.28971,-13.63691 -7.72071,-17.50391 -4.1429,-3.65952 -9.89822,-5.51452 -17.26367,-5.57031 l 3.78516,-1.37695 c 4.062,-1.479 7.21875,-3.64505 9.46875,-6.49805 3.102,-3.933 4.36683,-9.03959 3.79883,-15.30859 -0.738,-8.157 -4.18232,-13.91316 -10.32032,-17.28516 -4.55775,-2.55675 -10.59637,-3.77142 -18.11133,-3.65039 z m -9.39648,3.41992 c 7.51495,-0.12089 13.55358,1.09364 18.11133,3.65039 6.138,3.372 9.58231,9.12916 10.32031,17.28516 0.568,6.269 -0.69683,11.37659 -3.79883,15.30859 -1.39545,1.76943 -3.1397,3.27465 -5.23242,4.51563 l -9.25195,3.36914 c 7.958,-0.151 14.12409,1.69955 18.49609,5.56055 4.43,3.867 7.00575,9.6979 7.71875,17.5039 0.879,9.619 -1.5267,16.94427 -7.2207,21.94727 -1.63472,1.43661 -3.59938,2.72811 -5.89258,3.87304 -4.02172,1.05573 -8.60847,1.85871 -13.75977,2.41016 l -33.4414,3.58008 -7.15235,-95.68945 23.09571,-2.74805 c 2.833,-0.337 5.50283,-0.52611 8.00781,-0.56641 z m 6.1543,12.06055 c -1.08836,0.013 -2.26038,0.0932 -3.51563,0.24023 l -13.39062,1.56836 -9.39649,3.41993 1.78907,22.54882 13.46289,-1.54101 c 2.594,-0.297 4.78989,-0.77178 6.58789,-1.42578 l 9.39062,-3.41993 0.008,-0.002 c 1.764,-0.642 3.14363,-1.45636 4.14063,-2.44336 2.057,-1.996 2.91526,-4.99709 2.57226,-8.99609 -0.342,-3.992 -1.71242,-6.74191 -4.10742,-8.25391 -1.7625,-1.16925 -4.27593,-1.73417 -7.54101,-1.69531 z m -9.39649,3.41992 c 3.26508,-0.0389 5.77852,0.52606 7.54102,1.69531 2.395,1.512 3.76347,4.26191 4.10547,8.25391 0.343,3.999 -0.51232,7.00009 -2.57032,8.99609 -0.11219,0.11107 -0.22964,0.22144 -0.35156,0.32813 -0.32102,0.0441 -0.64822,0.0849 -0.98242,0.12305 l -13.46289,1.53906 -1.60742,-20.24805 3.8125,-0.44726 c 1.25525,-0.147 2.42726,-0.22729 3.51562,-0.24024 z m 13.40039,34.54688 c -1.35773,0.006 -2.82022,0.0972 -4.38672,0.27343 l -13.51367,1.52149 -9.39648,3.41992 2.32031,29.27148 13.60742,-1.48046 c 3.402,-0.371 6.24811,-0.97364 8.53711,-1.80664 l 9.39844,-3.41993 c 2.112,-0.769 3.74816,-1.73548 4.91016,-2.89648 2.466,-2.426 3.47067,-6.28159 3.01367,-11.55859 -0.463,-5.353 -2.15985,-9.04032 -5.08985,-11.07032 -2.19375,-1.52025 -5.32718,-2.27097 -9.40039,-2.2539 z m -9.39843,3.42187 c 4.07343,-0.0171 7.20739,0.73245 9.40039,2.25195 2.93,2.03 4.62684,5.71732 5.08984,11.07032 0.457,5.277 -0.54572,9.13259 -3.01172,11.55859 -0.30024,0.30024 -0.63243,0.58737 -0.99609,0.86133 -0.96321,0.163 -1.98243,0.30312 -3.05664,0.41992 l -13.60742,1.48242 -2.13477,-26.92968 3.92969,-0.44336 c 1.5665,-0.17625 3.0289,-0.26579 4.38672,-0.27149 z"
       style="font-weight:bold;font-size:160px;line-height:1.2;font-family:Monospace;-inkscape-font-specification:'Monospace Bold';fill:#329e3d;fill-opacity:1;stroke:#000000;stroke-width:0;stroke-linecap:square;stroke-miterlimit:1000" /><path
       d="m 235.91172,181.31999 2.32048,29.27321 13.6083,-1.48289 c 6.54224,-0.7129 11.02778,-2.28066 13.44825,-4.70178 2.4661,-2.42535 3.47016,-6.28102 3.01365,-11.55802 -0.46305,-5.3526 -2.16083,-9.04033 -5.0904,-11.07043 -2.9245,-2.0266 -7.52131,-2.68567 -13.78716,-1.98062 z m -3.00843,-37.95173 1.78732,22.5472 13.46306,-1.54008 c 5.14027,-0.58801 8.71909,-1.87838 10.73126,-3.87014 2.05756,-1.99647 2.91441,-4.99701 2.57145,-8.99646 -0.34231,-3.99203 -1.71186,-6.7421 -4.10666,-8.25421 -2.34946,-1.5586 -6.03571,-2.04278 -11.05661,-1.45468 z m -20.52213,-12.83776 32.66293,-3.88593 c 11.33228,-1.3482 20.04086,-0.32342 26.11747,3.08547 6.13861,3.37152 9.5835,9.12829 10.32166,17.28517 0.56729,6.26881 -0.69827,11.37511 -3.79985,15.30761 -3.10414,3.93573 -7.93494,6.56482 -14.484,7.88352 7.95744,-0.1502 14.12371,1.70077 18.49509,5.56168 4.43077,3.8671 7.00669,9.6976 7.71985,17.5039 0.87874,9.61893 -1.52627,16.94471 -7.22023,21.9474 -5.69701,5.00536 -15.39243,8.24191 -29.05035,9.70404 l -33.44216,3.5801 z m 89.11308,6.58029 -1.60789,-16.86018 61.86369,-7.35899 1.86558,16.95599 -20.85596,2.43846 6.7833,64.54257 21.18778,-2.31294 1.93777,17.6121 -63.37322,6.78433 -1.66963,-17.50765 20.97719,-2.28994 -6.45689,-64.41833 z m 163.3875,65.14525 -67.722,7.24988 -11.5075,-99.45759 66.07687,-7.86017 2.24686,17.09459 -45.42079,5.31056 2.56697,21.2743 41.32612,-4.72675 2.26899,17.39857 -41.5037,4.66114 3.17709,26.33074 46.15633,-5.03859 z m 62.59953,-55.5983 c 2.223,0.1614 4.23268,0.89682 6.02931,2.2072 1.84107,1.2611 4.23924,3.88563 7.19862,7.88011 l 25.7805,34.63349 -24.28295,2.59958 -17.21578,-24.4223 c -0.50114,-0.68371 -1.1652,-1.62605 -1.99188,-2.82659 -5.00303,-7.22438 -10.12177,-10.53095 -15.36806,-9.94432 l -6.90356,0.77195 5.68024,40.25367 -21.80896,2.33473 -13.63613,-100.245018 30.7519,-3.65809 c 13.93248,-1.657338 24.28452,-0.606635 31.03998,3.166113 6.8282,3.780345 11.03035,10.774325 12.59387,21.008575 1.05108,6.88 0.0431,12.57921 -3.02887,17.08457 -3.0752,4.51008 -8.02419,7.56387 -14.83823,9.15633 z m -32.93803,-32.92609 3.82784,27.1264 10.17001,-1.15732 c 5.91308,-0.67289 9.99163,-2.20697 12.22887,-4.60085 2.27874,-2.44325 3.05886,-6.09875 2.34225,-10.95893 -0.71498,-4.84915 -2.49305,-8.16493 -5.33209,-9.95345 -2.8346,-1.78573 -7.21409,-2.33074 -13.13568,-1.63783 z"
       id="text1"
       style="font-weight:bold;font-size:160px;line-height:1.2;font-family:Monospace;-inkscape-font-specification:'Monospace Bold';opacity:0.278846;fill:#2c37c3;fill-opacity:1;stroke:#000000;stroke-width:0;stroke-linecap:square;stroke-miterlimit:1000"
       aria-label="BIER"
       transform="translate(5.712751,63.290185)"
       inkscape:original-d="m 234.64679,196.97305 v 34.53125 h 15.3125 q 11.01562,0 15.39062,-3.75 4.45313,-3.75 4.45313,-13.04687 0,-9.45313 -4.60938,-13.59375 -4.60937,-4.14063 -15.23437,-4.14063 z m 0,-45.46875 v 27.10938 h 15.3125 q 8.75,0 12.42187,-3.125 3.75,-3.125 3.75,-10.3125 0,-7.1875 -3.82812,-10.39063 -3.75,-3.28125 -12.34375,-3.28125 z m -22.26563,-18.35937 h 37.57813 q 19.45312,0 29.21875,7.42187 9.84375,7.34375 9.84375,22.03125 0,11.25 -5.78125,17.57813 -5.78125,6.32812 -16.95313,7.34375 13.35938,1.32812 20.07813,8.98437 6.79687,7.65625 6.79687,21.40625 0,16.875 -10.15625,24.45313 -10.15625,7.57812 -33.04687,7.57812 h -37.57813 z m 100,20.46875 v -20.3125 h 69.45313 v 20.3125 h -23.20313 v 76.01562 h 23.20313 v 20.3125 h -69.45313 v -20.3125 h 23.20313 V 153.61368 Z M 481.05304,249.9418 H 408.39679 V 133.30118 h 72.65625 v 20.3125 h -49.60938 v 25.15625 h 44.92188 v 20.3125 h -44.92188 v 30.54687 h 49.60938 z m 73.59375,-55.07812 q 3.4375,0.70312 5.9375,3.28125 2.57812,2.5 6.25,9.84375 l 21.09375,41.95312 h -25.3125 l -14.0625,-29.45312 q -0.625,-1.25 -1.64063,-3.4375 -6.17187,-13.20313 -14.53125,-13.20313 h -7.34375 V 249.9418 H 501.99054 V 133.30118 h 33.28125 q 22.5,0 32.26562,7.96875 9.84375,7.96875 9.84375,25.9375 0,12.03125 -5.85937,19.14062 -5.85938,7.10938 -16.875,8.51563 z m -29.60938,-42.1875 v 31.79687 h 10.85938 q 9.45312,0 13.51562,-3.67187 4.14063,-3.75 4.14063,-12.26563 0,-8.51562 -4.0625,-12.1875 -4.0625,-3.67187 -13.59375,-3.67187 z"
       inkscape:path-effect="#path-effect1" /></g></svg>
