<?xml version="1.0" encoding="UTF-8" standalone="no"?>
<!-- Created with Inkscape (http://www.inkscape.org/) -->

<svg
   width="700"
   height="400"
   viewBox="0 0 699.99996 400"
   version="1.1"
   id="svg1"
   inkscape:version="1.4.3 (0d15f75, 2025-12-25)"
   sodipodi:docname="beer-sign-flag-cz22.svg"
   xml:space="preserve"
   xmlns:inkscape="http://www.inkscape.org/namespaces/inkscape"
   xmlns:sodipodi="http://sodipodi.sourceforge.net/DTD/sodipodi-0.dtd"
   xmlns="http://www.w3.org/2000/svg"
   xmlns:svg="http://www.w3.org/2000/svg"><sodipodi:namedview
     id="namedview1"
     pagecolor="#ffffff"
     bordercolor="#000000"
     borderopacity="0.25"
     inkscape:showpageshadow="2"
     inkscape:pageopacity="0.0"
     inkscape:pagecheckerboard="0"
     inkscape:deskcolor="#d1d1d1"
     inkscape:document-units="px"
     inkscape:zoom="1.3523148"
     inkscape:cx="346.07325"
     inkscape:cy="171.18794"
     inkscape:window-width="1920"
     inkscape:window-height="1004"
     inkscape:window-x="-8"
     inkscape:window-y="-8"
     inkscape:window-maximized="1"
     inkscape:current-layer="layer1"
     inkscape:lockguides="true"
     showguides="false" /><defs
     id="defs1"><inkscape:path-effect
       effect="fillet_chamfer"
       id="path-effect561"
       is_visible="true"
       lpeversion="1"
       nodesatellites_param="F,0,1,1,0,23.667338,0,1 @ F,0,1,1,0,23.667338,0,1 @ F,0,1,1,0,23.667338,0,1 @ F,0,1,1,0,23.667338,0,1"
       radius="0"
       unit="px"
       method="auto"
       mode="F"
       chamfer_steps="1"
       flexible="false"
       use_knot_distance="true"
       apply_no_radius="true"
       apply_with_radius="true"
       only_selected="false"
       hide_knots="false" /><inkscape:path-effect
       effect="perspective-envelope"
       up_left_point="224.77506,274.53128"
       up_right_point="534.6478,263.8352"
       down_left_point="225.96046,357.10266"
       down_right_point="548.15951,393.14465"
       id="path-effect469"
       is_visible="true"
       lpeversion="1"
       deform_type="perspective"
       horizontal_mirror="false"
       vertical_mirror="false"
       overflow_perspective="false" /><inkscape:path-effect
       effect="perspective-envelope"
       up_left_point="224.77506,274.53128"
       up_right_point="534.6478,263.8352"
       down_left_point="225.96046,357.10266"
       down_right_point="548.15951,393.14465"
       id="path-effect461"
       is_visible="true"
       lpeversion="1"
       deform_type="perspective"
       horizontal_mirror="false"
       vertical_mirror="false"
       overflow_perspective="false" /><inkscape:path-effect
       effect="perspective-envelope"
       up_left_point="253.76314,85.872704"
       up_right_point="592.56163,61.297052"
       down_left_point="253.24026,159.68942"
       down_right_point="580.01236,221.38999"
       id="path-effect3"
       is_visible="true"
       lpeversion="1"
       deform_type="perspective"
       horizontal_mirror="false"
       vertical_mirror="false"
       overflow_perspective="true" /><inkscape:path-effect
       effect="perspective-envelope"
       up_left_point="224.77506,274.53128"
       up_right_point="534.6478,263.8352"
       down_left_point="225.96046,357.10266"
       down_right_point="548.15951,393.14465"
       id="path-effect1"
       is_visible="true"
       lpeversion="1"
       deform_type="perspective"
       horizontal_mirror="false"
       vertical_mirror="false"
       overflow_perspective="false" /><clipPath
       clipPathUnits="userSpaceOnUse"
       id="clipPath470"><path
         d="m 225.9407,355.72601 -1.14595,-79.82351 30.28025,-0.97144 c 18.66298,-0.59874 28.70696,7.54015 29.24146,24.57025 0.54521,17.37106 -10.22092,25.56143 -31.16965,24.49804 l -7.37148,-0.37419 0.69229,34.34705 z m 19.68044,-39.75075 4.75593,0.17919 c 7.86123,0.29618 11.72334,-5.48351 11.42934,-17.28481 -0.27371,-10.98629 -4.37515,-16.37703 -12.15041,-16.22725 l -4.70489,0.0906 z m 71.10927,-43.02222 3.82064,93.1259 -25.94104,-2.83865 -3.01813,-89.48076 z m 91.91145,-2.94868 -26.58086,102.80544 -27.82108,-3.04438 -30.30153,-97.04362 28.13645,-0.90267 24.73965,75.48466 19.33603,-76.89868 z m 61.33346,-3.93682 c 41.99508,-1.44957 66.85602,18.66456 71.30369,61.22947 4.55844,43.62508 -17.41879,63.12946 -62.22902,58.11688 -40.38291,-4.51734 -60.44808,-25.98896 -63.07264,-64.11464 -2.45587,-35.67526 14.61961,-53.87246 53.99797,-55.23171 z m -0.34233,8.96268 c -7.43886,0.17437 -12.13586,3.63531 -14.18917,10.37173 -1.9876,6.6643 -2.22159,19.48026 -0.69324,38.61703 1.54526,19.34835 3.89044,32.67333 7.04728,39.87012 3.25288,7.22212 8.70556,11.24473 16.44134,12.02091 7.88518,0.79117 12.96478,-2.28782 15.1284,-9.2625 2.23661,-7.04649 2.42447,-20.82521 0.57498,-41.14379 -1.82308,-20.02839 -4.46089,-33.46758 -7.90093,-40.43205 -3.33381,-6.89095 -8.83027,-10.21909 -16.40866,-10.04145 z"
         id="path471"
         style="font-style:italic;font-size:160px;line-height:1.2;font-family:'Britannic Bold';-inkscape-font-specification:'Britannic Bold,  Italic';opacity:0.315385;fill:#289d34;fill-opacity:1;stroke:#d51919;stroke-width:0;stroke-linecap:square;stroke-miterlimit:1000"
         aria-label="PIVO"
         transform="matrix(2.8498658,0,0,2.8498658,-642.57256,-621.2589)"
         inkscape:original-d="M 269.8829,349.03116 V 242.39053 h 46.01563 q 39.14062,0 39.14062,31.32813 0,31.64062 -43.51562,31.64062 H 300.8204 v 43.67188 z m 30.9375,-53.51563 h 6.95313 q 16.875,0 16.875,-22.34375 0,-20.9375 -16.875,-20.9375 h -6.95313 z m 95.625,-53.125 V 349.03116 H 365.5079 V 242.39053 Z m 95.39063,0 -30.9375,106.64063 H 433.16415 L 404.8829,242.39053 h 31.25 l 21.09375,80.78125 23.04688,-80.78125 z m 51.71875,-1.875 q 46.5625,0 46.5625,55.15625 0,55.15625 -47.42188,55.15625 -47.42187,0 -47.42187,-56.40625 0,-53.90625 48.28125,-53.90625 z m -0.85938,8.51563 q -8.75,0 -11.875,9.6875 -3.04687,9.60937 -3.04687,36.95312 0,27.34375 3.04687,37.03125 3.125,9.60938 11.875,9.60938 8.75,0 11.79688,-9.60938 3.125,-9.6875 3.125,-37.03125 0,-27.26562 -3.125,-36.95312 -3.04688,-9.6875 -11.79688,-9.6875 z"
         inkscape:path-effect="#path-effect461" /></clipPath><clipPath
       clipPathUnits="userSpaceOnUse"
       id="clipPath561"><path
         style="display:inline;opacity:0.294231;fill:none;fill-opacity:1;stroke:#4cf027;stroke-width:2;stroke-linecap:square;stroke-miterlimit:1000;stroke-dasharray:none;stroke-opacity:1"
         d="M 900.00001,119.39555 2.8035634,152.84168 2.8624382,399.05197 902.80348,508.57253 Z"
         id="path561"
         sodipodi:nodetypes="ccccc" /></clipPath></defs><g
     inkscape:label="Layer 1"
     inkscape:groupmode="layer"
     id="layer1"
     transform="translate(376.26588,-322.86307)"><path
       id="rect561"
       style="opacity:1;fill:#191919;stroke:#000000;stroke-width:5.31289;stroke-linecap:square;stroke-miterlimit:1000;stroke-dasharray:none;stroke-opacity:1"
       d="m 315.0196,317.2338 h 396.39107 a 23.667338,23.667338 45 0 1 23.66734,23.66734 V 549.5388 a 23.667338,23.667338 135 0 1 -23.66734,23.66734 H 315.0196 A 23.667338,23.667338 45 0 1 291.35226,549.5388 V 340.90114 A 23.667338,23.667338 135 0 1 315.0196,317.2338 Z"
       inkscape:path-effect="#path-effect561"
       inkscape:original-d="M 291.35226,317.2338 H 735.07801 V 573.20614 H 291.35226 Z"
       transform="matrix(0.96666983,0,0,0.91622258,-513.49902,115.15063)" /><g
       id="g472"
       transform="matrix(0.35668892,0,0,0.35190617,-179.15604,416.69134)"
       style="opacity:1;stroke-width:2.82255"
       clip-path="url(#clipPath561)"><rect
         width="900"
         height="600"
         fill="#d7141a"
         id="rect471"
         x="0"
         y="0"
         style="stroke-width:2.82255" /><rect
         width="900"
         height="300"
         fill="#ffffff"
         id="rect472"
         x="0"
         y="0"
         style="stroke-width:2.82255" /><path
         d="M 450,300 0,0 v 600 z"
         fill="#11457e"
         id="path472"
         style="stroke-width:2.82255" /></g><g
       style="font-style:italic;font-size:160px;line-height:1.2;font-family:'Britannic Bold';-inkscape-font-specification:'Britannic Bold,  Italic';display:inline;opacity:1;fill:#be8b34;fill-opacity:1;stroke:#d51919;stroke-width:0;stroke-linecap:square;stroke-miterlimit:1000"
       id="g458"
       transform="translate(-401.53654,194.65267)"><path
         d="m 225.941,355.726 -1.146,-79.824 -7.661,6.428 1.146,79.824 z"
         id="path416"
         style="fill:#be8b34;fill-opacity:1" /><path
         d="m 224.795,275.902 30.28,-0.971 -7.66,6.428 -30.281,0.971 z"
         id="path417"
         style="fill:#be8b34;fill-opacity:1" /><path
         d="m 255.075,274.931 c 18.663,-0.599 28.707,7.54 29.241,24.57 l -7.66,6.428 c -0.534,-17.03 -10.578,-25.169 -29.241,-24.57 z"
         id="path418"
         style="fill:#be8b34;fill-opacity:1" /><path
         d="m 284.316,299.501 c 0.264,8.388 -2.11,14.636 -6.995,18.734 l -7.66,6.428 c 4.884,-4.098 7.258,-10.346 6.995,-18.734 z"
         id="path419"
         style="fill:#be8b34;fill-opacity:1" /><path
         d="m 277.321,318.235 c -5.231,4.39 -13.341,6.314 -24.174,5.764 l -7.661,6.428 c 10.834,0.55 18.944,-1.375 24.175,-5.764 z"
         id="path420"
         style="fill:#be8b34;fill-opacity:1" /><path
         d="m 253.147,323.999 -7.372,-0.374 -7.66,6.428 7.371,0.374 z"
         id="path421"
         style="fill:#be8b34;fill-opacity:1" /><path
         d="m 245.775,323.625 0.693,34.347 -7.661,6.428 -0.692,-34.347 z"
         id="path422"
         style="fill:#be8b34;fill-opacity:1" /><path
         d="m 246.468,357.972 -20.527,-2.246 -7.661,6.428 20.527,2.246 z"
         id="path423"
         style="fill:#be8b34;fill-opacity:1" /><path
         d="m 245.621,315.975 4.756,0.179 -7.66,6.428 -4.756,-0.179 z"
         id="path424"
         style="fill:#be8b34;fill-opacity:1" /><path
         d="m 250.377,316.154 c 2.868,0.109 5.204,-0.592 7,-2.099 l -7.66,6.428 c -1.796,1.507 -4.132,2.207 -7,2.099 z"
         id="path425"
         style="fill:#be8b34;fill-opacity:1" /><path
         d="m 257.377,314.055 c 3.126,-2.623 4.616,-7.69 4.429,-15.185 l -7.66,6.428 c 0.187,7.495 -1.303,12.561 -4.429,15.185 z"
         id="path426"
         style="fill:#be8b34;fill-opacity:1" /><path
         d="m 261.806,298.87 c -0.273,-10.987 -4.375,-16.377 -12.15,-16.228 l -7.66,6.428 c 7.775,-0.15 11.876,5.241 12.15,16.228 z"
         id="path427"
         style="fill:#be8b34;fill-opacity:1" /><path
         d="m 249.656,282.642 -4.705,0.091 -7.66,6.428 4.705,-0.091 z"
         id="path428"
         style="fill:#be8b34;fill-opacity:1" /><path
         d="m 244.951,282.733 0.67,33.242 -7.66,6.428 -0.67,-33.242 z"
         id="path429"
         style="fill:#be8b34;fill-opacity:1" /><path
         d="m 316.73,272.953 3.821,93.126 -7.66,6.428 -3.821,-93.126 z"
         id="path430"
         style="fill:#be8b34;fill-opacity:1" /><path
         d="m 320.551,366.079 -25.941,-2.839 -7.66,6.428 25.941,2.839 z"
         id="path431"
         style="fill:#be8b34;fill-opacity:1" /><path
         d="m 294.61,363.24 -3.018,-89.48 -7.661,6.427 3.019,89.481 z"
         id="path432"
         style="fill:#be8b34;fill-opacity:1" /><path
         d="m 291.592,273.76 25.138,-0.807 -7.66,6.428 -25.139,0.806 z"
         id="path433"
         style="fill:#be8b34;fill-opacity:1" /><path
         d="m 408.642,270.004 -26.581,102.806 -7.66,6.428 26.58,-102.806 z"
         id="path434"
         style="fill:#be8b34;fill-opacity:1" /><path
         d="m 382.061,372.81 -27.821,-3.045 -7.661,6.428 27.822,3.045 z"
         id="path435"
         style="fill:#be8b34;fill-opacity:1" /><path
         d="m 354.24,369.765 -30.302,-97.043 -7.66,6.428 30.301,97.043 z"
         id="path436"
         style="fill:#be8b34;fill-opacity:1" /><path
         d="m 323.938,272.722 28.137,-0.903 -7.661,6.428 -28.136,0.903 z"
         id="path437"
         style="fill:#be8b34;fill-opacity:1" /><path
         d="m 352.075,271.819 24.739,75.485 -7.66,6.428 -24.74,-75.485 z"
         id="path438"
         style="fill:#be8b34;fill-opacity:1" /><path
         d="m 376.814,347.304 19.337,-76.899 -7.661,6.428 -19.336,76.899 z"
         id="path439"
         style="fill:#be8b34;fill-opacity:1" /><path
         d="m 396.151,270.405 12.491,-0.401 -7.661,6.428 -12.491,0.401 z"
         id="path440"
         style="fill:#be8b34;fill-opacity:1" /><path
         d="m 469.975,266.068 c 41.995,-1.45 66.856,18.664 71.304,61.229 l -7.66,6.428 c -4.448,-42.565 -29.309,-62.679 -71.304,-61.23 z"
         id="path441"
         style="fill:#be8b34;fill-opacity:1" /><path
         d="m 541.279,327.297 c 2.367,22.656 -2.422,38.807 -13.85,48.396 l -7.661,6.428 c 11.428,-9.589 16.218,-25.74 13.851,-48.396 z"
         id="path442"
         style="fill:#be8b34;fill-opacity:1" /><path
         d="m 527.429,375.693 c -10.577,8.875 -26.841,12.13 -48.379,9.721 l -7.66,6.428 c 21.538,2.409 37.801,-0.846 48.378,-9.721 z"
         id="path443"
         style="fill:#be8b34;fill-opacity:1" /><path
         d="m 479.05,385.414 c -40.383,-4.517 -60.448,-25.989 -63.073,-64.115 l -7.66,6.428 c 2.624,38.126 22.69,59.597 63.073,64.115 z"
         id="path444"
         style="fill:#be8b34;fill-opacity:1" /><path
         d="m 415.977,321.299 c -1.349,-19.607 3.201,-33.935 14.111,-43.089 l -7.661,6.427 c -10.91,9.155 -15.46,23.483 -14.11,43.09 z"
         id="path445"
         style="fill:#be8b34;fill-opacity:1" /><path
         d="m 430.088,278.21 c 8.94,-7.502 22.152,-11.53 39.887,-12.142 l -7.66,6.427 c -17.736,0.613 -30.947,4.64 -39.888,12.142 z"
         id="path446"
         style="fill:#be8b34;fill-opacity:1" /><path
         d="m 469.975,266.068 v 0 l -7.66,6.427 v 0 z"
         id="path447"
         style="fill:#be8b34;fill-opacity:1" /><path
         d="m 469.633,275.03 c -4.058,0.095 -7.3,1.168 -9.742,3.217 l -7.66,6.428 c 2.442,-2.049 5.684,-3.122 9.742,-3.217 z"
         id="path448"
         style="fill:#be8b34;fill-opacity:1" /><path
         d="m 459.891,278.247 c -2.034,1.708 -3.514,4.093 -4.447,7.155 l -7.661,6.428 c 0.934,-3.062 2.413,-5.447 4.448,-7.155 z"
         id="path449"
         style="fill:#be8b34;fill-opacity:1" /><path
         d="m 455.444,285.402 c -1.988,6.664 -2.222,19.48 -0.693,38.617 l -7.661,6.428 c -1.528,-19.137 -1.294,-31.953 0.693,-38.617 z"
         id="path450"
         style="fill:#be8b34;fill-opacity:1" /><path
         d="m 454.751,324.019 c 1.545,19.348 3.89,32.673 7.047,39.87 l -7.661,6.428 c -3.156,-7.197 -5.502,-20.522 -7.047,-39.87 z"
         id="path451"
         style="fill:#be8b34;fill-opacity:1" /><path
         d="m 461.798,363.889 c 3.253,7.222 8.705,11.245 16.441,12.021 l -7.66,6.428 c -7.736,-0.776 -13.189,-4.799 -16.442,-12.021 z"
         id="path452"
         style="fill:#be8b34;fill-opacity:1" /><path
         d="m 478.239,375.91 c 4.666,0.468 8.35,-0.419 11.028,-2.666 l -7.66,6.428 c -2.679,2.247 -6.362,3.134 -11.028,2.666 z"
         id="path453"
         style="fill:#be8b34;fill-opacity:1" /><path
         d="m 489.267,373.244 c 1.848,-1.551 3.217,-3.749 4.101,-6.596 l -7.661,6.427 c -0.883,2.848 -2.253,5.046 -4.1,6.597 z"
         id="path454"
         style="fill:#be8b34;fill-opacity:1" /><path
         d="m 493.368,366.648 c 2.236,-7.047 2.424,-20.826 0.575,-41.144 l -7.661,6.428 c 1.85,20.318 1.662,34.097 -0.575,41.143 z"
         id="path455"
         style="fill:#be8b34;fill-opacity:1" /><path
         d="m 493.943,325.504 c -1.823,-20.029 -4.461,-33.468 -7.901,-40.432 l -7.661,6.428 c 3.44,6.964 6.078,20.403 7.901,40.432 z"
         id="path456"
         style="fill:#be8b34;fill-opacity:1" /><path
         d="m 486.042,285.072 c -3.334,-6.891 -8.831,-10.219 -16.409,-10.042 l -7.66,6.428 c 7.578,-0.178 13.074,3.151 16.408,10.042 z"
         id="path457"
         style="fill:#be8b34;fill-opacity:1" /><path
         d="m 469.633,275.03 v 0 l -7.66,6.428 v 0 z"
         id="path458"
         style="fill:#be8b34;fill-opacity:1" /></g><path
       d="m 225.9407,355.72601 -1.14595,-79.82351 30.28025,-0.97144 c 18.66298,-0.59874 28.70696,7.54015 29.24146,24.57025 0.54521,17.37106 -10.22092,25.56143 -31.16965,24.49804 l -7.37148,-0.37419 0.69229,34.34705 z m 19.68044,-39.75075 4.75593,0.17919 c 7.86123,0.29618 11.72334,-5.48351 11.42934,-17.28481 -0.27371,-10.98629 -4.37515,-16.37703 -12.15041,-16.22725 l -4.70489,0.0906 z m 71.10927,-43.02222 3.82064,93.1259 -25.94104,-2.83865 -3.01813,-89.48076 z m 91.91145,-2.94868 -26.58086,102.80544 -27.82108,-3.04438 -30.30153,-97.04362 28.13645,-0.90267 24.73965,75.48466 19.33603,-76.89868 z m 61.33346,-3.93682 c 41.99508,-1.44957 66.85602,18.66456 71.30369,61.22947 4.55844,43.62508 -17.41879,63.12946 -62.22902,58.11688 -40.38291,-4.51734 -60.44808,-25.98896 -63.07264,-64.11464 -2.45587,-35.67526 14.61961,-53.87246 53.99797,-55.23171 z m -0.34233,8.96268 c -7.43886,0.17437 -12.13586,3.63531 -14.18917,10.37173 -1.9876,6.6643 -2.22159,19.48026 -0.69324,38.61703 1.54526,19.34835 3.89044,32.67333 7.04728,39.87012 3.25288,7.22212 8.70556,11.24473 16.44134,12.02091 7.88518,0.79117 12.96478,-2.28782 15.1284,-9.2625 2.23661,-7.04649 2.42447,-20.82521 0.57498,-41.14379 -1.82308,-20.02839 -4.46089,-33.46758 -7.90093,-40.43205 -3.33381,-6.89095 -8.83027,-10.21909 -16.40866,-10.04145 z"
       id="path468"
       style="font-style:italic;font-size:160px;line-height:1.2;font-family:'Britannic Bold';-inkscape-font-specification:'Britannic Bold,  Italic';display:inline;opacity:0.35;fill:#c8cec9;fill-opacity:1;stroke:#d51919;stroke-width:0;stroke-linecap:square;stroke-miterlimit:1000"
       aria-label="PIVO"
       inkscape:path-effect="#path-effect469"
       inkscape:original-d="M 269.8829,349.03116 V 242.39053 h 46.01563 q 39.14062,0 39.14062,31.32813 0,31.64062 -43.51562,31.64062 H 300.8204 v 43.67188 z m 30.9375,-53.51563 h 6.95313 q 16.875,0 16.875,-22.34375 0,-20.9375 -16.875,-20.9375 h -6.95313 z m 95.625,-53.125 V 349.03116 H 365.5079 V 242.39053 Z m 95.39063,0 -30.9375,106.64063 H 433.16415 L 404.8829,242.39053 h 31.25 l 21.09375,80.78125 23.04688,-80.78125 z m 51.71875,-1.875 q 46.5625,0 46.5625,55.15625 0,55.15625 -47.42188,55.15625 -47.42187,0 -47.42187,-56.40625 0,-53.90625 48.28125,-53.90625 z m -0.85938,8.51563 q -8.75,0 -11.875,9.6875 -3.04687,9.60937 -3.04687,36.95312 0,27.34375 3.04687,37.03125 3.125,9.60938 11.875,9.60938 8.75,0 11.79688,-9.60938 3.125,-9.6875 3.125,-37.03125 0,-27.26562 -3.125,-36.95312 -3.04688,-9.6875 -11.79688,-9.6875 z"
       transform="translate(-409.19655,201.08066)" /></g></svg>
