<?xml version="1.0" encoding="UTF-8" standalone="no"?>
<!-- Created with Inkscape (http://www.inkscape.org/) -->

<svg
   width="346.711"
   height="175.24104"
   viewBox="0 0 346.711 175.24105"
   version="1.1"
   id="svg1"
   inkscape:version="1.4.2 (f4327f4, 2025-05-13)"
   sodipodi:docname="pattern-dust2-3.svg"
   xmlns:inkscape="http://www.inkscape.org/namespaces/inkscape"
   xmlns:sodipodi="http://sodipodi.sourceforge.net/DTD/sodipodi-0.dtd"
   xmlns="http://www.w3.org/2000/svg"
   xmlns:svg="http://www.w3.org/2000/svg">
  <sodipodi:namedview
     id="namedview1"
     pagecolor="#ffffff"
     bordercolor="#000000"
     borderopacity="0.25"
     inkscape:showpageshadow="2"
     inkscape:pageopacity="0.0"
     inkscape:pagecheckerboard="0"
     inkscape:deskcolor="#d1d1d1"
     inkscape:document-units="px"
     inkscape:zoom="1.0847363"
     inkscape:cx="17.054836"
     inkscape:cy="48.39886"
     inkscape:window-width="1920"
     inkscape:window-height="1121"
     inkscape:window-x="-9"
     inkscape:window-y="-9"
     inkscape:window-maximized="1"
     inkscape:current-layer="layer1" />
  <defs
     id="defs1" />
  <g
     inkscape:label="Layer 1"
     inkscape:groupmode="layer"
     id="layer1"
     transform="translate(-50.661911,-42.364993)">
    <path
       id="path934"
       style="baseline-shift:baseline;display:inline;overflow:visible;opacity:1;vector-effect:none;fill:#2e2e2e;stroke-width:0.304355;enable-background:accumulate;stop-color:#000000;stop-opacity:1"
       d="m 51.204909,42.365041 -0.542969,0.119141 v 0.402344 l 0.123047,-0.02734 -0.123047,0.03516 v 1.310547 l 1.083985,-0.855469 0.15039,0.388672 -1.234375,1.710938 v 0.83789 l 1.445313,-2.003906 1.599609,4.150391 -3.044922,2.314453 v 0.990234 l 3.339844,-2.539062 0.132813,0.34375 0.06055,-0.02344 -3.533204,3.919922 v 0.763672 l 5.931641,-6.578125 -1.097656,5.560547 0.800781,0.15625 1.359375,-6.896485 0.06445,-0.07227 5.273438,-4.007813 H 61.69319 l -1.136718,0.863282 0.777343,-0.863282 h -0.6875 l -2.279297,2.527344 -0.474609,0.361328 0.568359,-2.888672 H 57.63069 l -0.716796,3.632813 -2.941407,2.234375 -1.642578,-4.257813 1.160156,-1.609375 z m 15.072266,0 -1.373047,1.298828 0.08984,0.0957 1.474609,-1.394532 z m 9.658203,0 1.017578,1.617188 0.699219,-0.441406 -0.740235,-1.175782 z m 30.326172,0 -5.68164,6.638672 -0.0117,-0.0059 -0.0293,0.05469 -2.449224,2.859375 -16.02734,15.326172 0.5332,0.556641 10.47265,-10.015625 -5.03906,5.888672 0.65235,0.558593 9.92578,-11.59375 -6.37891,11.81836 0.42188,0.226562 7.24804,-13.427734 3.007814,-2.876953 -0.34374,-0.361328 4.83398,-5.646485 z m 5.20313,0 0.12695,0.154297 -1.13476,5.525391 0.76757,0.158203 1.0625,-5.175781 0.0352,-0.0293 -0.0234,-0.02734 0.125,-0.605469 z m 35.87695,0 -2.96875,10.1875 -4.82812,-10.0625 -0.28516,0.136719 4.98047,10.380859 -0.61914,2.121094 -0.79102,1.591797 0.0937,0.04687 0.53125,-1.070312 -2.52343,8.664062 0.8457,0.246094 6.48047,-22.242188 z m 3.09961,0 0.16406,0.125 0.0957,-0.125 z m 27.20117,0 0.5,0.962891 0.62891,-0.328125 -0.33008,-0.634766 z m 5.35743,0 -2.22266,2.175782 0.54297,0.552734 -4.73633,-2.060547 -0.0977,0.220703 8.08008,3.515625 0.0957,-0.220703 -3.23437,-1.408203 2.83398,-2.775391 z m 19.20898,0 0.58594,11.257813 0.52734,-0.02734 -0.58398,-11.230469 z m 3.75,0 2.79883,8.978516 -0.98438,1.761719 0.2168,0.121093 0.86914,-1.55664 5.45117,17.496094 0.8457,-0.261719 -5.70312,-18.300781 2.92188,-5.236328 -0.21485,-0.121094 -2.80859,5.03125 -2.46485,-7.91211 z m 6.75781,0 1.87695,6.75 0.79883,-0.222656 -1.81445,-6.527344 z m 7.48242,0 -6.84961,11.242188 0.41016,0.25 5.80664,-9.533203 6.32422,-1.958985 h -1.63281 l -4.31055,1.335938 0.81445,-1.335938 z m 30.58594,0 4.51172,1.103516 -3.10156,2.054688 0.41406,0.626953 3.67969,-2.439453 4.59375,1.125 0.30664,0.679687 0.73242,-0.330078 -0.0488,-0.107422 1.57422,0.384766 -8.12891,6.730468 -0.83007,-4.521484 -0.57813,0.105469 0.89063,4.845703 -1.18555,0.980469 -0.4043,-0.109375 -0.15625,0.574218 -7.8789,6.523438 0.4375,0.525391 2.73437,-2.263672 -0.0371,0.3125 5.05469,0.601562 -12.14649,8.691406 0.36329,0.507813 12.70507,-9.089844 1.88672,0.224609 1.49024,8.109376 -1.1543,0.589843 0.006,0.01172 -0.79492,0.177734 0.54297,-6.355468 -0.34571,-0.0293 -0.55273,6.46289 -6.88477,1.539063 -0.44531,-0.400391 -0.4707,0.521485 0.0742,0.06836 -2.97266,0.664063 0.16211,0.734374 3.49609,-0.78125 4.28125,3.863282 -8.26367,8.265626 0.25586,0.25586 8.27539,-8.279299 3.52149,3.175779 -8.69141,9.58594 0.55664,0.50586 8.69336,-9.58789 2.94531,2.6582 -4.32031,3.2461 0.22656,0.30273 4.37891,-3.29102 3.83789,3.46094 -15.19141,5.64063 0.25977,0.69726 15.55469,-5.77539 1.94921,1.75977 0.47071,-0.52149 -1.67774,-1.51367 2.48438,-0.92187 4.72656,-1.75586 0.0723,0.27343 20.44336,-5.36132 -13.76172,16.1875 -2.56641,0.41601 -6.64844,-2.24023 -0.96679,-3.83985 2.48242,-1.46679 -0.39063,-0.65821 -2.28711,1.35157 -0.75195,-2.99414 -0.35156,0.08789 0.7793,3.09765 -21.45118,12.675784 0.39063,0.65821 21.25586,-12.560554 0.88281,3.50977 -3.75195,-1.26368 -0.23438,0.69141 4.19727,1.41406 1.1582,4.60547 0.35156,-0.08789 -1.10156,-4.37891 4.89453,1.65039 -3.22851,0.52344 0.10156,0.63477 4.41992,-0.7168 -13.82617,16.861334 0.4668,0.38086 13.96875,-17.035164 -0.0156,-0.01367 0.86719,0.29297 -3.44531,4.05273 0.64257,0.546884 3.66407,-4.308594 3.09375,1.04296 -15.56836,21.359384 0.74414,-4.55469 -0.79688,-0.13086 -0.88086,5.40039 -3.14257,-0.11328 -0.0195,0.57813 3.06641,0.11132 -0.0254,0.15625 -0.56055,0.76954 0.38867,0.2832 -0.0156,0.10547 -8.57227,3.00976 0.25782,0.73438 8.16992,-2.86914 -0.58399,3.58398 -0.48632,-0.16406 -0.11328,0.33789 0.54101,0.18164 -1.76953,10.8418 -13.28516,-1.84571 -4.89258,-7.24804 -5.03124,-13.07031 4.07226,-6.15626 2.59766,4.98047 0.47265,-0.24609 -2.73437,-5.24219 1.18945,-1.79883 -0.6543,-0.43164 -0.95117,1.4375 -3.29297,-6.31054 13.15821,-3.775394 -0.2461,-0.85743 -13.33203,3.824224 -0.043,-0.0801 0.16211,0.0352 0.16797,-0.775394 -0.80664,-0.17383 -1.61133,-3.08789 -0.47265,0.2461 1.40625,2.69531 -16.07813,-3.47852 1.98242,-1.54101 -0.39062,-0.50196 -2.4043,1.86719 -4.03125,-0.87305 -0.50195,-0.48632 0.0723,-0.08985 -0.65625,-0.52148 -0.0215,0.02539 -4.58984,-4.44336 -0.41211,0.42773 4.63086,4.48438 -0.19336,0.24219 -2.00782,-0.4336 -5.86132,-1.89062 -4.375,-4.67774 0.33007,-1.3457 1.78907,-0.83594 -0.31836,-0.68359 -3.11719,1.45703 -0.043,-0.04492 -0.13867,0.13086 -2.16992,1.01367 0.43164,-1.4707 -0.16016,-0.04688 -0.47265,1.61133 -1.61719,0.75586 -3.41407,-6.0293 -0.48437,0.27539 3.39258,5.99024 -6.90039,3.22656 2.88672,-2.43164 -0.20704,-0.2461 -3.80273,3.20313 -9.03711,4.22461 3.22461,-15.12305 -0.52539,-0.11133 -3.29688,15.47266 -8.02539,-3.16602 -0.27734,0.70508 -2.42187,1.23633 -3.91407,-1.24414 -0.16601,0.52149 3.38672,1.07617 -18.13086,9.248044 1.4707,-4.29101 -0.62109,-0.212894 -1.68946,4.933594 -3.83593,1.95703 4.66601,-6.39453 -0.60937,-0.443364 -5.54493,7.595704 -0.13281,0.0684 0.0352,0.0684 -3.35156,4.5918 -1.11914,0.0879 1.85546,-8.75976 -0.74218,-0.15625 -1.90039,8.98046 -6.92579,0.55274 -5.1621,-3.82227 3.57421,-4.15625 -0.48242,-0.41601 -7.90039,9.1914 -6.28125,0.50196 1.13867,-2.37696 -0.39258,-0.18945 -1.24804,2.60742 -2.45703,0.19532 -3.39453,-1.01563 -0.0957,0.31445 2.58594,0.77344 -2.83203,0.22656 0.0703,0.88086 5.10156,-0.4082 0.48829,0.14648 -5.08985,10.625 0.39258,0.1875 5.11914,-10.68554 4.26563,1.27539 -4.6211,5.375 0.48242,0.41406 4.80469,-5.58984 0.67969,0.20312 0.0937,-0.3125 -0.53906,-0.16211 1.81054,-2.10547 16.62305,-1.32812 -0.54297,2.56055 -4.59961,6.30273 0.22266,0.16211 -0.6836,0.10742 0.16993,1.08203 -20.625,0.0664 0.002,0.67187 20.72851,-0.0684 0.14063,0.89258 -10.73242,8.48242 0.49609,0.62891 10.37891,-8.20312 1.61133,10.26367 -1.0293,3.18554 0.58203,0.1875 0.6582,-2.03515 0.87891,5.58789 -3.14258,-0.4668 -0.0293,0.19922 3.20313,0.47461 0.69922,4.44531 -0.99414,0.42188 0.13086,0.30664 0.91601,-0.38867 0.22852,1.45117 0.74414,-0.11719 -0.25781,-1.63867 9.53711,-4.05274 -0.13086,-0.30664 -9.45899,4.01953 -0.63281,-4.02343 3.25391,0.48242 0.0293,-0.19727 -3.3164,-0.49218 -1.14453,-7.29297 5.15234,-15.93164 4.38476,-3.4668 -2.01953,5.89453 0.6211,0.21289 5.875,-17.14844 19.7207,-10.060544 6.69336,2.12695 -6.37305,1.04688 0.13086,0.79101 7.92774,-1.30273 1.30468,0.41601 -0.0273,0.125 -6.57422,4.324224 1.60156,-2.50977 -0.30859,-0.19726 -2.03906,3.19922 -4.28711,2.81836 0.29492,0.44922 3.28516,-2.16016 -4.42774,6.94336 0.3086,0.19531 4.86718,-7.63086 7.1211,-4.683594 -0.0488,0.22851 0.52344,0.11133 0.16211,-0.75976 0.31836,-0.20899 4.0332,1.281254 0.16601,-0.521484 -3.61132,-1.14649 1.14257,-0.75195 15.60157,6.158204 2.1289,4.86914 -7.41797,9.7793 0.41407,0.31445 7.24218,-9.54882 0.3711,0.84961 0.24414,-0.10743 -0.42969,-0.98437 2.02148,-2.66602 2.7168,1.56055 -7.42187,9.33398 0.65625,0.52149 6.58398,-8.28125 0.002,0.12305 3.04883,-0.0488 2.83008,1.62695 -1.21484,3.59766 0.32226,0.10937 1.19336,-3.53515 1.78711,1.02734 0.41016,-0.7168 -1.92774,-1.10742 0.35938,-1.06055 5.0957,-0.082 -0.31055,8.22461 -2.0371,-2.33203 -0.33985,0.29492 2.35156,2.69141 -0.58007,15.31055 0.85937,0.0312 0.54492,-14.39844 7.60742,8.70898 0.33789,-0.29492 -7.91992,-9.06836 0.34766,-9.18164 1.86719,-0.0293 -0.006,-0.40039 -1.84571,0.0293 0.21485,-5.70312 6.39844,6.83984 0.65625,-0.61328 -8.61329,-9.20899 3.75,-2.912114 6.63086,6.419934 -4.74414,1.36132 0.2461,0.85743 17.60156,-5.04883 3.47851,6.66797 -4.00195,6.05078 -0.6582,-1.71094 -0.61914,0.23828 0.82812,2.15234 -10.05078,15.19532 0.6543,0.43359 9.74219,-14.73047 4.10937,10.67383 -0.47656,0.32227 1.39648,2.06836 2.5,6.49414 0.61914,-0.23828 -1.46484,-3.80665 2.69141,3.98633 -1.07618,-0.15039 -0.10156,0.72852 1.73047,0.24023 9.0332,13.37891 0.6211,-0.41992 -8.6543,-12.82032 12.61133,1.75391 -0.83203,5.0957 -3.31055,1.13086 0.23047,0.67188 21.93945,-7.4961 0.75196,0.0391 -9.89454,19.0957 -0.6582,-6.625 -0.60351,0.0605 1.5332,15.45507 -3.98047,1.42774 -22.56836,-3.61328 -0.13672,0.85351 2.58203,0.41407 -17.56445,-2.15625 -0.084,0.67773 24.71875,3.0332 0.0508,-0.41601 17.27929,2.76562 0.35938,3.61719 0.60351,-0.0606 -0.34375,-3.45703 3.5254,0.56445 0.13671,-0.85351 -3.75,-0.59961 -0.21289,-2.14453 3.41016,-1.22266 -0.0664,-0.1875 14.21289,4.39649 2.65039,6.88281 0.5625,-0.2168 -2.48046,-6.43945 9.11914,2.82031 -3.00782,4.58203 0.50782,0.33203 3.10156,-4.72656 2.62695,0.8125 0.26563,-0.85742 -2.37891,-0.73633 6.07617,-9.25976 13.82617,0.5039 13.09375,15.62696 0.48243,-0.4043 -10.90625,-13.01367 13.58593,-11.35743 -0.3164,-0.37695 -13.58399,11.35742 -1.80468,-2.15429 0.006,-0.17188 -0.15429,-0.006 -1.57227,-1.875 -0.48047,0.4043 1.20703,1.43945 -13.05078,-0.47656 2.11133,-3.21875 -0.50586,-0.33203 -2.3125,3.52344 -4.02148,-0.14649 -0.0195,0.51563 3.70898,0.13476 -5.97266,9.10157 -10.04101,-3.10743 -3.50781,-9.11133 1.61132,1.1543 0.21094,-0.29492 -2.06054,-1.47461 -0.82813,-2.1543 0.55078,-8.41992 -0.45703,-0.0312 -0.48828,7.43164 -0.0488,-0.1289 -0.5625,0.21484 0.51758,1.3457 -0.0488,0.76368 -7.32031,-5.23829 -0.21094,0.29493 7.50195,5.36914 -0.4375,6.67773 0.45899,0.0293 0.41797,-6.39258 0.30078,0.2168 3.66797,9.52148 -17.49219,-5.41016 -0.53906,-5.42968 0.54883,0.28515 10.0332,-19.36718 12.72461,0.66796 0.0273,-0.52539 -6.65039,-0.34961 8.64844,-0.0742 -1.58594,8.54492 0.48633,0.0898 1.60156,-8.64062 13.09375,-0.11329 -0.006,-0.68164 -12.96093,0.11329 1.55859,-8.40821 -0.48438,-0.0898 -1.57617,8.50195 -11.44922,0.0996 0.004,0.51758 -3.16602,-0.16602 0.0918,-0.17773 0.80273,-0.27344 -0.22851,-0.67187 -0.86914,0.29687 -0.0605,-0.0312 -0.0332,0.0625 -1.97461,0.67578 -4.42383,-0.23242 -0.0273,0.52539 3.11328,0.16406 -4.79297,1.63672 0.0156,-0.10547 -4.47657,-0.62304 2.88672,-5.4668 -0.16406,-0.0879 -2.91602,5.5293 -5.75976,-0.80078 1.74609,-10.69141 11.01563,3.70703 0.11328,-0.33789 -11.07031,-3.72656 0.67773,-4.14844 4.81836,-1.69336 12.76367,0.45898 0.0215,-0.58007 -11.2871,-0.4043 11.4746,-4.03125 -0.25781,-0.73438 -13.34765,4.6875 -3.18164,-0.11328 9.14062,-12.53906 11.18945,-7.816404 3.80274,1.281244 0.23437,-0.693354 -3.29297,-1.10938 2.78516,-1.94531 -0.28711,-0.41016 -3.08594,2.15625 -4.11328,-1.38672 0.36914,-0.50586 -0.68164,-0.49804 -0.52539,0.72265 -3.03711,-1.02343 0.62891,-0.74024 15.28125,-2.48242 -0.10352,-0.63281 -14.53711,2.35937 14.49805,-17.054686 -0.64258,-0.546875 -1.22851,1.445311 -0.11524,-0.435545 -18.60547,4.878905 -0.22656,-0.60937 -9.55273,3.54687 -4.00782,-3.61523 6.11719,-4.595706 -0.22851,-0.302735 -6.17383,4.640621 -3.04688,-2.75 9.28516,-10.24023 -0.55664,-0.503906 -9.28516,10.242186 -3.49609,-3.154296 0.58008,-0.580078 -0.25586,-0.255859 -0.59375,0.59375 -3.9375,-3.552735 6.13281,-1.371093 -0.45703,5.351562 0.3457,0.0293 0.4668,-5.460937 11.79687,-2.636719 0.18946,0.123047 -4.07813,5.875 -0.66797,0.04492 0.0332,0.466797 0.29296,-0.01953 -0.41015,0.589844 0.72656,0.503906 0.8125,-1.171875 11.70508,-0.800781 9.19531,5.99805 0.48242,-0.73828 -8.21484,-5.359379 2.43555,-0.166016 -0.0312,-0.464844 -3.05274,0.208985 -7.98437,-5.208985 0.16601,-0.238281 2.54102,-0.568359 -0.16406,-0.734375 -1.74219,0.388672 4.15625,-5.986329 5.48242,1.492188 -3.51172,7.455078 0.5293,0.25 6.5918,-13.992187 10.76171,-1.892579 0.82813,3.121094 0.79492,-0.210937 -0.81055,-3.052735 2.65625,-0.466797 -0.0957,-0.541015 -2.70312,0.474609 -2.69532,-10.152344 h -0.85156 l 2.73438,10.294922 -10.33204,1.816406 2.17188,-4.609374 0.82031,-0.166016 -0.17578,-0.871094 -2.50195,0.503906 1.5332,-6.96875 h -0.83008 l -1.57226,7.144532 -1.88672,0.380859 1.20312,-1.732422 -0.72656,-0.503906 -1.72851,2.488281 -17.02735,3.433594 4.40625,-7.267578 1.37305,0.335937 0.14648,-0.595703 -1.18554,-0.291016 1.5332,-2.527343 -0.48438,-0.292969 -1.625,2.679688 -1.68554,-0.41211 0.7539,-1.30664 -0.41406,-0.240235 -0.73437,1.269531 -0.19727,-0.240234 -0.34766,0.287109 -2.48242,-0.607421 -0.90039,-2.001954 h -0.88086 l 0.79102,1.759766 -3.57813,-0.875 1.33594,-0.884766 h -1.36133 l -0.96679,0.640625 -2.61719,-0.640625 z m 24.96875,0 1.64453,2.283204 0.47071,-0.339844 -1.4004,-1.94336 z m 19.4336,0 4.92773,6.347657 -2.13477,6.757812 0.39258,0.125 2.05078,-6.488281 1.3125,1.691406 -2.1289,5.06836 0.60351,0.251953 1.98438,-4.728516 2.68945,3.462891 -1.16406,2.458984 -6.40625,2.617188 0.0762,0.1875 6.20312,-2.533204 -1.88281,3.980469 -15.09961,5.96875 0.26368,0.667969 14.79882,-5.84961 0.0606,0.0293 0.0312,-0.06445 9.4668,-3.742187 -0.26368,-0.667969 -2.01757,0.796875 -0.62696,-0.806641 15.24219,-2.779296 -2.07422,2.683593 -0.26953,0.09766 0.0625,0.171874 -2.41992,3.13086 -0.65234,-2.259766 -0.67969,0.195313 0.79492,2.757812 -4.39062,5.681641 -1.17188,-0.980469 1.48438,-3.525391 -0.39063,-0.164062 -1.43359,3.404297 -0.65039,-0.544922 0.54882,0.04883 0.0312,-0.365234 -1.07031,-0.09375 -0.72656,-0.607422 -0.13672,0.160156 0.49609,0.416016 -11.85351,-1.03711 -0.0332,0.365235 12.37696,1.082031 0.93164,0.779297 -2.88672,6.863281 -1.49219,1.929688 0.51367,0.394531 -0.61523,1.460937 0.39063,0.164063 1.08007,-2.564453 5.05274,-6.53711 1.93945,1.623047 0.13672,-0.162109 -1.94727,-1.628906 4.07422,-5.269532 1.28711,4.460938 -4,-0.693359 -0.0215,0.128906 4.0625,0.705078 1.66797,5.783203 0.49609,14.437505 0.77539,-0.0254 -0.39062,-11.357418 2.21093,7.662108 0.67774,-0.19531 -2.98828,-10.359376 -0.46485,-13.546875 1.60547,4.490235 -0.46094,0.107422 4.43555,18.781254 -0.98242,0.84765 0.44531,0.51563 0.71289,-0.61524 0.1211,0.50782 0.54882,-0.13086 -0.1875,-0.79297 17.64453,-15.226566 -0.44531,-0.515625 -17.375,14.994141 -4.18359,-17.707031 1.35351,3.783203 0.30079,-0.105469 -3.61719,-10.111328 2.85351,-3.693359 0.95899,-0.173828 -0.10352,-0.578126 -0.31836,0.05859 0.0684,-0.08789 -0.59179,-0.458985 -0.57813,0.748047 -16.18359,2.951172 -2.37305,-3.056641 1.96289,-4.152343 -0.33594,-0.158204 -1.88281,3.982422 -2.7168,-3.498046 3.41211,-8.126954 h -0.70898 l -3.16406,7.533204 -1.37891,-1.775391 1.82031,-5.757813 h -0.43359 l -1.69336,5.361328 -4.16211,-5.361328 z m 23.81835,0 3.73438,4.472657 0.32227,-0.269532 -3.50782,-4.203125 z m 33.22266,0 1.86914,6.263672 -6.30859,12.826172 0.3789,0.1875 6.10743,-12.414062 1.41211,4.730468 -4.77344,2.292969 0.3125,0.648438 4.66992,-2.242188 2.89062,9.693359 -1.64062,1.246094 -7.47656,3.417969 -0.17578,-0.103516 1.10351,-0.484375 -0.0527,-0.121093 -1.19141,0.521484 -0.16016,-0.09375 -0.13085,0.222656 -2.96876,1.300781 0.0547,0.121094 2.79883,-1.228515 -0.15625,0.267578 -4.00391,1.830078 0.29297,0.640625 3.08594,-1.410156 -5.56445,9.439454 -0.12891,0.13281 0.0312,0.03125 -1.07617,1.82617 2.34766,-5.128903 -0.53907,-0.248047 -4.72461,10.32617 -1.92773,3.26953 -3.04297,-0.05468 -0.0137,0.79492 2.5918,0.04687 -2.83008,4.80274 0.74023,0.43554 1.02149,-1.73437 -0.80274,1.75586 0.53906,0.24609 2.50977,-5.48437 8.73047,0.1582 -3.8418,2.89844 0.2832,0.375 4.32032,-3.25977 15.73633,0.28516 0.0137,-0.79492 -14.72071,-0.26758 8.34375,-6.29492 -0.2832,-0.375 -8.82226,6.65625 -9.39844,-0.16993 0.31054,-0.67773 6.44532,-10.9375 6.03125,-6.238281 1.25781,0.03711 0.002,-0.105469 -1.16015,-0.03516 0.81445,-0.841797 -0.24414,-0.238281 -1.03125,1.066406 -1.89063,-0.05664 1.33399,-2.263672 3.27148,-1.496094 7.85742,2.253906 0.32227,1.080078 -11.81445,2.962891 0.15429,0.617188 19.6543,-4.927735 -0.94141,7.539067 -3.70117,1.75 0.27735,0.58398 3.32812,-1.57422 -0.74609,5.96875 0.6582,0.08203 0.79883,-6.38672 5.78906,-2.738278 0.79883,0.556641 5.51758,12.476567 0.75781,-0.33594 -4.96484,-11.228518 2.73437,1.906248 -1.40039,0.82813 0.29883,0.5039 1.63086,-0.96484 8.16797,5.69141 0.30468,-0.4375 -7.96874,-5.55079 16.27734,-9.628901 -0.29883,-0.50586 -16.50781,9.765621 -3.6543,-2.546871 -0.48633,-1.101562 7.12305,-3.369141 -0.37109,0.306641 0.37109,0.451172 2.14844,-1.773438 1.04687,-0.496093 -0.125,-0.265626 0.11914,-0.09961 0.67188,3.263672 0.19726,-0.04102 -0.69336,-3.367187 11.24219,-9.285156 V 59.56426 l -11.375,9.394531 -0.66601,-3.240234 -0.19922,0.04102 0.68945,3.345703 -1.02539,0.845703 -9.41602,4.455078 -0.29296,-0.660156 1.13671,-0.0293 -0.004,-0.189453 -1.21485,0.03125 -4.49414,-10.16211 0.33594,-2.693359 -0.57617,-0.07227 0.30664,-0.355468 -3.58203,-3.074219 0.6543,-0.740234 0.58984,0.154296 6.26172,6.478516 -2.55469,-0.490234 -0.0859,0.447265 3.19141,0.611328 2.57227,2.66211 0.57226,-0.550781 -1.78906,-1.851563 11.75976,2.253906 0.0859,-0.445312 -12.39648,-2.376953 -6.14258,-6.355469 3.73242,0.970703 0.11133,-0.425781 -4.42969,-1.152344 -0.74023,-0.763672 4.75586,-5.380859 2.68164,3.949218 -1.39258,1.402344 0.45898,0.457032 1.30274,-1.3125 2.68945,3.958984 0.74219,-0.503906 -2.78711,-4.103516 8.16211,-8.220703 0.29883,11.414062 0.35546,-0.0098 -0.30859,-11.751953 3.13672,-3.160157 h -0.91016 l -2.25,2.265625 -0.008,-0.28125 -0.35351,0.0098 0.0156,0.619141 -8.50977,8.568359 -2.71093,-3.994141 4.01562,-4.542968 1.14844,-0.03516 -0.0215,-0.701171 -0.49024,0.01562 1.70117,-1.923828 h -0.92578 l -1.72656,1.953125 -7.10742,0.21875 -1.47461,-2.171875 h -1.08594 l 1.49805,2.205078 -15.36328,0.472657 -0.79883,-2.677735 z m 37.03516,0 -1.91993,12.34375 0.74024,0.115235 1.54492,-9.935547 1.08594,-2.523438 h -0.36719 l -0.51172,1.191407 0.18555,-1.191407 z m 5.00781,0 1.33398,3.335938 -1.79296,2.826172 -2.50196,1.738281 0.0684,0.09766 2.26953,-1.576172 -4.28515,6.757813 -0.0762,-0.08594 -5.375,4.919922 0.13477,0.146485 5.14258,-4.705079 -1.15821,1.826172 0.59961,0.38086 7.59961,-11.988282 0.39649,-0.158203 -0.11328,-0.285156 0.85937,-1.355469 v -1.328125 l -1.18554,1.869141 -0.96485,-2.416016 z m -268.75,0.05274 -3.54688,3.039062 -0.0234,-0.851562 -0.54297,0.01563 0.0352,1.291015 -4.78711,4.103516 0.20899,0.244141 4.58984,-3.933594 0.13282,4.876953 -4.71875,4.160156 -1.38477,0.316407 -0.28516,-0.714844 -0.81836,0.326172 0.23438,0.58789 -4.50391,1.029297 3.30469,-5.445312 -0.45703,-0.277344 -3.57422,5.888672 -2.64648,0.605469 0.13867,0.609374 2.05664,-0.470703 -1.41406,2.332032 -4.0918,-4.091797 -0.35352,0.353515 4.17774,4.177735 -2.55274,4.207031 -2.04882,0.785156 -5.685554,-4.703125 -0.29297,0.351563 5.488284,4.539062 -5.800784,2.222657 0.13477,0.353515 6.001954,-2.298828 0.96094,0.796875 -0.63282,1.042969 0.0137,0.0078 -3.746104,1.597657 0.06641,0.152343 3.855474,-1.642578 0.26757,0.162109 0.22657,-0.371093 0.72461,-0.310547 2.49609,2.066406 -2.75391,4.992188 -3.92773,0.703125 0.14648,0.828125 3.25977,-0.582032 -5.343754,9.689456 0.73828,0.40625 3.697274,-6.70508 15.6582,1.08594 1.18359,2.58398 -11.0625,15.20117 -5.30468,-10.81054 0.37109,-0.2461 -0.10352,-0.15625 -0.35156,0.23242 -0.73828,-1.5039 -0.37305,0.18359 0.76172,1.55078 -5.005864,3.30469 0.10352,0.15625 4.984374,-3.29101 5.38086,10.96093 -5.39062,7.408215 0.66992,0.48632 5.13281,-7.054685 0.0332,0.06836 0.37304,-0.1836 -0.1289,-0.26367 11.04296,-15.17773 5.70313,12.46289 0.73633,-0.33594 -5.89258,-12.87695 0.79102,-1.0879 -0.66993,-0.48828 -0.51757,0.71094 -0.81055,-1.77148 2.51953,0.17578 3.24219,1.32812 1.45312,3.62891 0.81836,-0.32813 -1.13476,-2.83398 0.72656,0.29688 0.15625,-0.38282 -1.09766,-0.44922 -3.72265,-9.304684 8.38867,-1.5 -0.14844,-0.830078 -8.56055,1.53125 -5.66797,-14.160156 1.56641,-1.378906 4.0293,-0.919922 0.25976,9.558594 0.54297,-0.01367 -0.26367,-9.669922 5.71875,-1.306641 -4.57031,4.083985 0.26172,0.292968 5.10156,-4.558594 0.35742,-0.08203 -0.0449,-0.197265 5.28516,-4.722657 -0.26172,-0.292968 -5.16407,4.613281 -6.70117,1.533203 -0.0625,-2.275391 8.52735,-7.513672 -0.57422,-0.652343 -7.98242,7.037109 -0.13282,-4.865234 3.74414,-3.210938 z m -72.775395,0.142578 -0.183594,0.253906 -0.02539,-0.08789 z m -0.238281,0.330078 -0.386719,0.537109 -0.111328,-0.287109 0.214843,-0.167969 z m 20.582031,0.408203 -0.355469,0.205078 7.505859,12.939453 0.355469,-0.207031 z m 104.162115,1.509766 -23.14844,6.83789 0.1875,0.632813 23.14649,-6.835938 z m 199.57031,0.230468 -3.4668,3.921876 -1.375,-2.025391 2.94336,-1.414063 -0.20117,-0.417968 z m -2.73633,0.08398 -2.51562,1.208984 -0.75196,-1.107422 z m -4.33008,0.134765 0.9961,1.466797 -6.40821,3.078125 -0.9414,-3.544922 -0.51758,0.136719 0.9668,3.644531 -0.58985,0.283204 -4.5664,-4.72461 z m -12.13085,0.373047 4.88281,5.052735 -1.99219,0.957031 -4.62695,-3.970703 -0.34571,0.402344 4.45118,3.818359 -3.52149,1.691406 -1.63672,-5.492187 0.15235,-0.310547 -0.28711,-0.142578 -0.56641,-1.898438 z m -92.96876,0.126953 1.67188,0.410157 -4.58594,7.560547 -1.91406,0.386718 z m -0.60937,0.09766 -4.8457,8.386719 -1.86133,0.375 -1.6582,-0.451172 -0.22071,-1.201172 z M 65.488112,45.919729 64.788894,52.37676 50.66194,63.587698 v 0.949218 l 14.015625,-11.123047 -0.990234,9.138672 -0.01758,-7.957031 h -0.40625 l 0.01953,9.681641 -0.990234,0.121094 -0.369141,-0.07422 -0.02539,0.123047 -11.236328,1.375 v 0.816406 l 12.623047,-1.546875 v 0.109375 l -1.652343,1.390625 -10.970704,1.525391 v 0.402343 l 10.398438,-1.447265 -7.583984,6.376953 -1.570313,-0.386719 -0.171875,0.701172 1.058594,0.261719 -0.69336,0.582031 0.519532,0.615234 1.140625,-0.958984 13.818359,3.410156 -14.216797,5.441402 -2.699219,-0.29296 v 0.22851 l 2.232422,0.24219 -2.232422,0.85547 v 0.78125 l 3.822266,-1.46289 1.070312,0.11523 0.02539,-0.22656 -0.628906,-0.06836 13.869141,-5.30859 6.808593,1.68164 -2.65039,1.5957 -16.736329,2.71484 0.0918,0.56055 15.285157,-2.47852 -9.759766,5.27735 0.396484,0.73242 11.863282,-6.41406 2.693359,-0.4375 -0.08984,-0.5625 -1.078125,0.17578 1.472656,-0.79688 0.232422,0.05664 0.05273,-0.21093 4.302731,-2.326175 2.49219,0.802735 0.11719,-0.36328 -2.14453,-0.691408 6.83789,-3.697266 -0.39649,-0.732422 -4.74414,2.564454 6.29297,-3.789063 -0.32422,-0.537109 -9.369138,5.642578 -5.199219,-1.677735 -0.113281,-0.294921 -0.367188,0.140624 -0.570312,-0.183593 5.261719,-5.431641 -0.195313,-0.191406 -5.355469,5.529297 -2.86914,-0.925781 -0.117188,0.363281 2.689453,0.867187 -0.636718,0.658203 -4.232422,1.621094 -14.31836,-3.533203 8.115235,-6.822266 0.134765,-0.01953 -0.01172,-0.08594 0.605468,-0.507813 -0.423828,3.916016 0.664063,0.07031 0.08398,-0.78125 h 0.0918 l -0.002,-0.826172 0.324219,-3.001953 0.490234,-0.410156 10.210938,2.072266 0.07031,-0.353516 -9.929688,-2.015625 0.0332,-0.02734 11.847656,-1.451172 -0.962891,3.50586 0.19336,0.05273 0.986328,-3.583984 2.259765,-0.277344 -0.09766,-0.802734 -1.929687,0.236328 0.730468,-2.654297 -0.195312,-0.05273 -0.751953,2.734374 -10.945313,1.339844 9.083985,-7.640625 -0.517578,-0.615234 -10.03125,8.433594 -0.384766,0.04883 1.226562,-11.335938 0.572266,-0.455078 -0.460938,-0.582031 0.628907,-5.802734 z m 2.609375,0.263672 -0.04883,0.09766 3.576172,1.78125 0.04883,-0.09766 z m 183.109383,0.30664 -7.26563,7.085938 0.19336,0.197266 7.26758,-7.083985 z m 119.95507,0.837891 1.58008,2.326172 -4.83789,5.472656 -0.45117,-0.46875 0.88086,-1.296875 -0.42383,-0.287109 -0.82031,1.208984 -2.14844,-2.222656 -0.41016,-1.548828 z m -33.40234,0.154297 -1.75195,18.496094 0.50586,0.04883 1.7539,-18.496094 z m -2.0957,0.3125 -3.59375,20.046875 0.54883,0.09766 3.59375,-20.046875 z M 55.533034,48.036916 54.38655,49.306448 54.267409,48.997854 Z m 121.623046,1.63086 -2.1289,5.080078 0.53516,-1.96875 -0.85157,-0.230469 -2.29101,8.417969 -1.78516,4.255859 -7.83594,-0.259765 -0.0137,0.417968 7.67578,0.25586 -3.15429,7.52539 -11.20899,3.408203 0.20313,0.66211 10.48632,-3.1875 -7.65234,7.117188 0.0254,0.02539 -1.9043,1.13672 -0.68554,-2.49805 -0.17774,0.04883 0.69922,2.54688 -0.082,0.04882 0.17774,0.29883 0.97851,3.56055 0.17578,-0.04688 -0.87305,-3.18164 2.23438,-1.33203 0.0332,0.03711 0.16992,-0.1582 8.2168,-4.900393 -1.86328,6.839843 0.67383,0.18359 -7.75586,2.07618 0.0898,0.33398 12.16407,-3.25781 -0.0898,-0.33203 -4.20508,1.125 2.07618,-7.619144 9.53906,-5.691406 1.7539,-0.533203 -0.13085,-0.433594 1.40234,-0.837891 -0.39844,-0.667968 -3.24414,1.935547 -7.87891,2.396484 0.0899,-0.326172 6.54492,-6.089844 1.16016,0.03906 0.0156,-0.417969 -0.74023,-0.02539 6.00195,-5.582031 -0.60156,-0.646484 -6.65235,6.1875 -3.91406,-0.130859 1.41016,-5.177735 4.2539,-10.146484 z m 2.33594,0.3125 -0.0156,0.371093 13.59375,0.544922 0.0156,-0.371093 z m 105.1836,0.03125 -2.16407,4.589843 -0.14453,0.02539 0.95703,-4.34375 z m -2.22071,0.447265 -0.95117,4.320313 -1.41992,0.248047 -1.2793,-2.296875 1.24219,-1.78711 z m 81.58594,0.289063 0.13867,0.523437 -0.39062,-0.404296 z m -85.24609,0.449219 -0.46875,0.673828 -0.28907,-0.519532 -0.1621,0.08984 0.33398,0.59961 -4.82031,6.941406 -12.16211,-3.308594 0.64648,-1.066406 z m 84.24023,0.0332 1.5625,1.615234 0.67383,2.542969 -0.55664,-0.144531 -3.60156,-3.091797 z m -130.16797,1.074219 -0.52734,3.980468 0.10937,0.01367 0.52735,-3.980469 z m -111.24804,0.0293 0.0527,1.929688 -3.0293,0.693359 z m 238.9707,0.07031 2.95703,2.537109 -5.3457,-1.390625 z m -81.90234,0.496094 1.20117,2.162109 -2.56836,0.451172 0.0957,0.541016 2.75586,-0.484376 1.01758,1.828126 0.008,-0.0039 -1.70117,3.609375 0.0918,-0.335937 -5.29493,-1.439453 z m -55.1875,0.242187 -0.10938,0.107422 3.90039,3.992188 0.10938,-0.107422 z m -24.06836,0.05469 -7.58008,14.830078 -0.875,0.455078 -2.46875,-3.136719 -0.12696,0.09961 2.44727,3.113282 -0.24609,0.128906 -0.45703,-0.0098 -0.006,0.25 -21.81641,11.328126 0.37695,0.72461 12.35547,-6.416017 -2.34375,5.800777 0.18945,0.07618 2.4336,-6.021488 9.89844,-5.138672 -5.64844,11.05078 -1.83985,0.92578 0.17579,0.35157 1.36132,-0.68555 -0.0254,0.04883 0.75977,0.38867 0.55469,-1.08789 10.1914,-5.130862 -0.17578,-0.351562 -9.71094,4.890624 5.00977,-9.804687 0.17187,0.21875 0.12891,-0.101562 -0.21875,-0.277344 0.32422,-0.632813 3.75,0.07813 2.28906,9.691411 -4.0664,1.02343 0.0449,0.17774 4.06445,-1.02149 0.46484,1.9668 0.41016,-0.09766 -0.4668,-1.97265 2.05274,-0.51563 -0.0449,-0.17968 -2.04883,0.51562 -2.26367,-9.578125 5.29101,0.113281 5.56446,6.230469 -4.13868,2.917965 0.0996,0.14258 4.1543,-2.931639 2.65625,2.974609 -0.0371,0.05469 0.2168,0.14648 2.83007,3.16992 0.50196,-0.44921 -1.04297,-1.16797 17.83984,12.0957 0.46875,2.75391 0.80078,-0.13672 -0.35546,-2.0918 0.35156,-0.51758 -0.4961,-0.33594 -2.08398,-12.26757 1.83984,0.42968 -0.0449,0.39258 0.45899,0.05274 0.0391,-0.33789 2.87305,0.67187 0.0918,-0.39062 -2.91992,-0.6836 1.83008,-15.990232 -0.45899,-0.05273 -1.82421,15.937496 -1.95899,-0.45898 -2.3125,-13.613282 -0.80078,0.136719 2.25586,13.275393 -8.08984,-1.894534 -0.0918,0.390625 8.2539,1.933599 2.01172,11.83593 -19.60156,-13.28906 -2.64648,-2.964844 0.47851,-0.33789 -0.0996,-0.140625 -0.49609,0.349609 -5.19727,-5.820312 0.55274,0.01172 0.008,-0.359375 -0.88672,-0.01953 -5.0957,-5.705078 -0.50195,0.449219 4.67578,5.236328 -5.04688,-0.107422 -0.67969,-2.875 -0.41015,0.09766 0.6543,2.767578 -3.48438,-0.07422 0.0645,-0.123046 2.62696,-1.365235 -0.37696,-0.724609 -1.61133,0.835937 7.03516,-13.763671 z m 39.40429,0.05273 -10.50976,6.941406 -9.39453,-3.259765 -0.125,0.359375 9.12109,3.164062 -3.83203,2.529297 0.26562,0.404297 4.14063,-2.734375 3.41992,1.185547 0.12305,-0.359375 -3.14258,-1.089844 10.20117,-6.738281 z m 16.10547,0.144531 0.11133,0.59961 -0.63086,-0.169922 z m -90.85937,0.134766 -4.10743,4.199219 -4.91796,2.09375 0.12109,0.287109 4.23047,-1.800781 -6.40039,6.542968 -12.54883,1.125 -4.45703,-0.824218 -0.0723,0.390625 3.05664,0.566406 -1.0332,0.0918 0.041,0.457031 2.67187,-0.238281 6.10156,1.126953 -4.74414,6.248047 -6.44531,-5.757813 -0.17969,0.201172 6.46094,5.773438 -0.0703,0.0918 -3.67383,1.607422 0.24023,0.548828 2.68946,-1.175782 -7.12305,9.378906 0.49609,0.37695 7.79883,-10.269528 0.18164,-0.07812 0.34961,0.3125 0.17969,-0.201172 -0.25781,-0.230469 1.79297,-0.785156 -1.58399,1.61914 0.59375,0.580078 3.01953,-3.085937 11.94141,-5.22461 -0.24219,-0.550781 -10.58008,4.628907 6.17188,-6.308594 0.9082,-0.08203 -0.041,-0.458984 -0.3711,0.0332 7.11719,-7.277343 4.26758,-1.816407 -0.1211,-0.287109 -3.57812,1.523437 2.71094,-2.771484 z m 201.27734,0.105469 1.27539,1.318359 -0.45703,0.671875 -0.3125,-0.08203 z m -7.38086,0.02344 -0.0703,0.271485 6.39844,1.664062 1.19531,1.025391 -3.71875,5.476562 -0.01,-0.01367 -2.2539,1.712891 -2.83789,-9.513672 z m -104.26172,0.75 1.48633,0.404297 0.041,0.226562 -0.97657,0.197266 0.17578,0.869141 0.96094,-0.19336 0.38867,2.117188 -1.71679,1.230469 -5.4375,-0.646485 z m 7.40039,0.351563 -0.46094,0.759765 -0.84179,-0.228515 -0.0645,-0.0918 -0.0742,0.05273 -0.42578,-0.115234 z m 44.02149,0.421875 1.83789,2.365234 -2.50391,0.457031 0.10547,0.576172 2.80273,-0.511719 0.7461,0.960938 -5.91211,2.337891 1.88672,-3.992188 0.14453,-0.05859 -0.0547,-0.132812 z m 61.85937,0.146484 0.37891,0.394531 -0.15235,0.173828 -0.51953,-0.134765 z m -85.62304,0.03125 -0.0195,0.08984 0.6875,0.15039 -0.75195,1.595703 -0.92383,-1.660156 z m -23.76368,0.107422 0.76172,0.207031 -0.50195,0.871094 -1.54883,1.107422 -0.3418,-1.857422 z m 1.24024,0.337891 0.0371,0.0098 -0.0723,0.05274 z m 0.8164,0.220703 0.58594,0.160156 -0.34961,0.576172 -0.0351,-0.552735 -0.19141,0.01172 0.0508,0.828125 -1.62891,2.689453 -1.42578,-0.169922 -0.22851,-1.238281 0.66797,-0.476562 -0.55469,0.960937 0.41601,0.240235 1.08594,-1.878907 z m 106.77344,0.123047 0.45508,0.117187 -0.42774,0.484375 -0.27539,-0.236328 z m -250.55469,0.08008 -0.13476,0.117187 -0.0312,-0.08008 z m 144.93555,0.111328 12.11328,3.294922 -4.52539,6.517578 -0.63867,0.142578 -7.58398,-4.947266 -0.0469,-0.77539 9.45898,1.125 0.0703,-0.583985 -9.56641,-1.136719 -0.13867,-2.222656 z m -145.9707,0.125 0.19922,0.5 -1.7168,1.513672 -0.38477,-0.210938 -0.58984,1.06836 -3.00391,2.65039 -1.44726,-1.447266 1.75195,-2.886718 z m 238.6875,0.214844 -6.55664,7.351562 -0.85547,0.470703 2.22265,-4.966797 -0.18554,-0.08398 -2.33203,5.21289 -18.44141,10.128907 0.30273,0.552734 17.71289,-9.728515 -0.16601,0.36914 -0.38086,0.427734 0.26758,0.238282 1.54101,-1.728516 1.16016,-0.636719 -0.22461,-0.412109 6.20313,-6.957031 z m 12.20703,0.49414 0.0801,0.304688 -1.24024,1.402343 z m 0.89844,0.425781 3.54297,3.039063 -0.19727,1.580078 -0.72656,-1.642578 -0.75782,0.335937 1.28321,2.904297 -0.73047,5.851563 -7.24609,1.816406 -0.17579,-0.589844 0.68555,0.197266 0.0781,-0.277344 -0.86133,-0.246094 -1.49219,-5.003906 0.50977,-0.75 6.43554,-2.943359 0.89063,3.355468 0.51562,-0.136718 -0.91406,-3.44336 1.03516,-0.472656 -0.29297,-0.642578 -0.92578,0.423828 -0.83594,-3.152344 z m -251.25196,0.220703 5.48243,13.699219 -5.22071,0.933594 -1.7207,-3.761719 -0.73633,0.335938 1.63477,3.572265 -9.78907,1.751953 2.34571,-4.255859 2.15039,1.777344 0.29101,-0.353516 -2.21484,-1.832031 3.10351,-5.630859 1.18165,1.18164 0.55273,0.955078 0.11523,-0.06641 -0.30273,-0.523437 3.71484,3.714843 0.35352,-0.353515 -5.04102,-5.041016 -0.25586,-0.443359 1.95313,-3.542969 z m 144.39844,0.220704 0.11914,1.912109 -1.19336,-0.142578 z m 106.24805,0.242187 0.76953,2.896485 -5.48828,2.509765 2.14453,-3.158203 0.33008,0.291016 z m -110.1211,0.425781 0.14454,0.78711 -1.06641,-0.126953 z m 65.66602,0.199219 0.11523,0.322266 -0.375,0.01367 z m -0.4707,0.609375 0.36914,10.759766 -2.36133,-8.183594 z m -258.85157,0.238281 -6.962891,5.21875 0.142578,0.191407 6.962891,-5.220704 z m 194.52344,0.417969 0.97852,0.115234 -0.19336,0.320313 0.48437,0.294922 0.32813,-0.541016 1.56445,0.185547 0.041,0.667969 -1.23828,-0.806641 -0.48243,0.740235 1.78907,1.166015 0.0566,0.921875 0.1914,-0.01172 -0.0156,-0.267578 1.87109,0.730469 4.4082,2.875 -8.26953,1.849609 -0.0586,-0.314453 3.66406,-1.876953 -0.0742,-0.144531 -3.62109,1.853516 z m 70.73633,0.539063 -0.13672,0.0293 1.06055,4.982421 0.13672,-0.0293 z m -219.88086,0.265625 1.33789,1.33789 -1.68945,1.488282 -1.77539,0.68164 z m 3.47852,0.609375 -0.57618,1.042968 -0.20507,-0.355468 z m -0.88086,0.77539 0.23046,0.400391 -0.11914,0.216797 -0.38086,-0.38086 z m 150.01757,0.08399 1.43165,0.933593 -1.35938,-0.529297 -0.041,0.105469 z m 101.06836,0.324218 -0.90039,1.328125 -0.71679,0.326172 -0.10352,-0.347656 z m -251.73047,0.160157 0.50586,0.505859 -3.14648,5.703125 -2.24805,-1.859375 0.0606,-0.02539 -0.0664,-0.154297 -0.13867,0.05859 -0.44726,-0.36914 1.08007,-1.777344 1.28321,-0.492188 -0.15235,0.134766 0.57422,0.650391 1.89844,-1.673829 0.60742,-0.232421 -0.0859,-0.226563 z m 249.27735,1.703125 0.0469,0.152343 -0.61718,0.283203 z m 11.43945,0.359375 3.79883,8.58789 -1.53711,0.04102 -0.25976,-0.181641 -0.13282,0.191406 -2.91601,0.07617 0.006,0.191407 2.77343,-0.07227 -0.0351,0.05078 1.81445,1.263672 -5.08008,2.404297 0.92188,-7.373047 2.21679,-0.55664 -0.15625,-0.617188 -1.97656,0.496094 z m -265.93164,0.332031 -0.68164,1.121094 -0.71094,-0.587891 z m 48.13281,0.0332 -2.35937,2.410156 -2.42969,-0.449219 0.45117,-0.59375 -0.49609,-0.376953 -0.64063,0.84375 -4.89843,-0.90625 z m 193.21485,0.08203 -0.0391,0.04492 0.0137,-0.03125 z m 13.39453,0.0293 0.11328,0.378906 -1.84766,2.720703 0.42383,0.28711 1.61328,-2.375 1.13477,3.802734 -6.62305,-1.898437 1.80469,-1.371094 z m -50.70313,0.191406 -13.01562,12.640621 0.0332,-0.25195 -0.24414,-0.03125 -0.0723,0.55859 -2.9004,2.81836 0.42969,0.44336 2.34571,-2.27734 -0.94141,7.36719 0.24414,0.03125 0.98047,-7.67383 13.57226,-13.181641 z m -136.37109,0.02734 3.59375,0.119141 -4.85547,4.517578 z m -1.08398,0.623047 -1.40235,5.150391 -1.24023,1.15625 z m 141.71679,0.486328 1.12891,0.94336 -3.34766,4.330078 z m -208.80664,0.388672 0.21289,0.175781 -0.42969,0.183594 z m 250.71094,0.357422 -0.90625,0.6875 0.0762,0.101562 -0.55078,-0.158203 z m -207.13086,0.128906 2.36523,0.4375 -4.23632,4.332031 -2.6211,1.146485 z m 120.92578,0.07227 7.02539,4.582031 -10.71484,0.730469 z m -10.68359,0.632812 0.0293,0.16211 -0.61523,0.138672 z m -82.03907,2.96875 -6.14843,3.667969 0.5332,-1.960937 z m 172.47461,0.876953 1.85352,0.05469 -4.83008,4.998047 z m -226.93554,0.09375 2.62695,6.564451 -6.66016,-3.138669 -1.14453,-2.5 z m 47.84961,1.039063 -0.62891,2.308594 -5.79492,3.457034 6.08984,-5.664066 z m -53.85157,0.0332 0.83399,1.820313 -3.0293,-1.427735 z m 258.99805,0.378906 0.43945,0.992188 -0.25195,0.11914 -1.54297,-1.074218 z m -261.58203,0.08398 -0.0547,0.117187 3.70313,1.744141 1.0332,2.259766 -4.38086,-1.796876 -0.15625,0.384766 4.78906,1.96289 0.38868,0.84961 -15.08204,-1.04688 1.66993,-3.029292 z m 120.25781,0.15039 -0.0234,0.38086 13.89454,0.83789 0.0234,-0.380859 z m -158.945314,1.03125 0.296875,0.0957 -0.621094,0.238282 z m 175.101564,0.294922 -10.48242,0.947266 0.0273,0.287109 10.48047,-0.947265 z m 146.85547,0.0098 -6.15039,3.140626 0.0859,0.16797 6.15039,-3.140628 z m -320.552737,0.148437 4.707031,1.517578 -3.52539,2.125001 -6.503907,-1.605469 z m 42.066407,0.761719 6.62696,3.12109 0.65039,1.62696 -1.8086,-0.74024 0.0391,-0.53906 -1.62891,-0.11328 -2.88477,-1.18164 z m 120.40235,1.6582 -1.25391,6.68164 0.18164,0.03516 1.25586,-6.68164 z m -183.552742,0.33399 -3.580078,1.9707 v 0.3418 l 3.72461,-2.05078 z m 126.732422,0.3125 -1.08007,4.37109 0.11914,0.0293 1.08007,-4.3711 z m -62.33593,0.41992 1.31836,0.54101 -1.10547,-0.07812 z m 272.04687,0.17773 -1.85156,5.37696 0.14648,0.05078 1.85157,-5.37696 z m -78.95117,3.91407 -0.73242,0.24023 1.38281,4.19336 -4.27539,-2.69336 -0.28125,0.44727 4.81641,3.0332 3.06836,9.30664 -1.04883,2.763672 -4.70313,4.76172 -1.74023,-2.24219 -0.0742,-0.46093 -14.58594,2.36523 -7.65625,-0.70898 -0.0215,0.23632 6.73828,0.62696 -12.73047,2.06445 0.125,0.77344 28.23828,-4.58203 1.58984,2.04687 -3.92578,3.97461 0.41211,0.40625 3.8711,-3.91992 1.38086,1.77539 0.13086,-0.10156 -1.39258,-1.79297 3.83593,-3.88477 -2.60546,6.875 -3.89649,2.125 0.20899,0.38086 3.45117,-1.88281 -2.61328,6.88867 0.64257,0.24414 2.68946,-7.08984 0.20312,0.1582 0.95313,-1.22656 4.56836,-2.49414 -8.06055,14.78515 -4.37891,-2.19726 -0.11328,0.22851 4.36914,2.19336 -5.98437,10.97657 0.77734,0.42578 6,-11.00391 3.21289,1.61328 0.11524,-0.23047 -3.20508,-1.60742 4.95508,-9.08789 5.38476,0.082 -9.29687,16.13086 0.68164,0.39258 9.51562,-16.50977 2.51368,0.0391 0.73046,0.13086 2.70899,1.5332 -3.44336,4.48828 -1.22461,-3.11328 -0.36328,0.14258 1.31055,3.33203 -0.29688,0.38672 0.22461,0.17187 0.19336,-0.25195 3.60352,9.1543 -13.2168,9.60937 -5.23828,-5.64844 -0.32618,0.30274 5.20313,5.60937 -2.22656,1.61914 0.43359,0.59766 2.29688,-1.66992 2.28125,2.45898 -8.46289,2.48438 0.14648,-0.33008 -0.4043,-0.17969 -0.29882,0.67383 -0.0117,0.004 -7.44727,-2.35352 -0.17969,0.57422 6.59375,2.08203 -15.52734,4.56055 0.22266,0.75976 15.92968,-4.67968 -3.03125,6.85351 -5.47265,-1.60351 -0.16211,0.55273 5.39844,1.58203 -2.52735,5.71289 0.40235,0.17969 2.55273,-5.76758 14.32812,4.19727 0.16016,-0.55274 -14.25195,-4.17578 3.16015,-7.14062 0.17188,-0.0508 13.00391,4.10743 0.17968,-0.57227 -12.15039,-3.83789 8.2793,-2.43164 2.44336,2.63477 0.32617,-0.30274 -2.29297,-2.47266 1.27735,-0.375 -0.22266,-0.75976 -1.65625,0.48633 -2.39453,-2.58203 12.38672,-9.00977 -0.5293,1.50391 0.25,0.0879 0.6582,-1.86719 5.70508,-4.14844 5.12695,0.93164 6.66211,7.90821 0.51172,-0.43164 -6.14062,-7.28907 12.27539,2.22852 0.12695,-0.70508 -13.125,-2.38281 -6.91602,-8.20899 0.90626,-0.14843 6.17968,3.49414 -1.11718,1.12109 0.36328,0.36133 1.21484,-1.2207 3.20312,1.81054 0.36329,-0.64258 -3.02539,-1.71093 3.65429,-3.66992 7.51953,0.33398 -0.28515,0.80859 -2.94336,3.76758 0.60156,0.46875 1.54688,-1.98047 -0.91797,2.60742 0.3457,0.1211 1.2793,-3.63281 1.64453,-2.10352 2.1582,0.0957 0.0137,-0.30664 -1.93945,-0.0859 4.83594,-6.18945 4.91797,-1.94336 -0.1836,-0.46679 -4.12304,1.6289 7.57617,-9.695312 -0.60157,-0.4707 -8.37695,10.718752 -3.26953,1.29296 0.51172,-1.45312 -0.3457,-0.12109 -0.61719,1.75195 -6.06641,2.39648 -0.99804,0.16407 0.6914,-0.69532 1.17969,0.1836 0.0215,-0.13281 -1.08398,-0.16797 4.67969,-4.70118 -0.36328,-0.36132 -4.94141,4.96484 -3.13281,-0.48828 -0.0195,0.13281 3.03515,0.47266 -0.93164,0.93359 -11.91016,1.95508 -4.83203,-2.73242 1.79102,-2.33399 -0.22461,-0.17187 -1.81445,2.36523 -1.84375,-1.04101 1.97851,0.0293 0.004,-0.35351 -2.625,-0.041 -2.83008,-1.59961 3.72656,-6.46484 -0.68164,-0.39258 -3.72851,6.4707 -2.04493,-1.15625 -1.06445,-3.23046 0.16992,-0.3086 2.52344,-1.3789 -0.20703,-0.37891 -1.93555,1.05664 0.28907,-0.5293 -0.7793,-0.42578 -0.44141,0.8086 -0.66992,-2.03321 5.40625,-6.953122 0.76953,0.48437 0.28125,-0.44726 -0.72656,-0.45703 8.2207,-10.57422 -0.69336,-0.54102 -8.27343,10.64453 -9.55469,-6.01953 z m -172.46289,0.60547 -4.92578,2.48828 -1.28906,-1.3711 -0.41602,0.39063 1.17383,1.24804 -9.23633,4.66602 0.20312,0.40234 9.35547,-4.72656 1.33203,1.41797 -3.33007,0.93359 0.13867,0.49414 3.58789,-1.00585 11.05273,11.751952 0.41602,-0.390632 -10.84961,-11.53711 7.89258,-2.21484 -1.20703,5.71484 0.1875,0.03907 1.22851,-5.8125 5.68946,-1.59571 -0.13868,-0.49218 -5.43164,1.52343 0.10743,-0.50586 -0.1875,-0.04101 -0.12891,0.60547 -8.4082,2.35937 -1.41993,-1.51172 4.80664,-2.42773 z m 82.22461,0.125 -0.0703,0.10742 3.89843,2.53515 0.0703,-0.10547 z m 77.50391,0.1914 -9.20508,6.88281 0.1875,0.25196 9.20508,-6.88282 z m -218.277354,0.73633 -17.316405,4.04687 0.109375,0.47461 17.31836,-4.04687 z m 166.263674,0.22266 -6.44726,5.9414 0.16211,0.17774 6.44726,-5.94336 z m 146.60742,0.6914 -2.14453,3.11719 0.0859,0.05859 2.14453,-3.11718 z m -189.88476,0.19336 -0.25977,1.05274 -0.60547,-0.64844 z m -1.72266,0.80469 1.20703,1.29101 -0.51562,2.10157 -3.36719,-1.08594 0.35742,-1.22266 z m -110.445314,0.06445 -2.40625,2.79297 0.07617,0.06641 2.40625,-2.79297 z m 107.925784,1.11328 -0.3164,1.07813 -0.13282,-0.04297 -0.0645,0.20312 -0.44727,-0.78906 z m -148.80469,0.03711 v 1.36914 l 5.273438,7.20508 -5.273438,6.748052 v 0.78711 l 5.570313,-7.128912 10.583984,14.458992 0.652344,-0.47852 -5.707031,-7.79688 8.433594,-4.402342 -0.13086,-0.24805 -8.470703,4.421882 z m 21.638672,0.0039 -5.238281,8.90625 0.244141,0.14453 5.238281,-8.90625 z m 131.062508,0.25195 2.86914,3.06836 -3.35742,-1.08203 z m -5.36328,0.39258 0.83398,1.47266 -0.33008,1.125 0.16016,0.04687 0.28515,-0.96875 5.29883,9.35742 0.48438,-0.27539 -5.30274,-9.36328 3.04102,0.98047 -0.36328,1.47461 0.20117,0.04883 0.35937,-1.46094 4.78516,1.54297 5.22656,5.58984 -3.69336,4.646492 -0.29882,-2.21094 -0.16211,0.0234 0.31835,2.36718 -3.51367,4.41797 -2.73437,-1.57031 1.50781,-1.98633 -0.41406,-0.31445 -1.54688,2.04102 -1.33007,-0.76368 0.15039,-0.3789 -2.58399,-1.01953 -1.0957,-0.62891 -0.70313,-1.60938 -0.24609,0.10743 0.55859,1.27734 -2.57031,-1.47656 3.43945,-5.994142 1.33789,-0.22071 -0.1289,-0.79101 -0.78125,0.1289 -0.16406,-0.09375 -0.0762,0.13282 -14.08984,2.3125 0.56836,-0.37305 -0.29492,-0.44727 -1.57227,1.03516 -0.71484,0.11719 -0.86328,-0.3418 6.40234,-2.99219 -2.99414,2.52149 0.20898,0.24609 3.90821,-3.29297 z m 115.66796,0.43359 8.96875,5.65039 -4.99023,6.417972 -0.70117,-2.128902 4.25781,-4.3125 -0.41211,-0.40625 -4.05078,4.10156 -0.25195,-0.76953 1.75781,-4.63672 -0.64258,-0.24414 -1.45703,3.84375 z m -179.38086,1.10352 -4.5996,5.99219 0.16406,0.12695 4.59961,-5.99414 z m -15.19531,0.19531 -0.37695,0.12305 4.19336,12.992192 -1.875,3.00586 0.16601,0.10351 1.78907,-2.86523 0.17578,0.54687 0.37695,-0.12109 -0.2793,-0.86524 1.73243,-2.77343 -0.16797,-0.10352 -1.64258,2.63281 z m -16.82617,0.51172 -13.425784,12.646482 -3.7168,-8.966792 -0.24609,0.10351 3.74023,9.029302 0.08203,-0.0332 -0.49414,0.46484 -0.75586,-0.16601 -0.24609,1.10937 -0.36133,0.33984 -0.11719,-0.33984 -0.54687,0.18945 0.20312,0.58399 -1.125,1.06054 0.4375,0.4668 0.91797,-0.86523 0.16602,0.47851 -0.3418,1.53125 -10.88867,4.49024 6.4668,-3.98828 -0.33399,-0.54102 -9.347654,5.76367 -10.183594,-2.06054 -0.115234,0.57421 9.472656,1.91797 -5.046875,2.08008 0.248047,0.60156 1.742188,-0.71875 -1.853516,1.14258 -4.597656,-2.0664 -0.173828,0.38476 4.335937,1.95117 -4.228515,2.60742 0.333984,0.54102 4.595703,-2.83398 9.03125,4.0625 0.173828,-0.38672 -8.769531,-3.94336 4.806641,-2.96485 0.548828,-0.22656 5.960937,1.20703 -0.439453,8.65039 -2.648437,4.9668 0.388672,0.20703 6.916012,-12.9707 0.14649,0.0293 0.09765,-0.49024 0.39453,-0.73828 -0.38867,-0.20703 -0.41406,0.77539 -3.701171,-0.75 0.126953,-2.49024 -0.324219,-0.0156 -0.125,2.44141 -5.019531,-1.01563 12.640628,-5.21094 -0.86914,3.90625 -2.27149,-1.32226 -0.32226,0.55469 2.44922,1.42382 -4.48633,20.16797 0.82422,0.1836 4.42773,-19.90625 4.14062,2.4082 1.35352,3.89648 -0.24805,0.2461 0.50586,0.51367 0.0059,-0.004 1.35352,3.89649 0.54687,-0.18946 -1.44531,-4.1582 1.91211,-1.88476 1.44727,0.84375 0.06445,0.2871 0.3125,-0.0683 7.050784,4.09961 0.32227,-0.55469 -6.445324,-3.74805 14.195324,-3.11914 -0.0918,-0.42188 -14.658204,3.21876 -1.72461,-1.00391 1.98437,-1.95508 21.224614,-8.40039 -0.2793,-0.70508 -19.562504,7.74219 12.562504,-12.38086 -0.50781,-0.51563 -13.771484,13.57618 -3.68164,1.45703 -1.98047,-1.15235 -2.65235,-7.62695 0.7168,-0.29492 -0.24805,-0.60156 -0.68164,0.28125 -0.19336,-0.55469 0.50586,-2.27344 L 102.703,91.208788 Z m 12.57812,0.12305 -0.58789,0.15429 5.63672,21.460942 0.58789,-0.1543 z m 268.22266,0.5957 -0.0176,0.16992 6.22657,0.66211 0.0176,-0.16992 z m -123.4043,0.5918 -17.82617,3.65039 0.10157,0.48828 17.82617,-3.65039 z m -50.44726,0.99414 2.29492,0.73828 -0.0312,0.14258 1.43359,0.31054 2.24024,0.72071 -1.90625,2.39844 z m -36.58008,1.0332 7.15234,2.82227 -0.0508,0.24023 -2.11718,0.34766 -7.19141,-2.28516 z m 174.73438,0.71485 -11.73243,8.048822 -1.23242,-6.169922 -0.39258,0.08008 1.26563,6.335942 -0.96289,0.66015 -4.45117,-2.52734 -0.10547,0.18555 4.36133,2.47656 -4.20508,2.88476 0.32812,0.47852 4.4375,-3.04492 0.92578,0.52539 1.27149,6.36523 0.39258,-0.0781 -1.20313,-6.02539 0.43555,0.24804 0.10547,-0.18554 -0.59766,-0.33985 -0.25,-1.25 11.9375,-8.189452 z m -68.65821,0.24414 -0.20508,0.24023 -0.41601,-0.14063 z m -81.27539,0.0098 -3.33398,5.814452 -7.12891,-4.095702 z m 18.56836,0.18555 2.26758,0.73047 1.08398,1.05078 -3.72265,2.89258 -1.8086,-1.9336 z m -35.47266,0.75195 0.16602,0.35742 -0.22461,-0.08984 z m 41.0293,0.12305 17.37305,3.75781 0.19726,0.376952 -12.02148,3.44922 -6.81836,-6.599612 0.43555,-0.33789 8.17187,2.63477 0.26563,-0.82617 -7.60742,-2.45118 z m -2.00976,0.26953 0.44336,0.14062 -0.16407,0.12891 z m -32.74219,0.41406 -0.35938,0.625 6.63868,3.814462 -9.78907,-3.863292 z m 75.98242,0.47266 -3.17969,7.968752 0.004,-0.0176 -0.11523,-0.0234 -0.14454,0.6836 -0.48828,1.22265 0.21094,0.084 -0.46094,2.17578 0.11328,0.0234 0.52539,-2.47461 3.80469,-9.535162 z m 20,0.23047 3.81836,1.28711 -9.69531,6.773432 z m -101.87695,0.26562 -0.79492,0.52344 -0.0742,-0.02344 0.0801,-0.37109 z m -1.35742,0.22266 -0.0234,0.11328 -0.22852,-0.07227 z m 216.98046,0.55664 -8.75,6.810552 0.18555,0.24023 8.75195,-6.812502 z m -80.48242,0.08789 0.0781,0.24023 -0.27539,0.2793 z m -102.79492,0.05859 1.66016,1.773442 -5.64649,4.38672 -0.13281,-0.98047 z m 103.07617,0.79883 0.74219,2.246102 -4.29883,5.52929 2.57031,-6.77734 z m 67.89844,0.46094 -13.75391,14.414062 -2.96484,0.76758 0.14453,0.55859 2.06641,-0.53515 -4.69336,4.91797 0.55273,0.52539 5.53907,-5.80469 9.57421,-2.48047 -11.27539,7.23828 0.42383,0.66016 13.2832,-8.52735 0.80079,-0.20703 -0.54102,0.39844 0.13281,0.17969 0.98633,-0.72852 3.52148,-0.91211 -0.14453,-0.55859 -2.13476,0.55273 4.22461,-3.11914 3.96289,-2.54492 -0.42188,-0.66016 -11.26172,7.23047 -10.375,2.68555 12.9043,-13.52344 z m -221.61523,0.945312 -1.18946,16.65039 -0.92968,0.60352 0.0625,0.0937 0.85742,-0.55664 -0.17188,2.41601 0.52735,0.0371 0.20117,-2.81445 2.02539,-1.31445 -0.0606,-0.0937 -1.95508,1.26757 1.16016,-16.25195 z m 52.73632,0.0352 1.44532,1.54492 -0.25,6.60156 -4.97461,0.0781 2.00781,-5.94727 -0.32031,-0.10937 -2.04883,6.0625 -2.60352,0.041 -2.24218,-1.28906 2.85156,-2.21484 0.10156,0.75781 0.16406,-0.0215 -0.11523,-0.85351 z m -145.603516,0.47656 -0.04492,0.0918 3.34375,1.64257 0.04687,-0.0898 z m 32.179696,0.49805 -13.597664,4.97461 0.13672,0.37109 13.597654,-4.97266 z m -32.541024,0.16992 -3.636719,0.37305 0.0098,0.0996 3.636719,-0.37305 z m 248.017584,0.66601 0.73437,2.22852 -0.002,0.004 -4.28516,2.33789 z m 17.99219,0.97071 0.15039,0.74414 -0.67578,-0.38477 z m -137.52735,0.33008 0.32227,0.12695 3.44336,1.97851 -1.80664,2.38086 z m 11.125,0.006 0.12305,0.91992 -2.23047,1.73242 z m -131.046877,1.21093 -0.08984,0.0762 2.781247,3.24219 0.08985,-0.0762 z m 71.220707,0.79297 -3.30273,9.64453 -0.1543,-0.19531 -4.11914,3.25586 0.10742,-0.33398 -0.58203,-0.18946 -0.39063,1.20703 -3.04296,2.4043 1.18945,-5.61523 2.23242,-3.0586 0.19922,-0.0156 -0.0176,-0.23242 3.31445,-4.54102 z m 169.35156,0.0742 0.85157,2.57617 -0.0723,0.12695 0.13867,0.0781 0.36524,1.10742 0.73046,-0.24219 -0.0996,-0.30078 1.33203,0.75196 -0.56641,0.98242 -0.67188,-0.1211 -0.0254,0.14063 0.6211,0.11328 -0.0937,0.16211 -5.39649,-0.082 z m -57.17969,0.32617 -0.13671,9.91797 0.27148,0.004 0.13672,-9.91797 z m 136.0293,0.19531 -16.76758,12.30079 0.45899,0.62695 16.30859,-11.96484 z m -208.23633,1.07422 -4.24804,24.57813 0.67383,0.11523 4.24804,-24.57812 z m 16.40821,0.66992 1.45312,0.83594 -2.14453,0.0332 z m -118.130864,0.28711 2.41797,6.96094 -3.67188,-2.13476 1.05469,-4.74414 z m 286.837894,0.1875 -8.51563,6.15821 -1.85937,-1.39649 -0.082,0.10938 1.82617,1.37109 -7.18359,5.19336 -0.11719,-0.5664 6.48242,-4.36329 -0.30469,-0.45117 -6.29883,4.24024 -1.23047,-5.88086 -0.3457,0.0723 1.25977,6.02149 -9.87305,6.64648 0.30469,0.45117 9.68945,-6.52343 0.1211,0.58007 -0.54102,0.39063 0.33008,0.45508 0.33594,-0.24414 1.01757,4.85937 0.34571,-0.0723 -1.04883,-5.01368 7.52734,-5.4414 1.69336,1.26953 0.082,-0.10938 -1.6582,-1.24414 8.37305,-6.05468 z m 12.84961,0.26954 -1.92774,1.42382 -0.48632,0.125 z m -260.41602,0.20507 4.99219,3.69532 -8.77344,0.70117 z m 84.39258,0.22461 -0.29883,0.88282 -1.48633,-0.85547 z m 145.0918,0.93946 -4.3711,5.59375 -0.0781,-0.002 1.56836,-4.45312 z m -33.7168,0.10547 1.6582,0.9375 -1.11914,-0.0156 -0.96679,-0.17578 z m -0.50391,0.87695 0.16993,0.0312 -0.18555,-0.004 z m 30.88868,0.33398 -1.5,4.25781 -7.33399,-0.32617 1.2793,-1.2832 0.0625,-0.0117 0.11133,0.2793 1.28515,-0.50781 3.03516,-0.49805 -0.0957,-0.58203 -0.35157,0.0566 z m -212.72071,1.42969 -0.85937,1.17578 0.23828,-1.12695 z m 187.81641,0.45898 1.63281,0.92383 -0.10351,0.0859 1.29296,1.53516 -2.34765,0.38476 0.0957,0.58203 2.69531,-0.4414 6.65039,7.89453 -3.84179,-0.69727 -0.33008,-0.45312 -0.43164,0.31445 -3.54492,-0.64258 0.60351,-1.71093 -0.25,-0.0879 -0.61718,1.75 -3.16407,-0.57421 -0.0801,0.44531 -1.83203,-4.6543 z m -172.19727,0.0879 -0.52734,0.22265 5.72266,13.54883 0.041,0.56641 -2.52148,3.96093 -9.20899,0.66407 0.043,0.60742 8.75781,-0.63086 -0.0273,0.043 0.13672,0.0879 0.0918,-0.14453 4.72265,-0.33985 0.38477,0.91211 0.52734,-0.22265 -0.30859,-0.73243 7.92578,-0.57031 -0.0449,-0.60937 -8.13282,0.58593 -2.30859,-5.46679 -0.13867,-1.88868 -0.16992,0.0137 0.10156,1.38476 z m 188.68164,0.8125 -4.82422,4.8457 -5.55664,-3.14258 9.78321,-1.60547 -4.42969,4.54297 0.12695,0.12305 4.51563,-4.63086 -0.0606,-0.0586 z m -223.23437,0.15234 -1.57617,1.83398 -4.35547,-1.30273 0.0293,-0.0605 z m 209.7207,0.62695 1.15235,0.65235 -0.5293,0.0859 z m -280.24219,0.0664 v 1.50976 l 1.388672,2.00586 0.707032,-0.48828 z m 277.17969,0.26367 -0.0996,0.041 1.44922,3.59375 0.0977,-0.041 z m -248.906252,0.31641 3.443358,0.69726 -3.845702,7.21485 z m 36.904302,0.5957 -1.69336,5.26953 0.14453,0.0469 1.69336,-5.26954 z m -24.916024,0.38476 0.89844,0.52149 -0.01758,0.008 0.2793,0.70508 0.57422,-0.22656 0.83594,0.48633 -1.52735,1.50585 z m 3.95703,0.12696 -0.91211,0.90039 -0.55273,-0.32031 z m 42.904304,0.58203 -1.0293,4.85547 -1.24804,0.98828 -1.47071,0.004 -0.17773,-1.13282 0.31641,0.23047 z m -84.375003,0.36328 -0.453125,1.67188 -0.662109,-0.13477 -0.03125,0.15625 0.650391,0.13281 -0.263672,0.97266 -1.988282,-1.30274 v 0.61719 l 1.845704,1.20899 -1.845704,6.79101 v 2.66797 l 0.08984,-0.33008 8.046875,2.10742 -4.033203,6.26172 -0.351562,-0.11132 -0.40625,1.2871 -3.1875,4.94727 -0.158204,-0.0293 v 1.61133 l 0.71875,-1.11523 0.869141,0.16015 -1.587891,5.0293 v 2.95898 l 0.273438,-0.86328 0.308594,0.82227 13.367187,-5.02344 5.859375,4.42383 -2.517578,4.08789 -3.291016,-5.52539 -0.03125,-0.12695 -0.03906,0.01 -0.355469,-0.59765 -0.271484,0.16015 0.423828,0.71094 1.972656,7.95312 -2.753906,4.47071 -1.955078,1.82031 -9.88086,-1.55664 -0.685547,-5.33008 7.371094,-3.24609 -0.289062,-0.65821 -7.175782,3.16211 -0.330078,-2.56054 v 4.06836 l 0.576172,4.48046 -0.576172,-0.0918 v 0.68164 l 0.666016,0.10547 0.75,5.83203 -1.416016,0.32812 v 0.82227 l 6.00586,-1.39844 -2.867188,2.66992 -0.355468,-0.26953 -0.09961,0.13281 0.332031,0.25196 -3.015625,2.80664 v 0.96289 l 3.583985,-3.33594 3.894531,2.96289 0.09961,-0.13086 -3.871093,-2.94726 7.541015,-7.01953 0.119141,0.0195 -0.376953,0.61133 0.533203,0.32812 0.513672,-0.83398 1.091797,0.17187 0.103515,-0.66601 -0.8125,-0.12891 0.857422,-1.39063 1.779297,-1.65625 -0.457031,-0.49023 1.310547,-2.12891 0.421875,1.69727 0.292968,-0.0742 -0.492187,-1.98242 1.333984,-2.16406 1.722657,2.89257 0.269531,-0.1621 -1.806641,-3.03321 2.658203,-4.3164 7.875,5.94335 0.427735,-0.5664 -7.927735,-5.98438 0.107422,-0.17382 4.992188,3.71093 0.207031,-0.27929 5.339848,2.44726 8.33007,9.34766 -13.568356,2.91406 0.15625,0.72461 21.273436,-4.56836 -11.50976,10.35156 0.58007,0.64649 12.52735,-11.26758 0.263675,0.11914 -0.453135,11.44531 -6.25781,-0.0781 -0.01172,0.83203 6.23633,0.0781 -0.23437,5.94727 -3.60352,9.30469 -10.6543,-6.01172 -0.20117,-2.75781 -0.85547,0.0625 0.16016,2.18945 -2.17773,-1.22852 0.68945,-3.57617 -0.70899,-0.13672 -0.64453,3.33789 -4.185544,-2.36132 11.072264,-12.09376 -0.49609,-0.45312 -10.619142,11.59961 -1.677735,-0.96094 6.259767,-5.81055 -0.33594,-0.36328 -6.373046,5.91602 -7.044922,-4.03516 -0.224609,-1.72461 -0.496094,0.0645 0.175782,1.34765 -4.125,-2.36132 -0.220703,0.38867 4.417968,2.53125 1.246094,9.60937 -0.607422,0.56445 0.337891,0.36329 0.347656,-0.32227 0.779297,6.00195 0.496094,-0.0644 -0.824219,-6.35547 4.951172,-4.59765 1.810547,1.01953 -4.794922,5.23828 0.49414,0.45312 4.900391,-5.35156 4.578125,2.58203 -2.355469,12.19727 -7.251953,1.61133 -0.238281,-0.6836 -0.05273,0.0176 0.841797,-0.54492 -0.464843,-0.71485 -4.478516,2.90039 -0.357422,0.0801 0.0293,0.13282 -6.595703,4.27343 0.585937,-3.07226 4.429688,-0.72266 -0.0332,-0.19531 -4.357422,0.71094 1.824219,-9.55078 -0.564453,-0.10743 -0.53711,2.81055 -0.02148,-0.01 -2.871094,6.92383 0.189453,0.0781 2.535156,-6.11328 -1.158203,6.0664 -2.11914,0.34571 0.03125,0.19531 2.048828,-0.33399 -0.650391,3.40625 -1.537109,0.9961 -4.63086,-6.31055 3.486328,1.58594 0.04688,-0.0996 -3.667969,-1.66992 -0.941407,-1.28321 2.041016,-2.66015 -0.644531,-0.49414 -1.896485,2.47265 -0.429687,-0.58593 1.873047,-10.33789 3.193359,-0.0137 -0.002,-0.54882 -3.091797,0.0137 0.664063,-3.66407 -0.708985,-0.12695 -0.6875,3.79492 -1.984375,0.01 v 0.54687 l 1.884766,-0.008 -1.728516,9.5332 -0.15625,-0.21289 v 0.97852 l 0.01367,0.0195 -0.01367,0.0762 v 4.04102 l 0.154297,-0.85156 1.152344,-1.50391 5.587891,7.61328 -6.894532,4.4668 v 1.01562 l 7.400391,-4.79297 0.900391,1.22852 -0.767578,4.02148 0.564453,0.10743 0.667968,-3.4961 1.320313,1.79883 0.466797,-0.34375 -1.638672,-2.23242 0.449219,-2.35742 8.238281,-5.33399 3.191406,-0.71094 2.134766,6.09571 -7.980469,9.92578 0.273438,0.21875 h 0.04492 l 7.8125,-9.7168 0.837891,2.39258 0.275391,-0.0957 -0.898438,-2.56446 0.765625,-0.95117 -0.300781,-0.24023 -0.613281,0.76367 -2.0625,-5.89063 6.960937,-1.54687 -1.730469,8.96484 0.708985,0.13672 1.791015,-9.27344 5.468746,-1.21484 1.34375,18.47266 0.85743,-0.0625 -1.35547,-18.59766 0.31445,-0.0703 -0.11719,-0.52344 -0.23632,0.0527 -0.61329,-8.42187 10.29688,5.80859 -1.1582,2.99024 0.59765,0.23047 1.125,-2.90235 0.1211,0.0684 0.39062,-0.6914 -0.22266,-0.125 3.62305,-9.35743 0.07227,0.004 0.0078,-0.21094 1.400394,-3.61523 -3.019534,16.36328 0.49023,0.0898 3.296884,-17.86328 -0.20703,-0.0371 0.35156,-0.9082 11.18164,0.14062 -0.58984,2.67383 -11.62696,15.79493 0.47852,0.35351 10.83203,-14.71875 -0.82227,3.73242 0.42579,0.0937 1.03515,-4.69336 1.42188,-1.93164 -0.47852,-0.35156 -0.62891,0.85352 0.39844,-1.80079 9.75196,0.12305 0.01,-0.83203 -9.58008,-0.12109 1.5,-6.79883 -0.42578,-0.0957 -1.51953,6.88867 -11.04101,-0.13867 0.69726,-1.80274 -0.59766,-0.23242 -0.78515,2.02734 -1.67969,-0.0215 0.44141,-11.1543 4.66406,2.13672 0.36523,-0.79492 -4.62695,-2.11914 2.22461,-0.47852 -0.1543,-0.72461 -2.17773,0.4668 3.50586,-3.15234 4.42187,0.041 0.002,-0.25976 -4.13672,-0.0391 6.01172,-5.4082 -0.58008,-0.64453 -6.71485,6.04101 -1.36328,-0.0137 8.51758,-11.38281 -0.33398,-0.24805 -8.69922,11.62696 -0.73047,-0.008 0.0488,-1.21289 -0.66602,-0.0273 -0.0488,1.23437 -0.808594,-0.008 -0.0019,0.26172 0.800784,0.008 -0.11133,2.82422 -0.476564,0.42774 -0.92774,-0.42383 -0.02148,-0.0547 -0.05274,0.0215 -16.67968,-7.64257 -5.412112,-6.07422 0.533203,-7.52344 4.267579,-1.60351 -0.3086,-0.82422 -3.89062,1.46093 0.222656,-3.15234 -0.335937,-0.0234 -0.234375,3.30664 -11.267578,4.23438 -3.72461,-2.76758 2.396485,-1.0293 -0.429688,1.85352 0.671875,0.1543 0.542969,-2.34571 3.892578,-1.66992 -0.154297,-0.35742 -3.628906,1.55664 1.832031,-7.91797 2.402344,0.62891 0.216797,-0.83399 -2.423828,-0.63476 2.996093,-12.94922 -0.671875,-0.1543 -0.78125,3.37695 -7.173828,1.49219 -1.09375,-2.9375 -0.111328,0.041 1.087891,2.91992 -1.015625,0.21094 -7.091797,-4.64453 0.335937,-1.23829 4.410157,0.89454 0.03125,-0.15821 -4.398438,-0.89062 0.441406,-1.62696 z m 177.771493,0.2793 -7.30664,19.9082 -8.67188,4.01953 0.88086,-1.19726 -0.64648,-0.47657 -1.75,2.37696 -0.94141,0.43554 -5.91992,-3.15625 1.96289,-2.25976 -0.40235,-0.34961 -2.04297,2.35156 -4.38085,-2.33594 -0.33399,-0.98437 6.85156,0.16211 0.0176,-0.75586 -7.1289,-0.16797 -0.13868,-0.41211 0.0684,-1.7832 -0.3125,-0.0117 -0.0371,0.96875 -1.47656,-4.3418 -0.72461,0.2461 1.80664,5.31445 -1.99023,-0.0469 -3.67578,-1.96093 -0.30078,0.5625 2.55859,1.36523 -9.05469,-0.21484 0.19336,-0.36524 -5.75391,-3.07226 1.98047,-9.1543 -0.47656,-0.10352 -1.95312,9.01758 -14.1875,-7.57617 -0.29883,0.55859 14.34765,7.66016 -0.62304,2.875 -0.42774,-0.01 -0.0176,0.75586 0.2832,0.006 -0.89649,4.13868 0.47852,0.10351 0.91601,-4.23047 16.97266,0.40235 2.19922,1.17187 -0.28711,7.38086 0.31445,0.0117 0.2793,-7.22852 0.14258,0.0762 1.9082,5.61132 -7.57812,8.7168 0.40234,0.35156 7.37305,-8.48437 1.03906,3.05664 -4.82617,2.23633 0.31054,0.66992 4.75586,-2.20508 1.64063,4.82813 -6.01563,1.73437 0.21094,0.72656 5.25977,-1.51758 -1.90625,2.58985 -6.45899,-1.69336 -1.91601,-2.1582 -0.1211,0.10937 1.75391,1.97461 -8.7793,-2.30078 -0.18945,0.7207 9.85938,2.58203 1.30859,1.47461 0.12109,-0.10937 -1.14648,-1.29102 5.09375,1.33594 -2.57227,3.49219 -6.42968,1.43945 0.1914,0.84961 5.45117,-1.2207 -1.98242,2.69336 0.64844,0.47656 2.53125,-3.4375 5.43359,-1.2168 -4.40429,3.25781 0.52929,-1.91601 -0.17383,-0.0469 -0.58984,2.13477 -1.72656,1.27734 0.38476,0.51953 1.0625,-0.78515 -0.88281,3.1914 0.17383,0.0488 0.94336,-3.41406 5.69531,-4.21094 4.16992,0.60742 -5.78711,5.03125 0.40235,0.4629 6.18554,-5.37891 13.46289,1.95898 0.082,-0.57422 -12.9668,-1.88476 0.68945,-0.59961 0.53125,0.13867 0.1875,-0.71875 -0.041,-0.01 1.33789,-1.16407 9.63867,-2.1582 -0.18945,-0.84961 -8.06641,1.80664 6.05078,-5.26172 -0.40234,-0.46289 -6.90821,6.00586 -5.07421,1.13672 -0.52735,-0.13867 9.23047,-6.82617 -0.38477,-0.51953 -9.64843,7.13476 -4.94336,-1.29492 1.97656,-2.6836 1.07227,3.1543 0.72461,-0.24609 -1.17969,-3.47266 13.4375,-3.875 -0.28516,0.77344 0.23633,0.0879 0.34961,-0.94922 6.04297,-1.74219 -0.20899,-0.72851 -5.50976,1.58984 2.49609,-6.79101 -0.23633,-0.0879 -2.56054,6.96484 -13.28321,3.83203 1.56055,-2.12109 -0.25586,1.24023 0.17383,0.0371 0.33594,-1.61914 3.94922,-5.36328 1.6582,0.88476 0.30078,-0.56445 -1.57617,-0.8418 0.38476,-0.52148 9.22071,-4.27539 -1.55469,4.23828 0.6875,0.25195 9.22461,-25.125 z m 144.0625,1.36914 -0.3086,0.55078 6.4668,3.63086 -1.27149,3.86133 -6.0332,-6.70313 -0.57617,0.51758 6.33008,7.03516 -0.16797,0.51171 -2.96875,0.69727 0.16797,0.71484 2.53125,-0.5957 -1.64453,4.99805 -14.23829,6.73242 0.2129,0.44922 16.4375,-7.77149 -0.2129,-0.44921 -1.6875,0.79882 1.60157,-4.86718 0.88086,-0.20704 5.47461,6.08399 -3.49024,9.13086 -4.46289,-2.20899 -0.34961,0.70508 4.53125,2.24219 -0.006,0.0156 0.16016,0.0625 12.49023,6.18164 -10.58008,2.94531 -1.10937,0.15625 0.0703,-0.21094 -0.37695,-0.125 -0.13281,0.39844 -9.1543,1.29101 4.44727,-6.26757 -0.39454,-0.28125 -4.71093,6.64062 -10.12696,1.42773 0.11328,0.8086 9.36329,-1.32031 -4.88477,6.88671 0.39453,0.2793 5.15039,-7.25976 1.70117,-0.23828 -0.29296,0.29687 1.0332,1.01758 -1.91797,2.85351 0.0898,0.0606 1.90821,-2.83594 3.96289,3.90235 -8.69532,1.82031 0.0684,0.32227 8.90821,-1.86524 0.40039,0.39453 -1.79492,5.40235 0.375,0.125 1.73437,-5.21875 2.47266,2.43554 -2.56836,3.98438 -2.00195,1.57812 -0.9004,-2.58789 -0.5332,0.18555 0.96484,2.77344 -2.33398,1.83984 -0.41406,0.10547 0.0469,0.18359 -1.14257,0.90039 0.32617,0.41211 1.38867,-1.09375 2.19336,-0.56054 -5.75391,8.92968 0.61914,0.39844 5.80469,-9.00781 5.08203,14.60547 0.5332,-0.18555 -5.22461,-15.01172 6.8086,-1.74023 -5.96484,3.33008 0.25781,0.46484 7.71875,-4.30664 0.29492,-0.0762 1.80469,1.77539 -0.4668,1.52148 0.3457,0.10547 0.41016,-1.3418 0.72266,0.71094 0.44531,-0.45312 -0.95703,-0.94336 0.65234,-2.13086 3.3418,-0.85352 -0.13477,-0.52539 -3.02148,0.77148 0.17773,-0.58007 5.61719,-3.13477 -0.25977,-0.46289 -5.13281,2.86523 2.00781,-6.55664 -0.3457,-0.10546 -2.11719,6.91601 -2.96289,1.65235 -3.33984,-3.28711 4.52734,-3.56836 -0.32617,-0.41407 -4.58008,3.60938 -0.7207,-0.70899 3.57812,-5.55273 -0.62109,-0.39844 -3.49414,5.42188 -2.59961,-2.56055 0.0801,-0.24414 1.88281,-0.39453 -0.0684,-0.32227 -1.69336,0.35547 2.04883,-6.16211 0.11524,-0.0176 0.0449,0.16211 1.21875,-0.33984 8.12109,-1.14453 -0.11523,-0.80664 -2.01953,0.28515 5.67187,-1.58007 1.20117,0.59375 v -0.87696 l -0.0664,-0.0332 0.0664,-0.0176 v -0.82031 l -1.12695,0.31445 -13.11133,-6.49218 3.42578,-8.96485 5.89063,6.54492 0.57617,-0.51953 -6.1543,-6.83789 1.58594,-4.15234 -0.40234,-0.15235 -1.50782,3.94532 -4.92382,-5.47071 6.77734,-1.59179 6.68945,3.7539 0.3086,-0.55273 -6.08594,-3.41602 8.05859,-1.89258 v -0.75585 l -9.00781,2.11523 -6.39649,-3.58984 0.79493,-2.41211 -0.39063,-0.12891 -0.76953,2.33789 z m -108.78711,0.16797 2.09765,0.0762 -2.54687,0.89258 0.0742,-0.45508 z m -160.47461,0.82812 -5.23047,0.31446 0.01,0.14257 5.23047,-0.31445 z m 34.30468,0.0781 -4.49804,13.91211 -0.64844,-4.12305 0.66406,0.14062 1.37696,-6.50585 h 0.004 v -0.0156 l 0.24219,-1.14844 z m 95.80274,0.76953 -0.69922,0.10742 2.44531,15.92383 -0.43945,1.60742 -2.37109,-1.97656 0.0488,-0.72071 -0.38671,-0.0254 -0.0293,0.43946 -1.16016,-0.9668 -0.15625,0.18555 1.29492,1.08008 -0.92187,13.4082 0.38672,0.0254 0.90234,-13.12891 2.32227,1.93555 -2.64258,9.6543 0.66406,0.18164 2.56055,-9.34961 0.33203,0.27539 1.08008,7.0332 0.70117,-0.10937 -0.95898,-6.23633 1.07226,0.89258 0.1543,-0.18555 -1.28125,-1.06836 -0.45508,-2.95898 3.43359,-12.54102 -0.66406,-0.18359 -3.02539,11.05468 z m -140.716804,0.0234 -2.5625,5.83593 0.16016,0.0703 2.5625,-5.83594 z m -42.249998,0.20898 6.519531,4.27148 -5.142578,1.07032 0.08008,0.38867 5.533203,-1.15039 1.908203,1.25 -2.732421,4.24219 -8.3125,-2.17579 z m 338.103522,0.19727 -0.0274,0.42773 6.17383,0.38477 v -0.42969 z m -179.21094,1.10937 -0.15234,0.0918 3.36718,5.55664 0.15235,-0.0918 z m 114.29102,0.1875 2.88867,0.52344 -1.26758,3.5957 z m 3.15429,0.57227 2.98242,0.54101 -4.26953,3.10547 z m 52.30664,0.24414 5.6875,3.1914 -6.39062,1.50196 -0.61719,-0.68555 z m -245.36133,0.11328 -1.30078,6.13867 -0.76367,-4.86523 1.60938,-1.27149 z m -1.75195,0.006 -0.45508,0.35937 -0.0566,-0.35742 z m -66.091799,0.39258 -2.111328,9.125 -4.0625,-1.0625 4.771484,-4.02539 -0.164062,-0.19336 -4.90625,4.14062 -2.066407,-0.54102 3.917969,-6.08203 -0.470703,-0.30273 z m 51.308599,0.81054 -0.20313,0.0488 1.65821,6.93945 -0.36914,-0.25586 -1.25782,1.82227 0.11914,-0.74219 -0.29687,-0.0469 -0.21875,1.36328 -1.86328,2.70117 2.17187,-7.4375 -0.5664,-0.16406 -2.66992,9.14648 -5.99219,8.6875 -3.20117,-3.85351 0.71484,-1.48633 -0.54883,-0.26367 -5.49023,11.42382 -4.949224,-6.75781 -0.27539,0.20117 5.058594,6.90625 -3.974614,8.26954 0.54883,0.26367 3.832034,-7.97656 1.89453,2.58593 0.27539,-0.20117 -2.00195,-2.73242 4.49023,-9.3457 3.09961,3.73046 -3.23437,4.68946 0.57031,0.39258 3.125,-4.5293 10.90625,13.12695 -2.78125,2.33594 0.0742,0.0898 2.7832,-2.33789 1.70313,2.05078 -8.8711,1.34766 0.0723,0.48438 9.16406,-1.39258 2.98633,3.59375 -0.43945,0.30078 0.44531,0.64844 0.49805,-0.3418 0.35742,0.42969 0.68555,-0.57032 -0.30469,-0.36718 13.72265,-9.42188 -0.26367,0.89649 -0.28711,-0.27344 -10.45312,10.85156 -3.74805,1.9082 -2.51758,-5.32812 -0.55078,0.26172 2.52344,5.34375 -8.42188,4.29101 0.25391,0.49414 8.40625,-4.28125 0.48242,1.01954 -0.21875,0.22656 0.40625,0.39062 0.0703,-0.0723 5.20117,11.01367 -1.26172,0.14648 0.0957,0.82227 1.53906,-0.17774 0.44532,0.94141 0.55273,-0.25977 -0.35742,-0.75585 1.25586,-0.14454 -1.81055,9.05274 -5.38281,3.42773 0.3457,0.54492 5.3086,-3.38085 h 0.002 l 5.40625,-3.44532 1.10937,2.15235 0.62305,-0.32227 -1.13867,-2.20898 4.35547,-2.77344 0.89453,1.50781 0.33789,-0.19922 -0.90234,-1.51953 3.83203,-2.4414 -0.34571,-0.54297 -3.81445,2.42968 -0.82422,-1.39062 0.58203,-0.56641 -0.16601,-0.17187 -0.54102,0.52734 -0.88281,-1.48828 18.0332,-2.08594 -1.76172,2.45508 -0.0859,-0.15234 -23.04883,12.98828 0.35547,0.63086 22.02148,-12.41016 -3.42969,4.7832 0.52539,0.37696 6.29102,-8.77344 0.69727,-0.0801 -0.0879,-0.76953 6.84961,-9.55078 -0.52539,-0.37695 -7.15039,9.9707 -19.14648,2.21289 -0.75586,-1.27344 14.99609,-1.6914 -0.0469,-0.41602 -15.16992,1.71094 0.004,0.0293 -2.80078,-4.72266 -0.33789,0.19922 3.68555,6.21484 -5.125,0.5918 -0.28321,-0.55078 0.52149,-2.60938 -0.37695,-0.0762 -0.42774,2.13672 -5.94922,-11.54297 1.74024,-1.80664 5.26758,-2.68359 -0.25196,-0.4961 -3.83594,1.95313 9.10157,-9.44922 -1.15821,3.91797 0.28907,0.0859 1.63086,-5.51758 6.61132,-4.53711 -1.67382,7.83008 0.64453,0.13671 1.81836,-8.50976 0.95898,-0.6582 -0.44726,-0.64844 -0.27149,0.1875 1.60352,-7.50391 2.13281,-1.41406 -0.39649,-0.59766 -1.52148,1.00782 0.0566,-0.26758 9.9043,-7.33203 0.52539,4.30273 0.14844,-0.0176 -0.53516,-4.38672 2.30273,-1.70507 -0.27343,-0.36914 -2.09375,1.54882 -0.0547,-0.45508 -0.14844,0.0195 0.0664,0.53906 -9.69727,7.17969 0.96289,-4.50391 -0.64648,-0.13672 -1.11914,5.23438 -0.70313,0.52148 0.27149,0.36719 0.28711,-0.21289 -0.041,0.19531 -19.5332,12.94727 0.39648,0.59765 18.92188,-12.54101 -0.19532,0.91992 -9.04296,7.91211 0.2207,0.25195 8.70312,-7.61328 -1.29296,6.05273 -6.49415,4.46094 1.13086,-3.82422 -0.28906,-0.0859 -1.23633,4.17968 -14.58203,10.01367 -2.69531,-3.24218 7.46289,-1.13282 -0.0723,-0.48437 -7.75586,1.17773 -13.18945,-15.87304 4.91602,-7.12891 -2.75,9.42383 0.5664,0.16601 3.25,-11.13476 2.22657,-3.22852 -1.26172,7.89844 0.29687,0.0469 1.36133,-8.51954 1.95508,-2.83398 0.0215,0.0918 0.20118,-0.0469 z m 252.8457,0.11133 -19.79297,17.98438 -4.52148,-2.56641 -0.21094,0.37305 4.39844,2.49609 -0.0664,0.0606 -0.96484,0.12109 0.0332,0.26953 0.58399,-0.0723 -1.54297,1.40234 -0.44727,-0.0449 -0.0488,0.49414 -0.45117,0.41016 0.57422,0.63085 0.80859,-0.73632 7.25391,0.71875 0.85742,0.48828 -14.49804,8.43164 8.23437,-6.4082 -0.17773,-0.23047 -8.39063,6.52929 0.16406,0.20899 -3.58593,2.08593 0.3457,0.59376 18.59961,-10.81836 1.93945,1.0996 0.21289,-0.37304 -1.72265,-0.97656 0.63867,-0.3711 3.99414,0.39453 -1.96485,5.42383 -8.25195,5.91406 0.35352,0.49219 7.53515,-5.40039 -0.60742,1.67383 -3.13086,2.35351 -3.00781,1.13086 0.20117,0.53516 1.17774,-0.44336 -13.76758,10.3418 -4.66211,3.34375 0.17383,0.24219 0.42187,-0.30274 0.40821,0.54102 20.29687,-15.2461 15.45703,-5.81836 -0.20117,-0.5332 -13.25391,4.98828 0.0684,-0.19336 2.74414,-2.06054 -0.51758,-0.6875 -1.6914,1.26953 0.59375,-1.63868 7.46289,-5.34765 5.08594,0.5039 0.0703,-0.70507 -4.2832,-0.42383 1.38086,-0.99024 -0.35157,-0.49218 -1.9414,1.39257 -5.04688,-0.5 0.55469,-1.53125 1.46289,-0.60156 -0.0488,-0.11914 -1.35351,0.55664 1.67968,-4.63867 -0.46093,-0.16602 -1.83203,5.05665 -2.42579,0.99804 0.0488,0.1211 2.31836,-0.95508 -0.44531,1.22851 -3.19922,-0.3164 0.97852,-0.56836 -0.34571,-0.59375 -1.79883,1.04687 -2.96289,-0.29297 -4.08203,-2.3164 7.63477,-0.95313 -0.0352,-0.26953 -7.3789,0.91992 19.29492,-17.5332 z m -265.7832,0.0781 -0.27344,0.0957 3.52539,9.9668 0.27344,-0.0957 z m -43.685552,0.10546 -0.947266,1.47071 -1.474609,-0.9668 0.685547,-0.14258 0.285156,0.76563 0.111328,-0.041 -0.279297,-0.75 z m 220.287112,0.13086 -0.10742,0.2168 7.88281,3.875 0.10742,-0.2168 z m 39.68945,0.31055 -4.93359,1.00391 0.0273,0.13476 4.9336,-1.0039 z m -162.05468,1.94727 1.54492,3.66015 -4.0625,0.29297 2.3418,-3.67578 0.1582,2.17578 0.16992,-0.0137 -0.17578,-2.40234 z m 218.99804,0.85156 0.0352,0.0371 -0.0508,0.0117 z m -38.6582,3.26758 -16.25,9.86133 0.27148,0.44531 16.24805,-9.86133 z m -159.11914,0.58007 5.21484,2.78321 -5.78711,-0.13672 z m -122.857426,0.0117 1.751953,0.45899 -1.333984,1.125 0.162109,0.1914 1.46875,-1.23828 4.673828,1.22266 -1.951172,8.43164 -2.865234,1.23047 -5.669922,-4.21484 -0.429687,0.57812 5.333984,3.96484 -0.109375,0.0469 -2.011719,-1.51758 -0.427734,0.56836 1.685547,1.27344 -4.166016,1.78711 0.152344,0.35937 4.373047,-1.87695 3.607422,2.72461 -12.841797,4.82422 2.195312,-6.95703 1.873047,0.34765 0.06445,-0.34961 -1.830078,-0.33984 1.773438,-5.61914 z m 43.322266,0.0781 -10.650394,13.50586 0.36914,0.29297 10.650394,-13.50782 z m 252.55274,0.17383 -0.002,0.10156 3.7129,0.10742 0.004,-0.10156 z m -8.93946,2.17187 -22.94335,10.79688 0.29687,0.62695 22.94141,-10.79492 z m -146.41992,1.39844 0.76563,0.0176 0.0508,0.15234 -0.01,0.25977 z m -70.84961,0.54883 -6.22461,5.11523 0.13868,0.16992 6.22656,-5.11523 z m 47.41407,0.24218 -3.49414,19.16211 -19.54297,4.24024 6.24218,-7.7832 -0.41796,-0.33594 -6.65625,8.29883 -1.0625,0.23046 0.17382,0.79493 0.0801,-0.0176 -4.79101,5.97265 0.41797,0.33594 5.20507,-6.48828 20.19141,-4.3789 -1.30274,7.14648 0.74415,0.13476 0.30468,-1.67382 0.0312,0.0156 2.57813,-4.97851 -0.13477,-0.0703 -2.40234,4.63868 0.98242,-5.38672 7.17578,-1.55664 -0.17383,-0.79688 -6.84375,1.48438 3.43946,-18.85157 z m 86.65234,0.22071 9.21094,1.27929 -9.97656,3.40821 z m -61.00195,0.89258 3.64843,1.94726 -2.14648,2.47071 z m -41.60352,0.0801 -10.14453,12.75196 0.34961,0.27929 10.14453,-12.7539 z m 14.33203,0.10352 -5.05273,11.10352 0.30469,0.13867 5.05273,-11.10352 z m 119.23242,0.33594 -6.10156,0.99609 0.0274,0.16797 6.10156,-0.99609 z m -56.13086,0.19531 0.0918,0.5957 -0.20703,-0.17383 z m -141.470704,0.73633 -15.7539,7.20703 0.19726,0.43164 15.75391,-7.20703 z m 109.773444,0.7539 5.62305,3 -6.89844,3.19727 -1.15625,-3.40039 z m -153.212895,1.92774 -0.826172,2.61719 -0.769531,-0.14258 z m 23.541015,1.33203 -0.498046,7.04297 -0.525391,-0.58984 -0.462891,0.41406 0.925782,1.04101 -0.0078,0.12305 0.126953,0.01 4.259766,4.78125 -3.876953,-1.77735 -0.171875,0.375 -4.660157,-3.46289 2.333985,-3.78906 -0.533203,-0.32813 -2.304688,3.74219 -4.964844,-3.68945 z m 136.05274,0.20117 -2.81055,3.81836 0.57617,-2.78125 z m 140.59375,0.0547 3.43164,1.94727 -5.02734,-0.4961 z m -292.335943,0.57227 3.6875,2.74023 -0.15625,0.0586 -3.644531,-2.75 z m 336.337893,0.15624 -3.79101,3.60547 0.46679,0.49024 3.32422,-3.16211 z m -187.03125,0.34571 -0.6289,3.0332 -2.81055,3.81641 -1.54297,-4.53906 z m 149.03321,1.83984 0.39648,0.041 -0.16211,0.0937 z m 6.0625,0.60156 4.42187,0.4375 -6.18555,4.43165 z m -299.873056,0.42188 5.386719,4.00391 -0.105469,0.16992 -5.447266,-4.11133 z m 251.759766,0.80469 -10.18554,1.09179 0.0312,0.2793 10.18359,-1.0918 z m -68.75781,2.75 -0.23633,0.41797 15.26172,8.60156 0.23633,-0.41797 z m -183.642581,0.8457 2.84375,4.77148 -1.183594,1.91993 z m 170.162111,0.92383 -0.21289,0.0859 3.13086,7.76562 0.21289,-0.0859 z m 162.28711,0.51367 -2.6914,0.85156 -0.34766,-0.21094 -0.10156,0.16797 0.19922,0.1211 -2.41993,0.76367 0.15821,0.5 2.85937,-0.90234 2.34375,1.41796 v -0.22851 l -2.0957,-1.26758 2.0957,-0.66211 z m -261.49609,1.55664 -9.12695,6.17578 0.16992,0.25 9.12695,-6.17578 z m 246.81836,0.26172 -2.0586,6.19531 -0.22461,0.0469 -5.25781,-5.17774 z m -97.24805,0.86133 0.0312,0.084 -0.0352,-0.0273 z m -81.23242,0.47656 4.65039,1.21875 -0.48633,0.35938 -2.31836,0.51757 -0.78515,-0.11328 -0.0449,0.30078 -3.22851,0.72266 z m 10.4414,1.06445 -0.79882,0.69336 -1.0586,-0.27734 z m 135.94336,0.0176 -0.0684,0.0762 2.77735,2.4961 0.0684,-0.0762 z m -215.9082,0.084 -7.67187,3.83593 0.10547,0.20899 7.66992,-3.83399 z m 52.35742,0.18554 -17.93164,23.27149 0.63867,0.49218 17.93165,-23.27148 z m 24.16992,0.48242 1.96094,0.51368 -0.77148,0.67187 -3.93164,-0.57226 z m -127.816404,0.0742 9.3789,4.29493 -3.36132,-0.0469 -0.002,0.12695 3.65235,0.0527 4.42187,2.02539 -2.23633,0.86719 0.03711,0.0937 2.32618,-0.90235 0.92773,0.42578 -8.16992,1.75391 0.42969,-0.38281 z m -20.175782,0.16602 -3.242188,5.71875 0.15625,0.0879 3.244141,-5.71875 z m 297.046876,1.63672 -3.75586,21.42187 -1.98828,-1.00976 1.39649,-0.28711 -0.043,-0.21094 -1.66211,0.3418 -6.19531,-3.14649 -1.75977,-2.89258 -0.69531,0.42383 1.07617,1.76758 -1.91992,-0.97461 -0.38477,0.75977 3.14453,1.59765 2.08399,3.42188 -1.41602,0.29101 0.0449,0.21289 1.49024,-0.30664 4.57226,7.51368 -11.08007,4.83789 0.16015,0.36523 -1.04687,0.14844 0.0176,0.13476 1.08593,-0.15234 0.0527,0.12109 0.4375,-0.1914 3.30468,-0.46485 -0.0195,-0.13476 -2.82226,0.39844 10.26367,-4.48047 0.375,0.61718 -0.38281,2.1875 0.88476,0.15625 0.20703,-1.17968 4.69141,7.70898 -0.32422,0.32422 0.29297,0.29102 0.25195,-0.25196 0.41016,0.67383 0.69531,-0.42383 -0.51367,-0.8457 2.70703,-2.7207 1.39844,3.06445 0.10937,-0.0508 1.57032,4.68164 -5.94922,8.01953 0.66015,0.49023 5.60743,-7.56054 1.58984,4.74219 -4.46094,7.24609 h 0.70899 l 4.00195,-6.50195 1.62891,4.85351 -2.80079,1.26172 0.11914,0.26367 2.77344,-1.25 0.46094,1.37305 h 0.71875 l -0.55469,-1.6543 6.22266,-2.80469 -0.11914,-0.26367 -6.19531,2.79297 -1.78711,-5.32812 3.40429,-5.5293 -0.51367,-0.31641 -3.14062,5.10157 -1.56055,-4.65235 3.92187,-5.28906 7.68946,-0.74609 -0.82032,3.87109 0.13086,0.0273 0.83008,-3.91211 2.46289,-0.23828 3.76367,12.10352 -0.16406,0.17969 0.1211,0.11132 0.0996,-0.10937 0.17968,0.57812 -2.63476,-0.95703 -0.74024,-6.64843 -0.73437,0.082 0.70117,6.28515 -3.7793,-1.37304 -0.22656,0.62109 4.08594,1.48633 0.73437,6.58203 h 0.74219 l -0.70117,-6.30078 2.80078,1.01758 1.64258,5.2832 h 0.92969 l -1.52344,-4.90235 10.05859,3.65626 v -0.70508 l -10.30664,-3.74414 -0.5332,-1.71875 2.00976,-2.19532 8.83008,-4.15234 v -0.66211 l -7.76367,3.65039 0.16602,-0.18164 -0.1211,-0.11133 -0.4375,0.47656 -1.04101,0.49024 0.20117,0.42969 -1.90039,2.07422 -3.55469,-11.4336 2.61914,-0.2539 -0.0527,-0.53711 -5.81641,0.56445 0.0762,-0.35938 -0.13281,-0.0273 -0.084,0.40039 -7.37304,0.7168 7.42187,-10.00586 -0.66015,-0.49024 -7.86524,10.60352 -5.02148,0.48633 -1.20703,-3.59766 -0.0352,0.0117 5.67188,-5.69922 1.58984,0.80664 0.38477,-0.75781 -6.02149,-3.05859 -1.19531,-1.57422 0.70703,-0.3086 -0.26953,-0.61718 -0.85742,0.375 -0.37891,-0.5 -2.73242,-10.43164 -0.33789,0.0898 2.51953,9.61719 -3.32617,-4.37696 -0.23438,0.17774 3.75391,4.93945 0.18945,0.72266 -0.83594,0.36523 -6.06445,-3.08008 3.80469,-21.69336 z m 37.09961,0.26367 -0.0293,0.0332 0.0293,0.0254 z m -296.48633,1.1582 0.54688,0.006 -0.20899,0.27735 0.33399,0.24804 0.39062,-0.52148 1.26953,0.0117 -2.41796,2.17383 z m 171.09961,0.16992 3.50391,1.08399 -3.2793,1.17383 z m -165.90039,0.39063 -0.0605,0.14844 5.45312,2.21875 0.0605,-0.14844 z m 127.49024,1.81836 -14.05078,13.80078 0.3789,0.38477 14.05078,-13.80079 z m -181.714851,0.37695 9.164063,1.44531 -4.150391,3.86329 -0.150391,-0.64258 -4.140625,0.96289 z m 219.787111,0.14649 0.18164,1.83398 -3.66406,-0.58594 z m 99.18555,0.35547 -5.33984,6.37304 0.17382,0.14649 5.33985,-6.37305 z m 12.83594,0.61328 0.57031,0.56054 -1.89258,1.49219 z m -134.81836,0.48437 -0.66797,0.54102 9.00781,11.13476 -2.67969,0.96485 0.0566,0.1582 2.73438,-0.98438 2.18945,2.70508 -8.98242,-2.46875 -0.19531,0.70703 9.96875,2.74024 0.34765,0.43164 -2.16211,3.82617 -3.14648,0.62305 -0.32617,-2.03321 -0.30859,0.0488 0.32812,2.04492 -10.67969,2.11133 0.92578,-1.92578 11.34766,-4.14648 -0.23242,-0.63867 -10.69141,3.90624 0.53125,-1.10351 -0.50586,-0.24414 -0.78125,1.62305 -6.45312,2.35742 8.37695,-10.0293 -0.34961,-0.29102 -1.73437,2.07618 6.35937,-9.52735 -0.33984,-0.22656 -8.28711,12.41602 0.0293,0.0195 -4.90624,5.87304 -4.57032,1.66993 0.23242,0.64062 3.46485,-1.26562 -0.88867,1.06445 0.34961,0.29102 1.39257,-1.66797 6.90039,-2.52149 -0.85937,1.78516 -1.45703,0.28906 0.0976,0.49609 1.08594,-0.21484 -4.93359,10.25195 -13.50781,-8.26953 -0.31446,0.51563 13.5586,8.30078 -1.3418,2.78711 0.50391,0.24219 1.31835,-2.73633 4.76563,2.91797 0.31445,-0.51563 -4.81836,-2.94922 5.14258,-10.68164 11.0332,-2.18164 0.59766,3.73633 -0.55273,0.97852 -0.67383,0.0351 0.0273,0.53711 0.33399,-0.0176 -0.57617,1.01953 0.35156,0.19727 0.70117,-1.24219 0.625,-0.0312 0.26953,1.68164 -16.94922,18.55274 -1.78125,-0.47071 14.55274,-14.59765 -0.5586,-0.55664 -14.13672,14.18164 -3.24023,-0.0684 -5.31836,-2.69922 1.87305,-2.21875 -0.26172,-0.22266 -1.3125,1.55664 2.8164,-5.32421 -0.40234,-0.21485 -3.25391,6.14844 -2.38086,-1.20899 2.72266,0.22461 0.0137,-0.14843 -3.08984,-0.25586 -6.58984,-3.34571 -0.25782,0.50977 5.33789,2.71094 -0.84961,-0.0703 -0.0117,0.1504 1.21679,0.0996 3.6211,1.83985 -0.27539,0.52148 -0.28321,0.33399 -1.00195,-0.26368 -0.17383,0.65821 0.68945,0.18164 -0.73632,0.87305 -3.33008,-0.0703 -0.008,0.39649 3.00976,0.0625 -3.55273,4.20898 0.26367,0.22266 3.73242,-4.42188 0.23242,0.006 -2.8457,5.37891 0.40234,0.21289 2.95313,-5.58203 5.17383,0.10937 0.93554,0.2461 -0.27929,3.93945 -0.75782,0.75781 -1.55468,-0.44336 -0.0371,0.12891 1.48437,0.42383 -0.61133,0.61328 h 1.11133 l 0.2793,-0.28125 -0.0195,0.28125 h 0.54687 l 0.0176,-0.23633 0.83008,0.23633 h 0.49023 l -1.31054,-0.37305 0.0351,-0.5 3.22656,-3.23633 0.65235,0.33203 0.25195,-0.49414 1.24805,0.33008 0.52734,0.48242 0.25391,-0.27734 10.75976,2.83789 0.17383,-0.66015 -10.41601,-2.7461 16.30078,-17.83789 0.14258,0.89258 0.11914,-0.0195 0.18554,0.39453 9.31641,-4.40625 7.96875,-0.41797 -0.0293,-0.53711 -6.6582,0.34961 0.42383,-0.20117 0.10547,0.1289 0.53125,-0.43164 7.81054,-3.69336 4.39649,3.4629 -3.67383,3.56445 0.27148,0.27929 3.71094,-3.60156 0.67774,0.53321 0.15039,-0.19141 -0.65039,-0.51172 3.60937,-3.50195 6.13086,5.83984 -2.79883,13.3457 -1.03711,0.24805 0.69922,-1.12695 -0.7168,-0.44531 -1.14648,1.8496 -7.77539,1.85157 0.13867,-0.50586 -0.60742,-0.16797 -0.23242,0.83984 -7.94141,1.89063 0.19922,0.83594 0.42773,-0.10157 1.66407,3.28321 -1.83399,2.41406 h 1.01172 l 1.22656,-1.61524 0.68555,1.35352 -0.73242,0.0371 0.0117,0.22461 h 8.34179 l 0.004,-0.008 3.13477,-0.1543 0.21679,0.16211 h 1.17579 l -0.29102,-0.2168 7.27148,-0.36133 0.5625,0.10938 -0.86718,0.46875 h 1.38672 l 0.5,-0.26953 1.38671,0.26953 h 4.82227 l 4.43555,-1.82422 -0.19922,-0.48437 -5.50196,2.26367 -3.50976,-0.68164 0.0762,-0.004 -0.0176,-0.3457 5.41211,-2.91992 -0.3125,-0.58008 -6.04883,3.26562 -1.68554,0.082 -5.41016,-1.05078 0.68555,-3.26953 8.38672,-6.33398 4.15234,-0.98828 -0.19922,-0.8379 -2.24219,0.53321 11.11719,-8.39649 -0.48242,-0.63672 -12.56836,9.49414 -7.01172,1.66993 2.64063,-12.5918 7.67968,7.31445 0.54297,-0.57031 -8.03125,-7.65039 0.37891,-1.81055 -0.69336,-0.14453 -0.28906,1.38086 -5.75586,-5.48437 2.16211,-2.09766 -0.27149,-0.2793 -2.17383,2.10938 -6.1621,-5.8711 -0.54493,0.57032 6.14063,5.84961 -3.63477,3.52734 -4.32812,-3.4082 0.73633,-0.34766 -0.26368,-0.56055 -1.01562,0.48047 -0.89844,-0.70703 1.05664,0.29102 0.19336,-0.70703 -9.91211,-2.72461 -1.76562,-4.00391 2.65039,-1.33594 -0.0879,-0.17578 -2.64258,1.33203 -3.63086,-8.23242 -0.45899,0.20313 3.64063,8.25586 -3.31641,1.66992 0.0879,0.17578 3.3086,-1.66602 1.58984,3.60547 -4.21094,-1.1582 0.28321,-0.50195 -0.35156,-0.19922 -0.33399,0.58984 -0.25195,-0.0684 -2.75586,-3.40625 2.16015,-0.77734 -0.0566,-0.15625 -2.21484,0.79687 z m 34.26172,0.41797 -2.68946,4.35547 0.11914,0.0742 2.68946,-4.35547 z m 101.5039,0.0312 3.26563,3.21484 -0.006,0.002 -8.23828,2.10351 1.83007,-2.83984 z m -43.02734,0.7793 -8.84375,11.31054 0.31055,0.24219 8.84375,-11.31055 z m 49.60937,1.1914 -0.13281,0.43164 -1.17773,0.30079 z m -205.36523,0.27539 -4.80469,5.00782 0.13867,0.13086 4.80274,-5.00782 z m 205.04687,0.76368 -0.5332,1.74023 -1.29297,-1.27344 z m -309.595704,0.71289 -3.843749,5.08593 0.140625,0.10547 3.843754,-5.08593 z m 298.402354,0.16211 -0.7793,1.21093 -0.16211,-0.46875 z m -250.55274,0.45898 -0.47656,0.49609 -0.10352,-0.20117 z m -1.20508,0.61328 0.21289,0.41602 -0.94726,0.98437 -0.39063,-0.82617 z m 250.34766,0.041 0.21484,0.61718 -1.47656,0.37696 z m -249.86133,0.90429 6.24219,12.11329 -0.0176,0.0898 -1.79883,0.20703 -5.39062,-11.41016 z m 77.28125,0.60157 -24.86719,12.79882 0.34961,0.68164 24.86719,-12.79882 z M 50.66194,173.9746 v 1.69141 l 0.111328,0.18164 0.751954,-0.45899 z m 167.42188,1.11328 -6.3418,19.87891 -1.24804,-18.70703 -0.60352,0.041 1.26367,18.94531 -8.24414,4.43555 -0.0293,-0.0391 -1.52343,-10.71094 -0.38672,0.0547 1.41992,9.97461 -3.10547,-4.3086 -0.55664,0.40039 3.57227,4.95704 -3.19141,1.71679 0.17969,0.33008 3.23242,-1.74023 0.0762,0.10547 0.38672,2.71679 0.38672,-0.0547 -0.28125,-1.98046 6.79297,9.42578 -4.41797,4.38672 0.35351,-0.41602 -0.40039,-0.33984 -0.99804,1.17578 3.10156,-5.81836 -0.27148,-0.14258 -3.76172,7.06055 -0.99219,1.16992 h 1.33203 l 6.5,-6.45703 3.02539,4.19726 0.55664,-0.40039 -3.08984,-4.28711 12.0625,-11.98242 0.60742,0.95508 -0.66016,2.94336 0.12305,0.0273 0.63281,-2.82031 2.84766,4.47656 0.24219,-0.15429 -3,-4.71875 0.28125,-1.25782 -0.12305,-0.0273 -0.25391,1.13477 -0.96875,-1.52344 1.75782,-0.59961 -0.0703,-0.20703 -1.80859,0.61718 -1.44336,-2.26953 -0.24414,0.1543 1.40625,2.21094 -5.46484,1.86523 0.0703,0.20703 5.51562,-1.88281 0.13867,0.21875 -12.09374,12.01367 -7.24415,-10.05078 8.05079,-4.33203 0.0586,0.88281 -0.45899,1.43946 0.56836,0.17968 0.0117,0.18946 0.10742,-0.008 -5.52929,3.22266 0.39648,0.67773 24.75586,-14.42187 -0.39453,-0.67969 -18.74805,10.92383 -0.0879,-1.30469 6.84961,-21.46875 z m 90.79297,0.26758 -0.52539,0.36719 8.15234,11.64062 -4.11328,2.32813 0.26367,0.46679 4.15821,-2.35351 1.99218,2.8457 -6.5,-0.32031 -0.0215,0.46289 6.85742,0.33789 2.63867,3.76758 0.52539,-0.36719 -2.35351,-3.35937 9.24609,0.45507 0.0234,-0.46484 -9.60547,-0.47266 -2.24219,-3.20117 12.3418,-6.98242 -0.26367,-0.46875 -12.38672,7.00977 z m -230.617193,0.7168 -3.082032,2.93945 0.08008,0.0859 3.082031,-2.93946 z m 102.044923,0.50195 -1.32422,3.78711 -1.72656,1.09375 -10.44726,3.36328 0.1914,0.59375 8.14844,-2.62305 -2.92969,1.85352 -2.59375,1.22656 1.63477,-1.50976 -0.082,-0.0899 -1.91797,1.77344 -0.53711,0.25391 -1.45117,-0.79688 -0.42969,0.78125 0.88476,0.48633 -7.92578,3.74804 0.17383,0.36524 8.18945,-3.87305 0.0332,0.0176 -0.2793,0.25781 0.0488,0.0527 -12.75391,8.07226 0.47657,0.75391 13.53906,-8.57227 16.67383,9.15039 -4.15235,-0.60937 0.008,-0.0293 -0.82421,-0.24218 -0.043,0.14648 -6.85743,-1.00586 -7.69531,-3.85742 -0.21875,0.43554 6.37891,3.19727 -7.01563,-1.02734 -0.10351,0.71679 9.18164,1.34571 5.56641,2.79101 -2.45313,8.34766 -1.65039,0.85937 0.17578,0.33789 1.32617,-0.68945 -2.625,8.92774 -3.35351,1.2207 h 2.06836 l 1.03711,-0.37695 -0.11133,0.37695 h 0.89648 l 0.21875,-0.74219 6.57422,-2.39258 -0.78711,1.11133 0.4707,0.33399 1.26954,-1.79102 7.33203,-2.66797 2.69531,6.14844 h 0.91797 l -2.82031,-6.43555 0.92773,-0.33789 -0.24219,-0.66406 -0.96875,0.35156 -0.2832,-0.64453 -0.77149,0.33789 0.26172,0.5957 -6.32812,2.30274 8.91797,-12.57617 2.58203,1.41796 0.42773,-0.78124 -2.49218,-1.36719 0.78125,-1.10157 -0.47266,-0.33398 -0.81836,1.1543 -2.58008,-1.41406 1.2832,0.1875 0.10547,-0.7168 -3.20898,-0.4707 -18.33984,-10.0625 8.41796,-5.33204 -1.10351,3.15821 0.22656,0.0781 1.16797,-3.33789 9.875,-3.17969 -0.19141,-0.59375 -7.83789,2.52344 2.53321,-1.60351 -0.47657,-0.75196 -3.39257,2.14649 1.22656,-3.50196 z m 49.88867,0.60937 -4.07226,0.71094 0.0195,0.11328 4.07227,-0.71289 z m -162.191406,0.96875 6.628906,3.79883 -0.287109,0.26563 -3.105469,-1.75196 -0.390625,0.69336 2.882813,1.62696 -4.576172,4.24804 z m 32.226566,0.88477 1.39063,0.0176 -1.55079,4.00195 z m 248.63867,0.38281 4.01563,2.04102 -2.4668,0.50781 z m -221.52148,1.3418 -6.11524,5.29297 0.14454,0.16797 6.11718,-5.29297 z m 225.84765,0.85547 3.16993,1.61133 -1.08399,6.18164 -0.26367,0.11523 -4.47852,-7.36133 z m -278.113281,0.59179 1.712891,0.98047 -0.248047,0.26953 -1.748047,-0.98632 z m 186.625001,0.38672 4.45508,1.22657 1.70508,3.86523 0.46094,-0.20312 -1.53907,-3.49024 7.92579,2.17774 -0.0625,0.0801 1.06835,0.8418 -7.50585,3.54883 z m -0.80078,0.37891 6.50977,8.04687 -1.65235,0.78125 -9.60547,0.50391 -0.11523,-0.72461 2.62305,-4.64258 1.67578,-0.33203 -0.0996,-0.49414 -1.24805,0.2461 z m 96.29688,0.67773 5.20703,2.64454 -6.14063,2.68164 z m -306.53907,0.0527 v 1.17383 l 0.22461,0.26757 0.578125,-0.48828 z m 293.92774,0.4082 -6.96875,8.74024 -1.07813,-1.14649 -0.0996,0.0918 1.0918,1.16015 -3.79883,4.76563 0.37305,0.29687 3.75586,-4.71093 1.9375,2.05859 0.0977,-0.0918 -1.94922,-2.07422 7.01172,-8.79296 z m -203.5586,1.24219 1.02149,1.7207 -3.74414,3.64453 -2.45703,-4.76562 z m 223.91211,0.57031 0.8711,1.14844 -0.90625,-0.46094 -0.1582,-0.60351 z m -229.83593,0.11524 2.67578,5.1914 -1.1211,1.0918 0.16407,0.16992 1.07031,-1.04102 0.14648,0.28516 -4.93359,3.14258 1.76172,-8.8125 z m 229.31836,0.11132 0.0664,0.25 -0.29492,-0.15039 z m -195,0.25782 -0.23047,0.14648 -0.0371,-0.0195 z m 193.75976,0.2832 6.89063,3.49805 -6.10157,6.13086 -3.34179,-7.32618 -0.29883,0.13672 3.39258,7.4375 -2.7461,2.75977 -5.06836,-8.33008 0.21485,-1.22461 z m -105.04297,0.34766 -2.20312,3.90234 -0.53906,-3.35938 z m -89.83593,0.0449 0.0273,0.0156 -0.13867,0.0879 z m -26.12891,0.20117 0.7832,1.32031 -4.32422,2.75196 -0.21484,-0.41797 z m -60.343754,0.0684 2.40625,1.35742 0.66406,9.11523 -5.320311,1.18165 z m 39.322264,2.80078 -8.06835,16.08594 -4.33204,-0.94336 -0.16406,0.75976 4.13477,0.90039 -0.65039,1.29883 -1.07227,0.80274 -13.169924,-7.31446 -0.36719,0.66016 12.875004,7.15039 -4.48437,3.36328 0.17382,0.23047 4.5879,-3.43945 0.56836,0.3164 -1.01758,2.03125 -0.66992,0.25977 0.10742,0.27734 0.36328,-0.14062 -1.37891,2.74804 0.68555,0.34571 1.5918,-3.17188 0.69336,-0.22461 -2.15821,5.45313 h 0.64453 l 2.25391,-5.69141 1.44531,-0.46484 3.43555,1.9082 -3.86719,4.24805 h 1.01172 l 3.52734,-3.875 2.96875,1.64844 -0.0781,0.34765 0.16797,0.0371 0.0664,-0.29687 0.4043,0.22461 -0.66797,1.91406 h 0.58985 l 0.64062,-1.83594 0.25977,1.83594 h 0.64453 l -0.44532,-3.15039 1.74415,-5.00781 12.23046,2.66406 0.16602,-0.76172 -12.13672,-2.64258 0.26953,-0.77344 4.96485,-1.59765 -0.16602,-0.51367 -4.57617,1.4707 0.86328,-2.47461 -0.52539,-0.18164 -1.00195,2.87109 -2.1543,0.69336 -0.58203,-0.12695 -0.83008,-5.86133 -0.63281,0.0898 0.79687,5.62696 -6.40234,-1.39453 0.44336,-1.1211 -0.42969,-0.17187 7.39453,-14.74219 z m 134.63868,1.86328 0.0488,0.30274 -0.22656,0.0117 z m 8.68554,0.38867 -7.72265,3.6543 -0.14258,-0.89453 0.68555,-0.75 -0.54102,-0.49414 -0.29297,0.32031 -0.22461,-1.4043 z m 46.38868,0.44532 -0.63086,0.62109 12.72656,12.91601 -1.22266,2.87305 -4.40625,-3.51172 -0.33593,0.41993 4.52343,3.60546 -3.32812,7.82813 h 0.66992 l 3.16016,-7.42774 9.32031,7.42774 h 0.86133 l -9.96289,-7.94141 1.18945,-2.79883 1.39258,1.41211 -2.31446,1.36719 0.19336,0.32422 2.39258,-1.41406 2.88281,2.92578 -1.51562,1.20898 0.28906,0.36133 1.55274,-1.24023 3.21093,3.25781 1.16407,2.53711 h 0.78125 l -0.5293,-1.15625 0.60156,-0.59375 -1.63476,-1.66016 -1.24805,-2.71875 -0.64649,0.29688 0.42969,0.93554 -1.43164,-1.45312 10.9375,-8.72656 -0.28711,-0.36133 -10.97851,8.75781 -2.79297,-2.83594 8.67578,-5.125 -0.19141,-0.32422 -8.75586,5.17383 -1.80273,-1.83007 2.69531,-6.33985 -0.5664,-0.24219 -2.59766,6.10743 z m 86.5039,0.66406 -4.61914,4.45117 0.5625,0.58398 4.05664,-3.91015 z m -286.55469,0.23633 -0.0527,0.11328 4.07617,1.95703 0.0527,-0.11133 z m 273.07032,1 -0.4043,0.76562 13.88867,7.35156 v -0.98047 z m -273.86328,0.13867 -0.082,0.0859 3.11329,3.00976 0.084,-0.084 z m -53.216805,0.01 -2.365235,5.65821 0.154297,0.0664 2.365235,-5.66015 z m 119.287115,1.13282 4.58594,0.67187 -0.41602,1.41992 z m 188.18554,0.56445 0.50391,1.49805 -0.62695,-1.375 z m -182.74023,0.23437 6.17969,0.9043 4.58789,2.51758 -9.36133,13.20117 -7.04492,2.56445 2.67773,-9.11523 9.98828,-5.19727 -0.17578,-0.33789 -9.66211,5.02735 2.17578,-7.40625 1.10157,0.55273 0.21875,-0.43554 -1.18164,-0.5918 z m 155.77149,0.66407 -0.01,0.5 18.2793,0.37109 0.01,-0.5 z m -120.64258,0.37695 -2.66016,7.45117 0.20313,0.0723 2.66211,-7.44922 z m -165.406257,1.54492 0.205078,0.2793 -0.335937,0.4375 z m 319.357427,0.34961 -3.13672,4.23047 -1.27539,-3.80273 z m -299.55274,0.48828 0.208985,0.59766 -1.71875,0.38086 z m 24.222656,1.57617 -7.64453,7.14649 0.19531,0.20898 7.64453,-7.14648 z m 76.787114,0.82227 -5.51562,2.77539 -17.82227,5.60938 0.3418,-1.50196 0.54687,-1.03711 -0.12109,-0.0644 -0.30664,0.58398 0.42968,-1.88671 -0.18554,-0.043 -0.58985,2.58398 -0.83789,1.5918 -2.66211,0.83789 0.21094,0.66601 1.99024,-0.62695 -0.37696,0.7168 0.1211,0.0625 0.4414,-0.83594 0.60742,-0.19141 -0.0391,0.17579 -0.5664,0.0586 0.0352,0.33203 0.45313,-0.0469 -0.32227,1.41015 0.18555,0.043 0.33594,-1.47461 5.40234,-0.55859 -6.70117,3.37304 -2.60352,-2.95507 -0.28711,0.2539 2.53711,2.87891 -0.45898,0.23047 -3.61328,-5.25391 -0.33203,0.22852 3.58203,5.20898 -0.34571,0.17383 0.36524,0.72461 0.44531,-0.22461 0.77734,1.13086 h 0.48829 l -0.90235,-1.3125 0.54883,-0.27735 1.40039,1.58985 h 0.51172 l -1.55859,-1.76758 8.41796,-4.23633 3.82032,-0.39453 -0.0332,-0.33203 -2.94922,0.30469 10.53907,-5.30274 2.42578,-0.76367 -0.125,-0.39453 2.6582,-1.33789 z m 27.19141,0.94336 -0.24805,0.0547 2.01367,9.01367 0.24805,-0.0566 z m 140.86132,0.36719 -0.65429,0.18554 3.79687,13.45313 h 0.70703 z m -89.5664,1.57226 -0.58985,0.23242 4.04883,10.23829 -4.87109,-1.66993 -0.0684,0.19922 5.03906,1.72461 0.5293,1.3418 h 0.68359 l -0.42383,-1.07227 1.41211,0.48438 0.0664,-0.19727 -1.58008,-0.54101 z m 43.58398,0.64453 -6.20312,4.68555 0.70703,-3.37891 z m -180.64648,0.94336 0.0469,0.0117 -0.008,0.0195 -0.0879,0.0664 z m 0.64062,0.14063 5.35743,1.16797 -5.66407,2.19922 -0.84179,-0.46875 z m 48.52735,0.12304 -7.9961,4.02344 -6.16406,0.63672 0.0508,-0.2207 z m -49.33203,0.28126 -0.8711,2.20117 -0.26758,-0.14844 0.96289,-1.91992 z m 174.55273,0 -0.80664,3.84765 -1.92188,1.45117 0.48047,0.63672 1.19336,-0.90039 -0.52148,2.48438 -3.44141,-0.66993 -0.13867,0.70899 3.43164,0.66797 -0.10742,0.51172 0.69336,0.14453 0.10937,-0.52149 2.54102,0.49414 -5.48633,0.26954 -2.01562,-1.50196 1.07226,-1.73047 2.97656,-2.36523 -0.32226,-0.40625 -1.84375,1.4668 2.62304,-4.23438 z m -228.533207,0.17187 -0.246094,1.29102 -0.5625,-0.76758 z m 64.658207,0.30273 -0.1543,0.44141 -0.72461,-0.1582 z m 161.22656,0.15625 -3.41601,5.51172 -0.92383,0.73438 -3.56055,-2.6543 0.50586,-1.83203 z m -184.50781,0.0156 -6.175784,9.28711 h 0.60547 l 5.990234,-9.00781 z m 18.89648,0.14453 0.97461,0.21289 -5.26172,1.69141 4.36719,-1.69531 z m -7.8457,0.37305 -0.25781,0.51562 -0.2461,-0.13672 z m 9.875,0.0684 1.94336,0.42382 -1.36914,3.92579 -0.29297,-2.06836 0.34766,-1.54493 -0.16797,-0.0371 -0.24609,1.0996 -0.25391,-1.78515 z m -0.65625,0.21093 0.47461,3.34961 -0.48242,2.14649 -2.61719,-1.45313 2.60742,-2.86523 -0.55273,-0.50391 -2.72656,2.99414 -2.97266,-1.65039 z m 107.38281,0.21485 3.67969,1.86719 -4.12305,-1.08594 0.36329,-0.68555 z m -79.64843,0.86328 -0.20899,0.91211 -0.32617,0.10351 z m 49.09765,0.002 -0.7832,4.06446 0.11133,0.0215 0.7832,-4.06445 z m 79.3125,0.0332 -0.34765,1.26171 -1.10743,-0.82617 -0.41992,0.5625 1.32617,0.98828 -1.38281,5.01368 -1.39453,0.0684 -1.06055,-2.09376 2.82422,-3.7207 -0.64258,-0.48828 -2.58789,3.4082 -1.37109,-2.70703 z m -165.28906,0.17187 0.32617,0.18164 -0.32422,0.82031 -0.625,0.24219 z m 115.75781,0.32813 2.94922,0.77929 -3.32422,-0.0703 z m -114.90234,0.14648 0.20508,0.11523 -0.29688,0.11524 z m 114.21094,0.1875 -0.19336,0.36523 -0.11328,-0.004 z m -56.53907,0.008 -1.89843,6.53516 h 0.44531 l 1.86328,-6.41602 z m -35.92187,0.91602 -1.50977,5.61914 h 0.87696 l 1.45117,-5.39844 z m 100.64453,0.0137 1.82617,0.0391 -0.34961,0.34961 z m -169.371098,0.11523 -6.796875,5.49024 h 1.103516 l 6.128906,-4.95117 z m 167.941408,0.21289 1.27344,0.33594 0.90234,0.45703 -2.40234,2.41211 z m -13.9082,0.0508 -3.37695,5.22656 h 0.70117 l 3.16992,-4.90625 z m -55.67578,0.0801 -9.08399,4.00196 0.10938,0.24804 9.08398,-4.00195 z m -64.101564,0.12696 -0.22852,0.0723 1.552734,4.94727 h 0.25 z m 177.148434,0.0332 3.19141,2.38086 -2.64844,2.10547 -1.80664,0.0898 z m -155.5957,0.32617 0.23047,1.62305 -0.14063,0.39844 -0.48437,-0.26758 z m 215.96289,0.0176 -0.29687,1.36914 -0.59571,-1.33594 -0.15429,0.0684 0.68945,1.54688 -0.6211,2.87305 0.125,0.0273 0.58399,-2.70313 1.24805,2.79688 h 0.18554 l -1.37304,-3.07617 0.33398,-1.53907 z m -77.04883,1.83399 -2.88867,2.80859 h 1.09766 l 2.32422,-2.25977 z m 20.30274,0.52343 0.0879,0.0664 -0.99805,1.61133 -1.2793,0.0644 z m 67.77539,0.31446 -0.18946,0.85937 5.0293,1.11133 h 4.07813 z m -67.00977,0.25781 1.28711,0.95898 -1.93945,0.0957 z m 64.37891,0.12109 -0.36524,0.40821 1.32422,1.18359 h 0.82227 z m -211.25781,1.33203 -0.0195,0.25977 h 3.66797 z" />
  </g>
  <g
     inkscape:groupmode="layer"
     id="layer2"
     inkscape:label="Layer 2"
     transform="translate(-50.661911,-42.364993)" />
</svg>
